<svg id="Capa_1" data-name="Capa 1" xmlns="http://www.w3.org/2000/svg" viewBox="0 0 614.12 627.06"><defs><style>.cls-1{fill:none;}.cls-2{fill:#1d3557;}.cls-3{fill:#457b9d;}.cls-4{fill:#a8dadc;}</style></defs><title>logo</title><path class="cls-1" d="M514.49,232.07c-3.21-2.1-6.1-3.88-6.54-3.88s-.33,1.66,0,3.55a183.23,183.23,0,0,1,2.77,40A239.07,239.07,0,0,1,544,361.86a198.59,198.59,0,0,1,15.64,20.52c4.33,6.43,8.43,12.65,9.32,13.87,1.33,1.88,1.78.88,4.55-10.54,4-16.64,5.1-41.82,2.33-57.35C568.74,288.31,546.55,253.26,514.49,232.07Z"/><path class="cls-1" d="M279.55,276.33c-1.11.22-2.22.56-3.33.78a29.51,29.51,0,0,1,3.33-.78Z"/><path class="cls-1" d="M261.69,281.77a128,128,0,0,0-13.2,6.1h0A128,128,0,0,1,261.69,281.77Z"/><path class="cls-1" d="M261.69,281.77a108.69,108.69,0,0,1,14.42-4.66A127.59,127.59,0,0,0,261.69,281.77Z"/><path class="cls-1" d="M379.38,595.36l2.44-2.22a26.09,26.09,0,0,0,3-3.44Q379,592,373.17,594Z"/><path d="M307.06,273.23h0a126.59,126.59,0,0,0-27.62,3.1h0A120.88,120.88,0,0,1,307.06,273.23Z"/><polygon points="307.06 397.02 430.97 397.02 430.97 397.02 430.97 397.02 307.06 397.02"/><path class="cls-2" d="M614.12,268.87c.11-24.74-3.78-46-12.43-68C584.28,156.05,545.45,117,501.52,99.92c-10.09-3.88-12.31-5.21-13.75-8-3.44-6.44-13-20.08-20.52-29.07C438,28,388.38,3,344.89.86L330.47.09a124.88,124.88,0,0,0-14.42.44A181.65,181.65,0,0,0,272.57,9.4c-20.08,7-43.48,20-58,32.17-4.66,4-5.65,4.33-11.75,4.33C176.51,46,148.55,52.78,123,65.42c-18.75,9.21-32.62,19.19-47.7,34.28a176.72,176.72,0,0,0-43.15,69c-8.54,25-11.76,57.68-8,83L26,263.87l-7,13.87a177,177,0,0,0-16.53,48C.24,336.42-.09,341.52,0,360.94c0,19.19.44,24.51,2.55,34.38q16.14,76.05,82.86,118.92c6.44,4.1,23.08,12.31,31.17,15.31,6.66,2.44,7.21,2.88,12.1,11,26.73,44.15,73.65,75.76,125.23,84.64,17.53,3,49.48,2.33,66.23-1.22a191.45,191.45,0,0,0,76.54-36.28c7-5.54,7.76-6,13.42-6,3.33,0,11.2-.55,17.53-1.11,81.08-8.21,147.31-69.88,160.62-149.64,2.77-16.42,3.11-41.93.78-57.57l-1.56-10.21L594,350.62A177.75,177.75,0,0,0,614.12,268.87Zm-40.71,33.27c-2.78,11.43-3.22,12.43-4.55,10.54-.89-1.22-5-7.43-9.32-13.86a184.35,184.35,0,0,0-15.64-20.53,243,243,0,0,1,2.77,36.17v.44h-.77a234.41,234.41,0,0,0-3-37.71c0-.12-.11-.12-.11-.23a236,236,0,0,1,3,37.83,243,243,0,0,1-2,31.28c1.33,3.11,2.44,5.88,3.1,8,.45,1.66-.55,3.44-5.88,9-1.55,7.44-3.43,14.76-5.65,21.86a236.38,236.38,0,0,1-17.75,42.59,192.44,192.44,0,0,0,24.63-15.64c6.21-4.77,11.53-8.65,11.75-8.76s.11,4.32-.33,9.54c-3.77,49.81-34.72,94.95-80,117-10.87,5.21-24.4,10.2-32.06,11.65l-3.88.66,7.1-13.75a175,175,0,0,0,11.31-26.74,237.74,237.74,0,0,1-60,35.17,26.82,26.82,0,0,1-3.44,3.88l-2.77,2.55-7.32-1.55a243.45,243.45,0,0,1-67.67,12.2,176.28,176.28,0,0,0,31.4,15.64c3.77,1.33,6.87,2.66,6.87,2.88,0,1.11-14.86,7.66-24.73,11a132.71,132.71,0,0,1-43.93,7.21c-38.94,0-75.1-14.65-102.28-41.38l-8.09-8,14.86-.66c12.31-.56,20.41-1.44,29.62-3.44a242.21,242.21,0,0,1-59.79-34.39c-4.33-.55-7.43-1.33-8.32-2.11s-2.11-3.66-3.44-7.76A238.09,238.09,0,0,1,103,439.81a162.46,162.46,0,0,0,1.22,28.62c1,7.54,1.55,14,1.33,14.31-1,1-18.63-12.43-26.73-20.3C42.73,427.16,28,373.69,40.62,323.78a72.41,72.41,0,0,1,2.88-9.66c.22-.55,3.33,3.67,6.88,9.21S59.48,337,62.8,341.19c2.11,2.66,4.55,5.55,7.33,8.54a243,243,0,0,1-2.67-35.16c0-4.11,0-8,.22-12a4.25,4.25,0,0,0,.12-1.22c.22-3.77.55-7.43.88-11.21v-.44c.23-2.88.56-5.88,1-8.76a31.7,31.7,0,0,1-2.33-7c-.55-3.22-.33-4.11,5.44-10.1.55-2.33,1.11-4.77,1.66-7.1l.11-.77a232.71,232.71,0,0,1,9.21-28.62c.11-.33.33-.78.44-1.11.45-1.22,1-2.44,1.56-3.66a214.79,214.79,0,0,1,11-23,162.37,162.37,0,0,0-30.62,20.07c-3.22,2.67-6.21,4.66-6.54,4.22-1.11-1.11,1.88-23.85,4.66-34.39,5.21-20,14.19-37.27,28.39-54.35a133.73,133.73,0,0,1,32.06-28.73c14.09-9.1,24-13.65,40.49-18.53,11.2-3.44,11.2-3.77,3.44,11.32a206.56,206.56,0,0,0-11.87,28.62,237.66,237.66,0,0,1,59-34.95,22.06,22.06,0,0,0,1.33-1.77l5.44-6.77,5.1.78c1.45.22,3.66.66,6,1.11a237.29,237.29,0,0,1,41.71-9.43,243.54,243.54,0,0,1,25.63-2,172.23,172.23,0,0,0-29.84-15.31l-11.65-4.77,9.32-4.32a170.51,170.51,0,0,1,36.49-11.87c10.87-2.11,42.71-1.44,53.91,1.11a154.06,154.06,0,0,1,72.44,38.6c3.77,3.66,6.88,7,6.88,7.43s-7.1,1.11-15.75,1.45a182.56,182.56,0,0,0-29.51,3.66,237.92,237.92,0,0,1,60,33.72,12.49,12.49,0,0,0,1.89.22l8.32,1.33,3.1,9.43v.11a240.43,240.43,0,0,1,44,52.36A183.74,183.74,0,0,0,507.85,148c-.34-1.88-.34-3.55,0-3.55s3.33,1.78,6.54,3.89c32.06,21.18,54.25,56.24,61.23,96.28C578.51,260.32,577.4,285.5,573.41,302.14Z"/><path class="cls-3" d="M446.73,159.6c-4.44-4-9.1-7.87-13.87-11.53a203.81,203.81,0,0,0-51.8-28.85,206.63,206.63,0,0,0-73.88-13.53h0c-86.41,0-160.4,52.8-191.8,127.68-.44,1.11-.88,2.11-1.33,3.22a3.91,3.91,0,0,1-.44,1,190.86,190.86,0,0,0-8,24.85l-.11.67c-.44,2.11-1,4.1-1.44,6.21-.22.78-.33,1.55-.56,2.33a2.14,2.14,0,0,1-.22.78c-.55,3-1.11,5.87-1.55,8.87l-.11,1a8.65,8.65,0,0,0-.22,1.77c-.34,2.55-.67,5.11-.89,7.66v.33c-.33,3.22-.56,6.43-.78,9.65a3.11,3.11,0,0,1-.11,1c-.22,3.44-.22,6.88-.22,10.32a197.81,197.81,0,0,0,2.33,30.5c.55,3.77,1.22,7.43,1.89,11.09a208.23,208.23,0,0,0,65,113q5,4.49,10.32,8.65a209.62,209.62,0,0,0,51.91,29.95,205.32,205.32,0,0,0,76.32,14.53V437.37A124,124,0,0,1,183.27,313.46h0a124.66,124.66,0,0,1,12.2-53.69c1.34-2.66,2.67-5.33,4.22-8,1-1.77,2-3.44,3.11-5.1.55-.89,1.1-1.66,1.66-2.44,1.11-1.66,2.22-3.22,3.44-4.88l2.66-3.33a11.85,11.85,0,0,1,1.11-1.33c1.22-1.55,2.55-3,3.88-4.55a4.81,4.81,0,0,0,.67-.77c1.11-1.22,2.22-2.45,3.44-3.55l2.1-2.11a117.41,117.41,0,0,1,9-7.77c.78-.66,1.55-1.22,2.33-1.77,1.55-1.22,3.22-2.33,4.88-3.44.78-.56,1.66-1.11,2.44-1.66,2.66-1.67,5.32-3.33,8.1-4.77a122.21,122.21,0,0,1,27.62-10.76,33.39,33.39,0,0,1,3.33-.78,125.23,125.23,0,0,1,27.62-3.11h0a123.85,123.85,0,0,1,123.79,123.8h83.86a212,212,0,0,0-2.55-32.84,205.31,205.31,0,0,0-27.95-75.54A208.14,208.14,0,0,0,446.73,159.6Z"/><path class="cls-2" d="M307.07,313.46H430.86a123.85,123.85,0,0,0-123.79-123.8h0a126,126,0,0,0-27.62,3.11c-1.11.22-2.22.55-3.33.78a122.59,122.59,0,0,0-14.42,4.65,130.19,130.19,0,0,0-13.2,6.11,93.59,93.59,0,0,0-8.1,4.77c-.89.55-1.66,1.1-2.44,1.66-1.66,1.11-3.22,2.22-4.88,3.44-.78.55-1.55,1.22-2.33,1.77-3.11,2.44-6.1,5.11-9,7.77-.66.66-1.44,1.33-2.1,2.11-1.22,1.22-2.33,2.33-3.44,3.55a4.81,4.81,0,0,0-.67.77c-1.33,1.44-2.66,3-3.88,4.55a11.85,11.85,0,0,1-1.11,1.33l-2.66,3.33c-1.22,1.55-2.33,3.22-3.44,4.88-.56.78-1.11,1.66-1.66,2.44-1.11,1.66-2.11,3.33-3.11,5.1-1.44,2.55-2.88,5.22-4.22,8a122.74,122.74,0,0,0-12.2,53.69A124,124,0,0,0,307.18,437.37V313.46Z"/><path class="cls-4" d="M431,313.46H307.07V521.12c2.44,0,4.77,0,7.21-.11a206.62,206.62,0,0,0,58.79-10.54q6-2,11.65-4.33a204.26,204.26,0,0,0,52.13-30.62,208.48,208.48,0,0,0,53.36-64.22,205.39,205.39,0,0,0,15.42-37.05c1.88-6.21,3.55-12.54,4.88-19,1-4.88,1.77-9.76,2.44-14.75a199.94,199.94,0,0,0,1.77-27.18l-83.75.11Z"/></svg>