<?xml version="1.0" encoding="utf-8"?>
<!-- Generator: Adobe Illustrator 22.1.0, SVG Export Plug-In . SVG Version: 6.00 Build 0)  -->
<svg version="1.1" id="Capa_1" xmlns="http://www.w3.org/2000/svg" xmlns:xlink="http://www.w3.org/1999/xlink" x="0px" y="0px"
	 viewBox="0 0 307.3 263" enable-background="new 0 0 307.3 263" xml:space="preserve">
<g>
	<path fill="#457B9D" d="M285.3,110.1H21.9C9.8,110.1,0,120,0,132l0,0c0,12.1,9.9,21.9,21.9,21.9h263.4c12.1,0,21.9-9.9,21.9-21.9
		l0,0C307.3,120,297.4,110.1,285.3,110.1z"/>
	<path fill="#457B9D" d="M21.9,43.8h263.5c12.1,0,21.9-9.9,21.9-21.9l0,0c0-12.1-9.9-21.9-21.9-21.9H21.9C9.8,0,0,9.9,0,21.9l0,0
		C-0.1,33.9,9.8,43.8,21.9,43.8z"/>
	<path fill="#457B9D" d="M285.3,219.2H21.9C9.8,219.2,0,229.1,0,241.1c0,12,9.9,21.9,21.9,21.9h263.5c12.1,0,21.9-9.9,21.9-21.9
		S297.4,219.2,285.3,219.2z"/>
</g>
</svg>
