<svg xmlns="http://www.w3.org/2000/svg" viewBox="0 0 426.66 431.44"><defs><style>.cls-1{isolation:isolate;}.cls-11,.cls-12,.cls-13,.cls-16,.cls-19,.cls-2,.cls-21,.cls-22,.cls-25,.cls-6,.cls-7,.cls-9{fill:none;}.cls-12,.cls-2{stroke:#f8feff;}.cls-11,.cls-12,.cls-13,.cls-14,.cls-16,.cls-19,.cls-2,.cls-21,.cls-22,.cls-6,.cls-7,.cls-9{stroke-miterlimit:10;}.cls-17,.cls-3{fill:#f8feff;}.cls-4{fill:#2c3255;}.cls-5{fill:#fdfdfd;}.cls-6{stroke:#444242;stroke-dasharray:2 11;}.cls-14,.cls-6{stroke-width:5px;}.cls-7{stroke:#de6a39;}.cls-11,.cls-12,.cls-16,.cls-19,.cls-21,.cls-7{stroke-width:2px;}.cls-8{fill:#de6a39;}.cls-13,.cls-22,.cls-9{stroke:#2c3255;}.cls-9{stroke-width:6px;}.cls-10,.cls-14{fill:#527abf;}.cls-11{stroke:#daa748;}.cls-13{stroke-width:3px;}.cls-14{stroke:#fffffc;}.cls-15{mix-blend-mode:soft-light;}.cls-16{stroke:#fdfdfd;}.cls-17{font-size:16.05px;font-family:Raleway-Heavy, Raleway Heavy;}.cls-18{fill:#fffffc;}.cls-19{stroke:#527abf;}.cls-20{fill:#fff;}.cls-21{stroke:#fff;}.cls-22{stroke-width:4px;}.cls-23{fill:#a9d7d7;}.cls-24{fill:#7dc4ca;}</style></defs><title>img1</title><g class="cls-1"><g id="Capa_1" data-name="Capa 1"><circle class="cls-2" cx="211.66" cy="231.06" r="185.41" transform="translate(-101.39 217.34) rotate(-45)"/><path class="cls-3" d="M54,323.61a3.37,3.37,0,1,1-3.36-3.36A3.37,3.37,0,0,1,54,323.61Z"/><path class="cls-3" d="M161,54.61a3.37,3.37,0,1,1-3.36-3.36A3.37,3.37,0,0,1,161,54.61Z"/><path class="cls-3" d="M54,137.61a3.37,3.37,0,1,1-3.36-3.36A3.37,3.37,0,0,1,54,137.61Z"/><path class="cls-3" d="M29,231.61a3.37,3.37,0,1,1-3.36-3.36A3.37,3.37,0,0,1,29,231.61Z"/><path class="cls-3" d="M324,381.61a3.37,3.37,0,1,1-3.36-3.36A3.37,3.37,0,0,1,324,381.61Z"/><path class="cls-3" d="M395,274.61a3.37,3.37,0,1,1-3.36-3.36A3.37,3.37,0,0,1,395,274.61Z"/><path class="cls-3" d="M348,100.61a3.37,3.37,0,1,1-3.36-3.36A3.37,3.37,0,0,1,348,100.61Z"/><path class="cls-3" d="M395,188.61a3.37,3.37,0,1,1-3.36-3.36A3.37,3.37,0,0,1,395,188.61Z"/><path class="cls-3" d="M104,380.61a3.37,3.37,0,1,1-3.36-3.36A3.37,3.37,0,0,1,104,380.61Z"/><path class="cls-3" d="M259,49.61a3.37,3.37,0,1,1-3.36-3.36A3.37,3.37,0,0,1,259,49.61Z"/><rect class="cls-4" x="366.66" y="201.97" width="60" height="58"/><rect class="cls-5" x="374.66" y="209.97" width="44" height="42"/><path class="cls-6" d="M413,229.16a16.39,16.39,0,1,1-17.66-15A16.39,16.39,0,0,1,413,229.16Z"/><polyline class="cls-7" points="396.66 217.97 396.66 230.48 405.47 239.58"/><circle class="cls-8" cx="396.67" cy="231.08" r="2"/><path class="cls-9" d="M92.63,26.87a.45.45,0,0,0-.48-.4L59.63,29.35a.44.44,0,0,0-.4.47l1.24,14.06,33.4-2.94Z"/><path class="cls-3" d="M140,111.46c.28,3.11-1.53,5.73-4.8,6L34.71,126.36a5.79,5.79,0,0,1-6.46-5L21.92,49.72a5.72,5.72,0,0,1,5.49-6l100.48-8.87a5.14,5.14,0,0,1,5.78,5Z"/><path class="cls-10" d="M139.68,71.89l-3-33.53A6.19,6.19,0,0,0,130,32.73L25,42a6.21,6.21,0,0,0-5.63,6.73l3,33.53Z"/><path class="cls-4" d="M58.33,97.64c0,.42.68,1,.24,1.06l-10.46.92c-.45,0-2-.48-2-.9L40.86,39.08c0-.42,1.41-.45,1.86-.49l10.46-.93c.44,0-.15-.08-.12.34Z"/><path class="cls-11" d="M45.23,94.2a2.32,2.32,0,0,1-1.48-1L43.28,88c0-.22.9-.3,1.37-.35l14.43-1.27c.46,0,.15,0,.17.21l.46,5.23c0,.22.42,1.09-.05,1.13Z"/><line class="cls-11" x1="51.72" y1="87" x2="52.3" y2="93.57"/><path class="cls-4" d="M117.49,92.41c0,.43.27,1.06-.18,1.1l-10.46.92c-.44,0-1.53-.52-1.57-.94L100,33.85c0-.42,1-.41,1.44-.45l10.46-.93c.44,0,.27-.11.3.31Z"/><path class="cls-11" d="M104.38,89a2.33,2.33,0,0,1-1.48-1l-.46-5.24c0-.22.89-.3,1.36-.34l14.43-1.28c.47,0,.16,0,.18.22l.46,5.23c0,.22.41,1.09-.06,1.13Z"/><line class="cls-11" x1="110.87" y1="81.78" x2="111.45" y2="88.35"/><rect class="cls-5" x="274.9" y="61.78" width="11" height="49" transform="translate(-7.19 144.22) rotate(-28.49)"/><rect class="cls-10" x="281.3" y="31.85" width="10" height="74" transform="translate(1.83 144.93) rotate(-28.49)"/><rect class="cls-4" x="293.93" y="34.34" width="11" height="65" transform="translate(4.39 150.96) rotate(-28.5)"/><rect class="cls-10" x="307.03" y="34.71" width="11" height="58" transform="translate(7.47 156.84) rotate(-28.5)"/><rect class="cls-5" x="313.26" y="8.08" width="10" height="80" transform="translate(15.62 157.69) rotate(-28.5)"/><rect class="cls-4" x="326.61" y="13.39" width="11" height="68" transform="translate(17.63 164.21) rotate(-28.5)"/><line class="cls-12" x1="361.71" y1="75.7" x2="279.09" y2="120.55"/><line class="cls-12" x1="361.71" y1="75.7" x2="279.09" y2="120.55"/><line class="cls-12" x1="241.98" y1="41.71" x2="286.83" y2="124.32"/><line class="cls-12" x1="241.98" y1="41.71" x2="286.83" y2="124.32"/><path class="cls-4" d="M22.82,185.61c-7.25,6.89-22.58,34.63-3.29,37,5.16.63,10.75-1.18,15.34-3.4,5.73-2.77,10.29-7.53,16.08-10.13,6-2.71,15.46-1.33,19.34,4.55,2.75,4.18,1.4,9.65-.19,14-3.64,9.91-11.31,17.79-14.95,27.6-.67,1.81,2.23,2.59,2.9.8,3.09-8.33,9.47-15.38,13.2-23.46,3.17-6.86,6.1-16.16.08-22.38-7.76-8-19.17-6.06-27.39-.35-5.77,4-25.28,17.46-30,5.49-3.6-9.15,4.76-21.66,11-27.59,1.4-1.33-.72-3.45-2.12-2.12Z"/><path class="cls-5" d="M39.21,191.45A19.53,19.53,0,0,1,15,205.12l-.14,0c-10.58-3-17.09-14-14.07-24.61l6.63-23.21a20.35,20.35,0,0,1,25-13.72l.13,0a19.74,19.74,0,0,1,13.31,24.66Z"/><line class="cls-13" x1="31.63" y1="143.32" x2="24.21" y2="169.29"/><path class="cls-4" d="M169.54,103.08a1.19,1.19,0,0,1-1.64.41L158.82,98a1.2,1.2,0,0,1-.4-1.64l27.24-45a1.21,1.21,0,0,1,1.65-.4l9.07,5.5a1.18,1.18,0,0,1,.4,1.64Z"/><path class="cls-14" d="M230.79,47.11a29.39,29.39,0,1,1-9.92-40.36A29.39,29.39,0,0,1,230.79,47.11Z"/><g class="cls-15"><line class="cls-16" x1="195.92" y1="26.73" x2="212.63" y2="22.62"/><line class="cls-16" x1="200.39" y1="41.8" x2="217.1" y2="37.69"/><line class="cls-16" x1="191.9" y1="35.42" x2="219.43" y2="29.02"/></g><path class="cls-10" d="M72.36,276.09a35.3,35.3,0,1,1-35.3-35.3A35.29,35.29,0,0,1,72.36,276.09Z"/><path class="cls-4" d="M36.94,274.18h.29l-.06-33.52c-18.87,0-34.24,13.85-35.44,33.51Z"/><text class="cls-17" transform="translate(41.05 298.4)">%</text><path class="cls-3" d="M375.75,103.68c-27.92,0-22.65,29.61-17.67,36.34S364.49,164,364.49,164H387s1.43-17.23,6.42-23.95S403.67,103.68,375.75,103.68Z"/><path class="cls-4" d="M388.66,164.12c0,1.21-.16,2.85-1.49,2.85H364.65c-1.33,0-2-1.64-2-2.85V164a1.83,1.83,0,0,1,2-2h22.52c1.33,0,1.49.81,1.49,2Z"/><path class="cls-4" d="M388.66,167.5c0,1.2-.16,2.47-1.49,2.47H364.65a2.21,2.21,0,0,1-2-2.47v-.14a2.13,2.13,0,0,1,2-2.39h22.52c1.33,0,1.49,1.18,1.49,2.39Z"/><path class="cls-4" d="M388.66,170.88c0,1.2-.16,2.09-1.49,2.09H364.65a1.89,1.89,0,0,1-2-2.09v-.14c0-1.21.66-2.77,2-2.77h22.52c1.33,0,1.49,1.56,1.49,2.77Z"/><path class="cls-4" d="M387.09,171.85c0,5.18-5.08,9.38-11.34,9.38s-11.33-4.2-11.33-9.38,5.07-9.39,11.33-9.39S387.09,166.66,387.09,171.85Z"/><path class="cls-4" d="M371.6,169.53c1.4-10.16,4.37-20.41,3.37-30.75-.32-3.41-1.59-13.24-6.92-13.24-3.1,0-3.43,3.46-2.43,5.69,2.09,4.63,8.08,7.23,12.78,5.37,3.15-1.25,7.74-5.51,6.88-9.38a2.55,2.55,0,0,0-3.95-1.81c-2,1.28-2.23,5-2.49,7.07a102.87,102.87,0,0,0-.41,16.09c.29,10.05,1.05,20.13,2.2,30.12.11.95,1.61,1,1.5,0-1.66-14.44-3.23-29.51-2-44,.1-1.27.31-7.77,2.19-8.13,3.65-.7-.19,5.43-.9,6.19-2.59,2.75-6.38,3.89-9.88,2.21-1.6-.77-4.74-3-4.83-5-.11-2.33,1.27-2.93,3.17-1.84,3.3,1.9,3.67,10.23,3.78,13.33.33,9.35-2.23,18.56-3.5,27.75-.13.94,1.31,1.35,1.45.4Z"/><path class="cls-18" d="M353,152.35a36.29,36.29,0,0,1-3.13-3.07l4.29-3.87a28.89,28.89,0,0,0,2.62,2.57Zm50.22-4.11-4.44-3.71a28.7,28.7,0,0,0,2.17-2.95l4.86,3.13A37.17,37.17,0,0,1,403.23,148.24Zm-61-12.61a36.67,36.67,0,0,1-1-4.27l5.7-.93a31.27,31.27,0,0,0,.82,3.57Zm69-5.64-5.79-.71a29.81,29.81,0,0,0,.18-3.66V125h6v.6A35.42,35.42,0,0,1,411.27,130Zm-63.54-12.63-5.55-1.61a37.58,37.58,0,0,1,1.48-4.13l5.31,2.29A28.37,28.37,0,0,0,347.73,117.36Zm55-4.61a27.77,27.77,0,0,0-1.8-3.19l4.85-3.15a34.92,34.92,0,0,1,2.15,3.82Zm-46-9.41L352.9,99a35.56,35.56,0,0,1,3.47-2.67l3.23,4.79A29.77,29.77,0,0,0,356.7,103.34Zm34.82-2.92a28.69,28.69,0,0,0-3.24-1.72l2.38-5.26a35,35,0,0,1,3.88,2Zm-19.72-4L371,90.67a35.11,35.11,0,0,1,4.36-.36l.12,5.78A27.78,27.78,0,0,0,371.8,96.39Z"/><rect class="cls-4" x="311.32" y="292.98" width="101" height="73" transform="translate(-71.26 557.32) rotate(-70.07)"/><rect class="cls-3" x="319.78" y="298.64" width="85" height="62" transform="translate(-71.11 557.86) rotate(-70.07)"/><rect class="cls-8" x="370.29" y="277.43" width="11" height="27" transform="matrix(0.34, -0.94, 0.94, 0.34, -25.81, 545.05)"/><rect class="cls-5" x="373.95" y="281.37" width="3" height="21" transform="translate(-26.92 545.34) rotate(-70.07)"/><line class="cls-19" x1="348.76" y1="296.55" x2="393.88" y2="312.91"/><line class="cls-19" x1="345.69" y1="305.01" x2="390.81" y2="321.37"/><line class="cls-19" x1="343.3" y1="311.59" x2="388.43" y2="327.95"/><line class="cls-19" x1="340.23" y1="320.05" x2="385.36" y2="336.42"/><line class="cls-19" x1="337.17" y1="328.52" x2="382.29" y2="344.88"/><line class="cls-19" x1="334.44" y1="336.04" x2="379.56" y2="352.4"/><line class="cls-19" x1="331.37" y1="344.5" x2="376.5" y2="360.86"/><line class="cls-19" x1="328.3" y1="352.96" x2="373.43" y2="369.32"/><path class="cls-4" d="M218.86,418.38c0,6-3.48,10.88-10.83,10.82-8.47-.07-12.56-5.23-12.56-11.21S200,407.57,208,407.55C215.38,407.54,218.86,412.4,218.86,418.38Z"/><path class="cls-20" d="M202.93,408.06c-22.72-15.63-52.49-28.45-82.65-32.06-8.18,3.52-11.55,9.37-12.53,15.14,24.77,7.79,61.21,18,88.88,27.24A12.43,12.43,0,0,1,202.93,408.06Z"/><path class="cls-20" d="M211.7,408.06c22.72-15.63,52.49-28.45,82.65-32.06,8.18,3.52,11.55,9.37,12.53,15.14-24.77,7.79-61.21,18-88.88,27.24A12.43,12.43,0,0,0,211.7,408.06Z"/><path class="cls-21" d="M129.92,360.16s59.26,20.77,71.94,48.25"/><path class="cls-21" d="M288.69,367s-61.06,14.64-76.47,40.69"/><path class="cls-21" d="M279.31,353.42S220.23,379.56,209.78,408"/><path class="cls-21" d="M146.16,344.19s52.89,34.29,57.5,63.95"/><path class="cls-21" d="M195,418.91s3-11.53,12.36-11.53"/><path class="cls-21" d="M219.29,418.91s-2-11.52-12.69-11.53"/><path class="cls-22" d="M105,392.5l90.4,27.19c0,7.46,5.68,9.72,12.85,9.75"/><path class="cls-22" d="M309.64,392.5l-90.39,27.19c0,7.1-4.34,9.78-11.93,9.75"/><path class="cls-23" d="M236.6,405.05l6.23,14.15,2.87-3.51,5.43,1.13s-4.27-14.87-6.88-15.08C241.84,401.54,236.6,405.05,236.6,405.05Z"/><path class="cls-10" d="M92.65,323.73a21.36,21.36,0,0,1-3.23,10.7,19.45,19.45,0,0,1,0-21.42A21.38,21.38,0,0,1,92.65,323.73Z"/><path class="cls-24" d="M102.33,333.11a26.19,26.19,0,0,1-13.64-.83,26.17,26.17,0,0,1,11.84-6.81,26.19,26.19,0,0,1,13.64.83A26.17,26.17,0,0,1,102.33,333.11Z"/><path class="cls-4" d="M89.9,333.69c.66-1,10.29-12.48,10.29-12.48l-3.44-2.1-8.32,13.65Z"/><path class="cls-3" d="M96.78,334.79A14.2,14.2,0,0,0,90,332.6a14.26,14.26,0,0,0-4.85-5.3c-7.89-5.05-19.37-1.21-25.64,8.58s-5,21.83,2.91,26.88A14.27,14.27,0,0,0,69.21,365a14.26,14.26,0,0,0,4.85,5.3c7.89,5.05,19.37,1.21,25.64-8.58S104.67,339.84,96.78,334.79Z"/><path class="cls-25" d="M263.81,195.65a10.72,10.72,0,0,0-1.64-1c-.08,0-.08.42,0,.89a45.59,45.59,0,0,1,.69,10A59.64,59.64,0,0,1,271.17,228a49.5,49.5,0,0,1,3.9,5.12c1.08,1.6,2.1,3.15,2.32,3.45.33.48.45.23,1.14-2.62a41.31,41.31,0,0,0,.58-14.31A36.24,36.24,0,0,0,263.81,195.65Z"/><path class="cls-25" d="M205.2,206.69l-.83.2a6.72,6.72,0,0,1,.83-.2Z"/><path class="cls-25" d="M200.74,208.05a32.84,32.84,0,0,0-3.29,1.52h0A32.84,32.84,0,0,1,200.74,208.05Z"/><path class="cls-25" d="M200.74,208.05a26.49,26.49,0,0,1,3.6-1.16A29.62,29.62,0,0,0,200.74,208.05Z"/><path class="cls-25" d="M230.1,286.28l.61-.56a7,7,0,0,0,.75-.86q-1.46.58-2.91,1.08Z"/><path d="M212.06,205.92h0a31.36,31.36,0,0,0-6.89.77h0A30.38,30.38,0,0,1,212.06,205.92Z"/><polygon points="212.06 236.8 242.97 236.8 242.97 236.8 242.97 236.8 212.06 236.8"/><path class="cls-4" d="M288.66,204.83a44.06,44.06,0,0,0-3.1-17,45.69,45.69,0,0,0-25-25.19c-2.52-1-3.07-1.3-3.43-2a56.18,56.18,0,0,0-5.12-7.25c-7.31-8.69-19.68-14.94-30.52-15.47l-3.6-.19a30,30,0,0,0-3.6.11,45.55,45.55,0,0,0-10.84,2.21,51.14,51.14,0,0,0-14.48,8,3.26,3.26,0,0,1-2.93,1.08,45.9,45.9,0,0,0-19.9,4.87,42.15,42.15,0,0,0-11.9,8.55,44.15,44.15,0,0,0-10.76,17.21,47.62,47.62,0,0,0-2,20.7l.44,3L140.2,207a44.48,44.48,0,0,0-4.13,12c-.55,2.66-.63,3.93-.6,8.78s.11,6.11.63,8.57q4,19,20.67,29.67a59.24,59.24,0,0,0,7.78,3.82c1.66.61,1.8.72,3,2.74a46,46,0,0,0,31.24,21.11,56,56,0,0,0,16.52-.3,47.87,47.87,0,0,0,19.09-9.05c1.74-1.39,1.94-1.5,3.35-1.5.83,0,2.79-.14,4.37-.27a45.28,45.28,0,0,0,40.07-37.33,54.48,54.48,0,0,0,.19-14.36l-.38-2.55,1.63-3.13A44.38,44.38,0,0,0,288.66,204.83Zm-10.16,8.3c-.69,2.85-.8,3.1-1.13,2.63-.22-.31-1.25-1.86-2.33-3.46a47.51,47.51,0,0,0-3.9-5.12,60.78,60.78,0,0,1,.69,9v.11h-.19a58.48,58.48,0,0,0-.75-9.41s0,0,0-.05a58.63,58.63,0,0,1,.75,9.43,59.34,59.34,0,0,1-.5,7.81,21.34,21.34,0,0,1,.78,2c.11.42-.14.86-1.47,2.24q-.59,2.79-1.41,5.45a58.54,58.54,0,0,1-4.43,10.63,49.73,49.73,0,0,0,6.15-3.9c1.55-1.19,2.87-2.16,2.93-2.19a13.55,13.55,0,0,1-.08,2.38,35.83,35.83,0,0,1-20,29.2,39.2,39.2,0,0,1-8,2.9l-1,.17,1.77-3.43a43.55,43.55,0,0,0,2.82-6.67,59.38,59.38,0,0,1-15,8.77,6.52,6.52,0,0,1-.86,1l-.69.63-1.82-.38a60.72,60.72,0,0,1-16.88,3,44.27,44.27,0,0,0,7.83,3.9,9.11,9.11,0,0,1,1.71.72c0,.28-3.71,1.91-6.17,2.74a32.93,32.93,0,0,1-11,1.8,36,36,0,0,1-25.51-10.32l-2-2,3.71-.17a41.18,41.18,0,0,0,7.39-.86,60.2,60.2,0,0,1-14.92-8.58,5.45,5.45,0,0,1-2.07-.52,5.69,5.69,0,0,1-.86-1.94,59.12,59.12,0,0,1-11-13.2,40,40,0,0,0,.3,7.14,25.65,25.65,0,0,1,.33,3.57c-.25.25-4.65-3.1-6.67-5.06a36.23,36.23,0,0,1-9.52-34.59,19.23,19.23,0,0,1,.72-2.41,8.79,8.79,0,0,1,1.72,2.3c.88,1.38,2.27,3.4,3.1,4.45.52.66,1.13,1.38,1.82,2.13a61.56,61.56,0,0,1-.66-8.77c0-1,0-2,.06-3a1.51,1.51,0,0,0,0-.3c.06-.94.14-1.86.22-2.8V210c.06-.72.14-1.47.25-2.19a8.1,8.1,0,0,1-.58-1.74c-.14-.8-.08-1,1.36-2.52.14-.58.28-1.19.41-1.77l0-.19a56.58,56.58,0,0,1,2.3-7.14c0-.08.08-.19.11-.28.11-.3.25-.61.39-.91a52.79,52.79,0,0,1,2.74-5.73,40.56,40.56,0,0,0-7.64,5c-.8.66-1.55,1.16-1.63,1.05-.28-.28.47-6,1.16-8.58a34.13,34.13,0,0,1,7.08-13.56,33.32,33.32,0,0,1,8-7.16,34,34,0,0,1,10.1-4.62c2.79-.86,2.79-.95.86,2.82a50.27,50.27,0,0,0-3,7.14,59.22,59.22,0,0,1,14.72-8.72c.11-.14.22-.28.33-.44l1.36-1.69,1.27.19,1.49.28a59.12,59.12,0,0,1,10.41-2.35,61.17,61.17,0,0,1,6.39-.5,43.1,43.1,0,0,0-7.44-3.82l-2.91-1.19,2.32-1.08a43.2,43.2,0,0,1,9.11-3,52.32,52.32,0,0,1,13.45.28,38.45,38.45,0,0,1,18.07,9.63,12.49,12.49,0,0,1,1.71,1.85,19.12,19.12,0,0,1-3.93.36,45.43,45.43,0,0,0-7.36.92,59,59,0,0,1,15,8.41,2.79,2.79,0,0,0,.47,0l2.08.33.77,2.36v0a60.22,60.22,0,0,1,11,13.07,45.72,45.72,0,0,0-.69-10c-.09-.47-.09-.89,0-.89a10.35,10.35,0,0,1,1.63,1,36,36,0,0,1,15.27,24A40.56,40.56,0,0,1,278.5,213.13Z"/><path class="cls-10" d="M246.9,177.57c-1.11-1-2.27-2-3.46-2.88a51.59,51.59,0,0,0-31.35-10.57h0A51.92,51.92,0,0,0,164.24,196l-.33.81a1.06,1.06,0,0,1-.11.25,48.53,48.53,0,0,0-2,6.19l0,.17c-.11.53-.25,1-.36,1.55,0,.19-.08.39-.14.58a.41.41,0,0,1-.05.19c-.14.75-.28,1.47-.39,2.22l0,.25a2.81,2.81,0,0,0-.05.44c-.09.64-.17,1.27-.22,1.91v.08c-.09.8-.14,1.61-.2,2.41a1.06,1.06,0,0,1,0,.25c-.06.86-.06,1.71-.06,2.57a49,49,0,0,0,.58,7.61c.14.94.31,1.86.47,2.77a51.92,51.92,0,0,0,16.22,28.2c.83.74,1.68,1.46,2.57,2.15a52.38,52.38,0,0,0,13,7.48,51.23,51.23,0,0,0,19,3.62V246.86a30.92,30.92,0,0,1-30.27-24.68,30.55,30.55,0,0,1-.64-6.23h0a31.19,31.19,0,0,1,3-13.39c.34-.66.67-1.33,1.06-2,.24-.45.49-.86.77-1.28.14-.22.28-.41.41-.6.28-.42.56-.81.86-1.22l.67-.83a2.61,2.61,0,0,1,.27-.33c.31-.39.64-.75,1-1.14a1.08,1.08,0,0,0,.17-.19,10.3,10.3,0,0,1,.86-.89l.52-.52a29.07,29.07,0,0,1,2.24-1.94,6.84,6.84,0,0,1,.58-.44c.39-.31.81-.58,1.22-.86l.61-.42c.66-.41,1.33-.83,2-1.19a27.28,27.28,0,0,1,3.29-1.52,27,27,0,0,1,3.6-1.16,8.27,8.27,0,0,1,.83-.19,31.15,31.15,0,0,1,6.89-.78h0A30.89,30.89,0,0,1,242.94,216h20.92a53.78,53.78,0,0,0-.63-8.19,52.31,52.31,0,0,0-16.33-30.19Z"/><path class="cls-4" d="M212.06,216h30.88a30.89,30.89,0,0,0-30.88-30.88h0a31.36,31.36,0,0,0-6.89.78c-.28.05-.55.13-.83.19a30.85,30.85,0,0,0-3.6,1.16,32.84,32.84,0,0,0-3.29,1.52c-.69.36-1.38.78-2,1.19-.22.14-.41.28-.61.42-.41.28-.8.55-1.22.86-.19.13-.38.3-.58.44-.77.61-1.52,1.27-2.24,1.94-.16.16-.36.33-.52.52-.31.31-.59.58-.86.89a1.08,1.08,0,0,0-.17.19c-.33.36-.66.75-1,1.14a2.61,2.61,0,0,1-.27.33l-.67.83c-.3.39-.58.8-.86,1.22-.13.19-.27.41-.41.6-.28.42-.53.83-.77,1.28-.36.63-.72,1.3-1.06,2a30.93,30.93,0,0,0,27.87,44.3V216Z"/><path class="cls-3" d="M243,216H212.06v51.8c.61,0,1.19,0,1.8,0a51.64,51.64,0,0,0,14.67-2.63c1-.33,2-.69,2.9-1.08a50.93,50.93,0,0,0,13-7.64,52,52,0,0,0,13.31-16,51.41,51.41,0,0,0,3.84-9.24c.47-1.55.89-3.13,1.22-4.74.25-1.21.44-2.43.61-3.68a50.43,50.43,0,0,0,.44-6.77L243,216Z"/></g></g></svg>