<svg id="Capa_1" data-name="Capa 1" xmlns="http://www.w3.org/2000/svg" viewBox="0 0 623.09 620.3"><defs><style>.cls-1{fill:#f1faee;}</style></defs><title>img4</title><path class="cls-1" d="M244,4.54a310,310,0,0,0-52.67,16.77l309,535.24a309.44,309.44,0,0,0,40.86-37.23Z" transform="translate(-0.04 2.14)"/><path class="cls-1" d="M366.81,615.32A310.14,310.14,0,0,0,431,596.43l-308.89-535a310,310,0,0,0-48.43,46.11Z" transform="translate(-0.04 2.14)"/><path class="cls-1" d="M332.48-2.14,591.21,446c44.12-90,44-199.71-9.85-293.07S432.52,4.67,332.48-2.14Z" transform="translate(-0.04 2.14)"/><path class="cls-1" d="M25.81,184.7C-12,272.09-9.45,375.63,41.82,464.43S181.48,607.22,276.07,618.16Z" transform="translate(-0.04 2.14)"/></svg>