<svg xmlns="http://www.w3.org/2000/svg" viewBox="0 0 586 585" enable-background="new 0 0 586 585"><g><path fill="#6cc" d="M484.6 358.7c0 1.1-.9 2-2 2s-2-.9-2-2 .9-2 2-2 2 .9 2 2zM494 363h-105.9c-5.9 0-10.6 4.8-10.6 10.6 0 5.9 4.8 10.6 10.6 10.6h105.9c5.9 0 10.6-4.8 10.6-10.6s-4.8-10.6-10.6-10.6z"/><g fill="#fff"><path d="M407.4 378.6v-9.1h2.6c3.3 0 4.9 1.5 4.9 4.4 0 1.4-.5 2.5-1.4 3.4s-2.1 1.3-3.7 1.3h-2.4zm1.1-8.1v7.2h1.4c1.2 0 2.2-.3 2.9-1 .7-.6 1-1.5 1-2.7 0-2.3-1.3-3.5-3.8-3.5h-1.5zM417.8 370.4c-.2 0-.4-.1-.5-.2-.1-.1-.2-.3-.2-.5s.1-.4.2-.5c.1-.1.3-.2.5-.2s.4.1.5.2c.1.1.2.3.2.5s-.1.3-.2.5-.3.2-.5.2zm.5 8.2h-1.1v-6.5h1.1v6.5zM426.7 378.6h-1.1v-3.7c0-1.4-.5-2.1-1.5-2.1-.5 0-1 .2-1.3.6-.3.4-.5.9-.5 1.5v3.7h-1.1v-6.5h1.1v1.1c.5-.8 1.2-1.2 2.2-1.2.7 0 1.3.2 1.7.7.4.5.6 1.1.6 2v3.9zM434.1 378.6h-1.1v-1c-.5.8-1.1 1.2-2 1.2-.7 0-1.2-.2-1.6-.5-.4-.3-.6-.8-.6-1.4 0-1.2.7-1.9 2.2-2.1l2-.3c0-1.1-.5-1.7-1.4-1.7-.8 0-1.5.3-2.2.8v-1.1c.7-.4 1.4-.6 2.3-.6 1.6 0 2.3.8 2.3 2.4v4.3zm-1.1-3.3l-1.6.2c-.5.1-.9.2-1.1.4-.3.2-.4.5-.4.9 0 .3.1.6.3.8s.5.3.9.3c.5 0 1-.2 1.3-.5.3-.4.5-.8.5-1.4v-.7zM446.2 378.6h-1.1v-3.7c0-.7-.1-1.2-.3-1.6-.2-.3-.6-.5-1.1-.5-.5 0-.8.2-1.2.6-.3.4-.5.9-.5 1.5v3.7h-1v-3.9c0-1.3-.5-1.9-1.5-1.9-.5 0-.9.2-1.2.6-.3.4-.5.9-.5 1.5v3.7h-1.1v-6.5h1.1v1c.5-.8 1.2-1.2 2.1-1.2.5 0 .9.1 1.2.4.3.2.6.6.7 1 .5-.9 1.2-1.3 2.2-1.3 1.5 0 2.2.9 2.2 2.6v4zM449.4 370.4c-.2 0-.4-.1-.5-.2-.1-.1-.2-.3-.2-.5s.1-.4.2-.5c.1-.1.3-.2.5-.2s.4.1.5.2c.1.1.2.3.2.5s-.1.3-.2.5-.3.2-.5.2zm.6 8.2h-1.1v-6.5h1.1v6.5zM452.4 378.4v-1.1c.6.4 1.2.6 1.9.6.9 0 1.4-.3 1.4-.9 0-.2 0-.3-.1-.4l-.3-.3c-.1-.1-.3-.2-.5-.3-.2-.1-.4-.2-.6-.2-.3-.1-.6-.2-.8-.3-.2-.1-.4-.2-.6-.4-.1-.1-.3-.3-.3-.5-.1-.2-.1-.4-.1-.7 0-.3.1-.6.2-.8.1-.2.3-.4.6-.6.2-.2.5-.3.8-.4.3-.1.6-.1.9-.1.6 0 1.1.1 1.5.3v1.1c-.5-.3-1.1-.5-1.7-.5-.2 0-.4 0-.5.1-.2 0-.3.1-.4.2l-.3.3s-.1.2-.1.4 0 .3.1.4l.3.3c.1.1.3.2.4.2l.6.2c.3.1.6.2.8.3s.4.2.6.4c.2.1.3.3.4.5.1.2.1.4.1.7 0 .3-.1.6-.2.8-.1.2-.3.4-.6.6-.2.2-.5.3-.8.3-.3.1-.6.1-1 .1-.6 0-1.2-.1-1.7-.3zM468.5 378.6h-1.1v-3.7c0-.7-.1-1.2-.3-1.6-.2-.3-.6-.5-1.1-.5-.5 0-.8.2-1.2.6-.3.4-.5.9-.5 1.5v3.7h-1.1v-3.9c0-1.3-.5-1.9-1.5-1.9-.5 0-.9.2-1.2.6-.3.4-.5.9-.5 1.5v3.7h-1.1v-6.5h1.1v1c.5-.8 1.2-1.2 2.1-1.2.5 0 .9.1 1.2.4.3.2.6.6.7 1 .5-.9 1.2-1.3 2.2-1.3 1.5 0 2.2.9 2.2 2.6v4zM474 378.7c-1 0-1.8-.3-2.4-.9-.6-.6-.9-1.4-.9-2.4 0-1.1.3-1.9.9-2.6.6-.6 1.4-.9 2.5-.9 1 0 1.8.3 2.3.9.6.6.8 1.4.8 2.5 0 1-.3 1.9-.9 2.5-.5.6-1.3.9-2.3.9zm.1-5.9c-.7 0-1.2.2-1.6.7s-.6 1.1-.6 1.9c0 .8.2 1.4.6 1.8.4.4.9.7 1.6.7.7 0 1.2-.2 1.6-.7.4-.4.6-1.1.6-1.9 0-.8-.2-1.4-.6-1.9s-1-.6-1.6-.6z"/></g><path fill="#09c" d="M414.5 84h-181.7c-13.9 0-25.1 11.2-25.1 25.1 0 13.9 11.3 25.1 25.1 25.1h181.7c13.9 0 25.1-11.2 25.1-25.1.1-13.9-11.2-25.1-25.1-25.1zM201.1 109.1c0 15.7-12.7 28.4-28.4 28.4s-28.4-12.7-28.4-28.4 12.7-28.4 28.4-28.4 28.4 12.7 28.4 28.4z"/><path fill="#fff" d="M190 105l-2.3-2c-1.5-1.3-3.3-2.3-5.5-3.1l-.3-.1-.1-.3c-.8-2.2-1.9-4-3.1-5.5l-2-2.3 2.7 1.2c4.2 1.8 7.5 5.2 9.3 9.3l1.3 2.8zm-7-6.2c1.1.4 2.2.9 3.2 1.5-1.2-1.9-2.8-3.5-4.7-4.7.6 1 1.1 2 1.5 3.2zM168.6 126.4l-2.7-1.2c-4.2-1.8-7.5-5.2-9.3-9.3l-1.2-2.7 2.3 2c1.4 1.3 3.3 2.3 5.5 3.1l.3.1.1.3c.8 2.2 1.9 4 3.1 5.5l1.9 2.2zm-9.4-8.5c1.2 1.9 2.8 3.5 4.7 4.7-.6-1-1.1-2-1.5-3.2-1.2-.4-2.2-.9-3.2-1.5zM155.4 105l1.2-2.7c1.8-4.2 5.2-7.5 9.3-9.3l2.7-1.2-1.9 2.3c-1.2 1.4-2.3 3.3-3.1 5.5l-.1.3-.3.1c-2.2.8-4 1.9-5.5 3.1l-2.3 1.9zm8.5-9.4c-1.9 1.2-3.5 2.8-4.7 4.7 1-.6 2-1.1 3.2-1.5.4-1.2.9-2.2 1.5-3.2zM176.8 126.4l2-2.3c1.2-1.4 2.3-3.3 3.1-5.5l.1-.3.3-.1c2.1-.8 4-1.9 5.5-3.1l2.3-2-1.2 2.7c-1.8 4.2-5.2 7.5-9.3 9.3l-2.8 1.3zm6.2-7c-.4 1.1-.9 2.2-1.5 3.2 1.9-1.2 3.5-2.8 4.7-4.7-1 .6-2 1.1-3.2 1.5zM183.7 100.5l-1.4-.5c-1.9-.7-3.9-1.2-6.1-1.4l-.5-.1-.1-.5c-.4-2.2-.9-4-1.5-5.3l-.5-1.1 1.2.1c1.7.2 3.3.6 4.8 1.3l.1.1.1.1c1.4 1.6 2.5 3.6 3.4 5.9l.5 1.4zm-6.9-3.3c1.6.2 3.1.5 4.5.9-.7-1.5-1.5-2.9-2.5-4-1-.4-2-.7-3.1-.9.5 1.2.8 2.5 1.1 4zM161.7 100.5l.5-1.4c.9-2.3 2-4.3 3.4-5.9l.1-.1.1-.1c1.4-.6 2.8-1 4.3-1.2l1.3-.2-.5 1.2c-.6 1.3-1.1 3.1-1.5 5.3l-.1.5-.5.1c-2 .3-3.9.7-5.6 1.4l-1.5.4zm4.9-6.3c-.9 1.1-1.8 2.5-2.4 4 1.3-.4 2.6-.7 4-.9.3-1.5.6-2.8 1-3.9-1 .2-1.8.4-2.6.8zM171.4 126.6l-1.3-.2c-1.5-.2-2.9-.6-4.3-1.2l-.1-.1-.1-.1c-1.4-1.6-2.5-3.6-3.4-5.9l-.5-1.4 1.4.5c1.7.6 3.6 1.1 5.6 1.4l.5.1.1.5c.4 2.2.9 4 1.5 5.3l.6 1.1zm-4.8-2.6c.8.3 1.7.6 2.5.8-.4-1.1-.7-2.4-1-3.9-1.4-.2-2.7-.5-4-.9.7 1.6 1.5 2.9 2.5 4zM173.5 126.6l.5-1.1c.6-1.3 1.1-3.1 1.5-5.3l.1-.5.5-.1c2.2-.3 4.2-.7 6.1-1.4l1.4-.5-.5 1.4c-.9 2.3-2 4.3-3.4 5.9l-.1.1-.1.1c-1.5.6-3.1 1.1-4.8 1.3l-1.2.1zm3.3-5.6c-.3 1.5-.7 2.9-1.1 4 1.1-.2 2.1-.5 3.1-.9.9-1.1 1.8-2.5 2.5-4-1.4.4-2.9.7-4.5.9zM172.7 126.6c-.8 0-1.7-.1-2.6-.2l-.4-.1-.2-.3c-.6-1.4-1.2-3.3-1.6-5.6l-.2-.9.9.1c2.4.3 4.9.3 7.4.1l.9-.1-.2.9c-.4 2.3-1 4.2-1.6 5.6l-.2.3h-.4c-.4.2-1.1.2-1.8.2zm-2-1.5c1.2.1 2.3.2 3.5.1.4-1 .9-2.4 1.2-4-1.9.2-3.9.2-5.9 0 .4 1.5.8 2.9 1.2 3.9zM167.8 98.7l.2-.9c.4-2.3 1-4.2 1.6-5.6l.2-.3.4-.1c1.5-.2 3-.3 4.6-.1h.4l.2.3c.6 1.4 1.2 3.3 1.6 5.6l.2.9-.9-.1c-2.5-.3-5-.3-7.4.1l-1.1.2zm2.9-5.6c-.4 1-.8 2.4-1.2 4 1.9-.2 3.9-.2 5.8 0-.3-1.6-.7-3-1.2-4-1.1-.2-2.2-.2-3.4 0zM155.2 107.8l.2-1.3c.2-1.5.6-2.9 1.2-4.3l.1-.1.1-.1c1.6-1.4 3.6-2.5 5.9-3.4l1.4-.5-.5 1.4c-.6 1.7-1.1 3.6-1.4 5.6l-.1.5-.5.1c-2.2.4-4 .9-5.3 1.5l-1.1.6zm2.6-4.8c-.3.8-.6 1.7-.8 2.6 1.1-.4 2.4-.7 3.9-1 .2-1.4.5-2.7.9-4-1.6.6-2.9 1.4-4 2.4zM164.1 120.1l-1.4-.5c-2.3-.9-4.3-2-5.9-3.4l-.1-.1-.1-.1c-.6-1.5-1.1-3.1-1.3-4.8l-.1-1.2 1.1.5c1.3.6 3.1 1.1 5.3 1.5l.5.1.1.5c.2 2.2.7 4.2 1.4 6.1l.5 1.4zm-6.3-4.9c1.1.9 2.5 1.8 4 2.5-.4-1.4-.7-2.9-.9-4.5-1.5-.3-2.9-.7-4-1.1.2 1.1.5 2.1.9 3.1zM181.3 120.1l.5-1.4c.7-1.9 1.2-3.9 1.4-6.1l.1-.5.5-.1c2.2-.4 4-.9 5.3-1.5l1.1-.5-.1 1.2c-.2 1.7-.6 3.3-1.3 4.8l-.1.1-.1.1c-1.6 1.4-3.6 2.5-5.9 3.4l-1.4.5zm3.3-6.9c-.2 1.6-.5 3.1-.9 4.5 1.5-.7 2.9-1.5 4-2.5.4-1 .7-2 .9-3.1-1.2.5-2.5.8-4 1.1zM190.2 107.8l-1.2-.5c-1.3-.6-3.1-1.1-5.3-1.5l-.5-.1-.1-.5c-.3-2-.7-3.9-1.4-5.6l-.5-1.4 1.4.5c2.3.9 4.3 2 5.9 3.4l.1.1.1.1c.6 1.4 1 2.8 1.2 4.3l.3 1.2zm-5.7-3.3c1.5.3 2.8.6 3.9 1-.2-.9-.5-1.7-.8-2.6-1.1-.9-2.5-1.8-4-2.5.4 1.4.7 2.7.9 4.1zM175.4 121.1l.2-.9c.4-2 .6-4.3.8-6.8v-.6h.6c2.5-.1 4.8-.4 6.8-.8l.9-.2-.1.9c-.3 2.3-.8 4.4-1.5 6.4l-.1.3-.3.1c-2 .7-4.1 1.2-6.4 1.5l-.9.1zm2.3-7c-.1 1.9-.3 3.8-.6 5.5 1.7-.3 3.4-.7 4.9-1.2.5-1.5.9-3.2 1.2-4.9-1.7.2-3.6.5-5.5.6zM160.7 105.9l.1-.9c.3-2.1.8-4.1 1.4-5.9l.1-.3.3-.1c1.8-.7 3.8-1.2 5.9-1.4l.9-.1-.2.9c-.3 1.9-.6 4-.8 6.3v.6h-.6c-2.3.1-4.4.4-6.3.8l-.8.1zm2.7-6.1c-.5 1.4-.9 2.8-1.1 4.4 1.5-.2 3.2-.4 4.9-.6.1-1.8.3-3.4.6-4.9-1.5.3-3 .6-4.4 1.1zM184.7 105.9l-.9-.2c-2.1-.4-4.3-.6-6.8-.8h-.6v-.6c-.2-2.3-.4-4.4-.8-6.4l-.2-.9.9.1c2.3.3 4.4.8 6.4 1.5l.3.1.1.3c.7 1.8 1.2 3.8 1.4 5.9l.2 1zm-7-2.3c1.9.1 3.7.3 5.4.6-.3-1.5-.6-3-1.1-4.4-1.5-.5-3.2-.9-4.9-1.2.2 1.6.4 3.3.6 5zM169.5 121.1l-.9-.1c-2.1-.3-4.1-.8-5.9-1.4l-.3-.1-.1-.3c-.7-2-1.2-4.1-1.5-6.4l-.1-.9.9.2c1.9.4 4.1.6 6.4.8h.6v.6c.1 2.5.4 4.8.8 6.8l.1.8zm-6.1-2.7c1.4.5 2.8.9 4.4 1.1-.3-1.7-.5-3.5-.6-5.4-1.8-.1-3.4-.3-5-.6.3 1.7.7 3.3 1.2 4.9zM167.2 105l.1-.8c.2-2.3.4-4.5.8-6.5l.1-.5.5-.1c2.5-.3 5.2-.4 7.7-.1l.5.1.1.5c.4 2 .6 4.2.8 6.5l.1.8h-.8c-2.9-.2-6-.2-9 0l-.9.1zm2.1-6.5c-.3 1.5-.5 3.2-.6 5 2.5-.1 5.1-.1 7.6 0-.1-1.8-.3-3.5-.6-5.1-2.2-.1-4.3-.1-6.4.1zM172.7 121.2c-1.4 0-2.8-.1-4.1-.3l-.5-.1-.1-.5c-.4-2.1-.7-4.4-.8-7v-.8h.8c2.9.2 6 .2 9.1 0h.8v.8c-.1 2.5-.4 4.9-.8 7l-.1.5-.5.1c-1.4.3-2.6.3-3.8.3zm-3.4-1.5c2.1.2 4.3.3 6.4.1.3-1.7.5-3.6.6-5.6-2.6.1-5.2.1-7.7 0 .2 1.9.4 3.8.7 5.5zM162.2 113.5l-.9-.2c-2.3-.4-4.3-1-5.6-1.6l-.3-.2v-.4c-.1-.7-.1-1.4-.1-2 0-.9.1-1.7.2-2.6l.1-.4.3-.2c1.4-.6 3.3-1.2 5.6-1.6l.9-.2-.1.9c-.2 1.3-.3 2.6-.3 3.9 0 1.1.1 2.3.2 3.5v1.1zm-5.6-2.9c1.1.4 2.4.9 4 1.2-.1-.9-.1-1.8-.1-2.7 0-1.1.1-2.1.2-3.2-1.6.3-3 .7-4 1.2-.1.7-.1 1.3-.1 2v1.5zM183.2 113.5l.1-.9c.1-1.2.2-2.3.2-3.5 0-1.3-.1-2.6-.3-3.9l-.1-.9.9.2c2.3.4 4.2 1 5.6 1.6l.3.2.1.4c.1.8.2 1.7.2 2.6 0 .7 0 1.3-.1 2v.4l-.3.2c-1.4.6-3.3 1.2-5.6 1.6h-1zm1.5-7.6c.1 1.1.2 2.1.2 3.2 0 .9 0 1.8-.1 2.7 1.6-.3 3-.7 4-1.2l.1-1.5c0-.7 0-1.3-.1-2-1.1-.4-2.5-.8-4.1-1.2zM168.6 114.1l-.8-.1c-2.4-.2-4.5-.4-6.5-.8l-.5-.1-.1-.5c-.1-1.2-.2-2.4-.2-3.6 0-1.4.1-2.8.3-4.1l.1-.5.5-.1c2-.4 4.1-.6 6.5-.8l.8-.1-.1.8c-.1 1.5-.1 3.1-.1 4.7 0 1.4 0 2.9.1 4.3v.9zm-6.5-2.1c1.6.3 3.3.5 5.1.6-.1-1.2-.1-2.4-.1-3.6 0-1.4 0-2.7.1-4-1.8.1-3.5.3-5 .6-.1 1.1-.2 2.3-.2 3.4-.1 1.1 0 2.1.1 3zM176.3 114.2v-.8c.1-1.4.1-2.9.1-4.3 0-1.6-.1-3.2-.2-4.8l-.1-.8h.8c2.5.1 4.9.4 7 .8l.5.1.1.5c.2 1.4.3 2.7.3 4.1 0 1.2-.1 2.4-.2 3.6l-.1.5-.5.1c-2.1.4-4.5.7-7 .8l-.7.2zm1.5-9.2c.1 1.3.1 2.7.1 4.1 0 1.2 0 2.4-.1 3.6 2-.1 3.9-.4 5.6-.6.1-1 .1-2 .1-3 0-1.1-.1-2.3-.2-3.4-1.7-.3-3.6-.6-5.5-.7zM172.7 114.2c-1.6 0-3.3-.1-4.9-.2h-.6v-.6c-.1-1.4-.1-2.9-.1-4.3 0-1.7 0-3.3.2-4.8v-.6h.6c3-.2 6.2-.2 9.2 0h.6v.6c.1 1.6.2 3.2.2 4.9 0 1.4 0 2.9-.1 4.4v.6h-5.1zm-4.2-1.5c2.5.1 5.2.2 7.8 0 .1-1.2.1-2.5.1-3.7 0-1.4 0-2.8-.1-4.2-2.6-.1-5.2-.1-7.8 0-.1 1.3-.1 2.7-.1 4.1.1 1.4.1 2.6.1 3.8z"/><g fill="#fff"><path d="M287.4 112.7v5.4h-1.7v-14.4h4.1c1.6 0 2.8.4 3.7 1.1.9.8 1.3 1.8 1.3 3.2s-.5 2.5-1.4 3.4c-1 .9-2.3 1.3-3.9 1.3h-2.1zm0-7.4v5.9h1.8c1.2 0 2.1-.3 2.7-.8.6-.5.9-1.3.9-2.3 0-1.9-1.2-2.9-3.5-2.9h-1.9zM303.8 109.5c-.3-.2-.7-.3-1.3-.3-.7 0-1.3.3-1.8 1s-.7 1.6-.7 2.7v5.2h-1.7v-10.3h1.7v2.1c.2-.7.6-1.3 1.1-1.7.5-.4 1-.6 1.7-.6.4 0 .8 0 1 .1v1.8zM311.1 118.4c-1.6 0-2.8-.5-3.7-1.4-.9-1-1.4-2.2-1.4-3.8 0-1.7.5-3.1 1.5-4.1 1-1 2.3-1.5 3.9-1.5s2.8.5 3.7 1.4c.9.9 1.3 2.3 1.3 3.9s-.5 3-1.4 3.9c-1 1.1-2.3 1.6-3.9 1.6zm.1-9.4c-1.1 0-1.9.4-2.6 1.1-.6.7-.9 1.7-.9 3 0 1.2.3 2.2 1 2.9.6.7 1.5 1.1 2.6 1.1s1.9-.3 2.5-1 .9-1.7.9-2.9c0-1.3-.3-2.3-.9-3s-1.5-1.2-2.6-1.2zM327.3 117.7c-.8.5-1.8.7-2.9.7-1.5 0-2.7-.5-3.6-1.4s-1.4-2.2-1.4-3.7c0-1.7.5-3.1 1.5-4.1s2.3-1.5 4-1.5c.9 0 1.7.2 2.4.5v1.7c-.8-.5-1.6-.8-2.5-.8-1.1 0-2 .4-2.6 1.1-.7.8-1 1.7-1 3 0 1.2.3 2.2 1 2.9s1.5 1 2.6 1c.9 0 1.8-.3 2.6-.9v1.5zM339.3 113.4h-7.4c0 1.1.3 2 .9 2.7.6.6 1.4.9 2.5.9 1.2 0 2.3-.4 3.3-1.1v1.5c-.9.7-2.1 1-3.7 1-1.5 0-2.7-.5-3.5-1.4-.9-.9-1.3-2.3-1.3-3.9s.5-2.9 1.4-3.9c.9-1 2.1-1.5 3.5-1.5s2.4.4 3.2 1.3 1.1 2.1 1.1 3.6v.8zm-1.7-1.4c0-1-.2-1.7-.7-2.2s-1.1-.8-1.9-.8c-.8 0-1.5.3-2 .8-.6.6-.9 1.3-1 2.2h5.6zM342.3 117.8v-1.8c.9.7 1.9 1 3 1 1.5 0 2.2-.5 2.2-1.4 0-.3-.1-.5-.2-.7-.1-.2-.3-.4-.5-.5s-.5-.3-.8-.4c-.3-.1-.6-.2-.9-.4-.5-.2-.9-.4-1.2-.5-.4-.2-.6-.4-.9-.6s-.4-.5-.5-.8c-.1-.3-.2-.6-.2-1 0-.5.1-.9.3-1.3.2-.4.5-.7.9-.9s.8-.4 1.3-.6c.5-.1 1-.2 1.5-.2.9 0 1.7.2 2.4.5v1.7c-.8-.5-1.7-.7-2.7-.7-.3 0-.6 0-.9.1s-.5.2-.7.3c-.2.1-.3.3-.4.5-.1.2-.1.4-.1.6 0 .3 0 .5.1.7.1.2.2.3.4.5.2.1.4.3.7.4.3.1.6.2.9.4.5.2.9.4 1.3.5.4.2.7.4.9.6.3.2.5.5.6.8s.2.7.2 1.1c0 .5-.1 1-.3 1.3-.2.4-.5.7-.9.9s-.8.4-1.3.6c-.5.1-1 .2-1.6.2-.9-.3-1.8-.5-2.6-.9zM357.3 118.4c-1.6 0-2.8-.5-3.7-1.4-.9-1-1.4-2.2-1.4-3.8 0-1.7.5-3.1 1.5-4.1 1-1 2.3-1.5 3.9-1.5s2.8.5 3.7 1.4c.9.9 1.3 2.3 1.3 3.9s-.5 3-1.4 3.9c-1 1.1-2.3 1.6-3.9 1.6zm.2-9.4c-1.1 0-1.9.4-2.6 1.1-.6.7-.9 1.7-.9 3 0 1.2.3 2.2 1 2.9.6.7 1.5 1.1 2.6 1.1s1.9-.3 2.5-1 .9-1.7.9-2.9c0-1.3-.3-2.3-.9-3s-1.6-1.2-2.6-1.2z"/></g><path stroke="#D3D3D3" stroke-miterlimit="10" d="M258.3 141.1v14c0 6.6-5.4 12-12 12h-91.3c-6.6 0-12 5.3-12 11.8v11.8M325.7 141.1v14c0 6.6 5.4 12 12 12h91.3c6.6 0 12 5.3 12 11.8v11.8" fill="none"/><path fill="#c6c" d="M344.9 363h-105.8c-5.9 0-10.6 4.8-10.6 10.6 0 5.9 4.8 10.6 10.6 10.6h105.9c5.9 0 10.6-4.8 10.6-10.6-.1-5.8-4.8-10.6-10.7-10.6z"/><g fill="#fff"><path d="M267.9 378.2c-.7.4-1.5.5-2.6.5-1.3 0-2.4-.4-3.2-1.3-.8-.8-1.2-1.9-1.2-3.3 0-1.5.4-2.6 1.3-3.5.9-.9 2-1.3 3.4-1.3.9 0 1.6.1 2.2.4v1.1c-.7-.4-1.4-.5-2.2-.5-1.1 0-1.9.3-2.6 1-.7.7-1 1.6-1 2.8 0 1.1.3 2 .9 2.7s1.4 1 2.4 1c.9 0 1.7-.2 2.4-.6v1zM273.1 378.7c-1 0-1.8-.3-2.4-.9-.6-.6-.9-1.4-.9-2.4 0-1.1.3-1.9.9-2.6.6-.6 1.4-.9 2.5-.9 1 0 1.8.3 2.3.9.6.6.8 1.4.8 2.5 0 1-.3 1.9-.9 2.5-.5.6-1.3.9-2.3.9zm.1-5.9c-.7 0-1.2.2-1.6.7s-.6 1.1-.6 1.9c0 .8.2 1.4.6 1.8.4.4.9.7 1.6.7.7 0 1.2-.2 1.6-.7.4-.4.6-1.1.6-1.9 0-.8-.2-1.4-.6-1.9s-.9-.6-1.6-.6zM284.3 378.6h-1.1v-3.7c0-1.4-.5-2.1-1.5-2.1-.5 0-1 .2-1.3.6-.3.4-.5.9-.5 1.5v3.7h-1.1v-6.5h1.1v1.1c.5-.8 1.2-1.2 2.2-1.2.7 0 1.3.2 1.7.7.4.5.6 1.1.6 2v3.9zM290.2 369.9c-.2-.1-.4-.2-.7-.2-.7 0-1.1.5-1.1 1.4v1h1.6v.9h-1.6v5.6h-1.1v-5.6h-1.1v-.9h1.1v-1.1c0-.7.2-1.2.6-1.6.4-.4.9-.6 1.5-.6.3 0 .6 0 .8.1v1zM292.3 370.4c-.2 0-.4-.1-.5-.2-.1-.1-.2-.3-.2-.5s.1-.4.2-.5c.1-.1.3-.2.5-.2s.4.1.5.2c.1.1.2.3.2.5s-.1.3-.2.5-.3.2-.5.2zm.6 8.2h-1.1v-6.5h1.1v6.5zM300.4 378.6h-1.1v-1c-.5.8-1.1 1.2-2 1.2-.7 0-1.2-.2-1.6-.5-.4-.3-.6-.8-.6-1.4 0-1.2.7-1.9 2.2-2.1l2-.3c0-1.1-.5-1.7-1.4-1.7-.8 0-1.5.3-2.2.8v-1.1c.7-.4 1.4-.6 2.3-.6 1.6 0 2.3.8 2.3 2.4v4.3zm-1-3.3l-1.6.2c-.5.1-.9.2-1.1.4-.3.2-.4.5-.4.9 0 .3.1.6.3.8s.5.3.9.3c.5 0 1-.2 1.3-.5.3-.4.5-.8.5-1.4v-.7zM308.6 378.6h-1.1v-3.7c0-1.4-.5-2.1-1.5-2.1-.5 0-1 .2-1.3.6-.3.4-.5.9-.5 1.5v3.7h-1.1v-6.5h1.1v1.1c.5-.8 1.2-1.2 2.2-1.2.7 0 1.3.2 1.7.7.4.5.6 1.1.6 2v3.9zM315.9 372.4l-3.9 5.3h3.9v.9h-5.5v-.3l3.9-5.3h-3.6v-.9h5.1v.3zM322.7 378.6h-1.1v-1c-.5.8-1.1 1.2-2 1.2-.7 0-1.2-.2-1.6-.5-.4-.3-.6-.8-.6-1.4 0-1.2.7-1.9 2.2-2.1l2-.3c0-1.1-.5-1.7-1.4-1.7-.8 0-1.5.3-2.2.8v-1.1c.7-.4 1.4-.6 2.3-.6 1.6 0 2.3.8 2.3 2.4v4.3zm-1-3.3l-1.6.2c-.5.1-.9.2-1.1.4-.3.2-.4.5-.4.9 0 .3.1.6.3.8s.5.3.9.3c.5 0 1-.2 1.3-.5.3-.4.5-.8.5-1.4v-.7z"/></g><path fill="#c6c" d="M321.5 224.8c0 16.3-13.2 29.5-29.5 29.5s-29.5-13.2-29.5-29.5 13.2-29.5 29.5-29.5 29.5 13.2 29.5 29.5z"/><g fill="#fff"><path d="M297.1 222.8l13.7 4.9c.6-1.5.9-3.2.9-4.9 0-4.6-2.1-8.7-5.5-11.4l-9.1 11.4zM290.7 224.8l11.5-14.4c-3.1-2.5-7.1-4-11.5-4-10.2 0-18.4 8.2-18.4 18.4s8.2 18.4 18.4 18.4c8 0 14.8-5.1 17.3-12.2l-17.3-6.2z"/></g><g opacity=".6"><path fill="#c6c" d="M248.6 273.3l-.9-2.3h-3.5l-.9 2.3h-.8l3.1-7.9h.8l3 7.9h-.8zm-2.5-6.5l-.1-.2-.1-.3c0 .1 0 .2-.1.3 0 .1-.1.2-.1.2l-1.3 3.5h2.9l-1.2-3.5zM251.3 273.3v-7.9h2.1c1.4 0 2.4.3 3.1 1 .7.6 1.1 1.6 1.1 2.9 0 .6-.1 1.2-.3 1.7s-.5.9-.8 1.3c-.4.4-.8.6-1.3.8-.5.2-1.1.3-1.8.3h-2.1zm.7-7.2v6.5h1.2c.6 0 1-.1 1.5-.2s.8-.4 1.1-.6c.3-.3.5-.6.7-1 .2-.4.2-.9.2-1.4 0-2.1-1.1-3.2-3.4-3.2h-1.3zM266.9 273.3v-5.4c0-.3 0-.7.1-1.3-.1.2-.1.3-.1.4l-.1.3-2.8 6h-.3l-2.8-6c-.1-.2-.2-.4-.3-.8v6.8h-.7v-7.9h.9l2.7 5.9.2.4c.1.1.1.3.1.4.1-.1.1-.3.1-.4 0-.1.1-.3.2-.4l2.8-5.9h.8v7.9h-.8zM271 273.3h-.7v-7.9h.7v7.9zM279.2 273.3l-4.5-6.3c-.1-.1-.1-.2-.2-.2-.1-.1-.1-.2-.1-.2v6.8h-.7v-7.9h.8l4.4 6.2.2.3c.1.1.1.2.1.2v-6.7h.8v7.9h-.8zM283.4 273.3h-.7v-7.9h.7v7.9zM285.7 272.1l.4.3.5.2c.2.1.3.1.5.1h.5c.6 0 1.1-.1 1.4-.3s.5-.6.5-1c0-.2 0-.4-.1-.5s-.2-.3-.3-.4c-.1-.1-.3-.3-.6-.4-.2-.1-.5-.3-.8-.5-.3-.2-.6-.4-.9-.5l-.6-.5s-.3-.4-.3-.6c-.1-.2-.1-.4-.1-.7 0-.3.1-.6.2-.9.1-.3.3-.5.6-.6.2-.2.5-.3.8-.4.3-.1.7-.1 1-.1.6 0 1.2.1 1.6.3v.8c-.5-.3-1-.4-1.7-.4-.2 0-.5 0-.7.1s-.4.1-.6.2c-.2.1-.3.2-.4.4-.1.2-.1.4-.1.6 0 .2 0 .4.1.5l.3.4s.3.3.5.4.5.3.8.4l.9.5c.3.2.5.3.6.5.2.2.3.4.4.6s.1.4.1.7c0 .3-.1.6-.2.9s-.3.5-.5.6c-.2.2-.5.3-.8.4s-.7.1-1.1.1h-.5c-.2 0-.4 0-.5-.1s-.4-.1-.5-.1c-.2-.1-.3-.1-.4-.2v-.8zM294.8 266.1v7.2h-.7v-7.2h-2.3v-.7h5.4v.7h-2.4zM303.4 273.3l-1.2-2.3-.3-.6c-.1-.2-.2-.3-.3-.4-.1-.1-.2-.2-.4-.2-.1 0-.3-.1-.5-.1h-.9v3.4h-.8v-7.9h2.3c.3 0 .6 0 .9.1s.5.2.8.4.4.4.5.6c.1.3.2.6.2.9 0 .3 0 .5-.1.8-.1.2-.2.4-.4.6s-.4.3-.6.5c-.2.1-.5.2-.8.3.1 0 .2.1.3.2l.3.3.3.3.3.4 1.4 2.4h-1zm-3.6-7.2v3.1h1.3c.3 0 .5 0 .7-.1l.6-.3s.3-.3.4-.5.1-.4.1-.7c0-.5-.2-.8-.5-1.1-.3-.3-.7-.4-1.3-.4h-1.3zM311.4 273.3l-.9-2.3h-3.5l-.9 2.3h-.8l3.1-7.9h.8l3 7.9h-.8zm-2.4-6.5l-.1-.2-.1-.3c0 .1 0 .2-.1.3 0 .1-.1.2-.1.2l-1.3 3.5h2.9l-1.2-3.5zM319.4 273c-.6.3-1.3.4-2.1.4-.6 0-1.1-.1-1.5-.3s-.9-.5-1.2-.8c-.3-.3-.6-.8-.8-1.2-.2-.5-.3-1-.3-1.6 0-.6.1-1.2.3-1.7s.5-1 .8-1.3.8-.7 1.3-.9 1.1-.3 1.7-.3c.7 0 1.3.1 1.8.3v.8c-.6-.3-1.2-.4-1.8-.4-.5 0-1 .1-1.4.3-.4.2-.7.4-1 .7-.3.3-.5.7-.6 1.1-.1.4-.2.9-.2 1.4 0 .5.1.9.2 1.3s.3.8.6 1c.3.3.6.5 1 .7.4.2.8.3 1.3.3.8 0 1.5-.2 2-.5v.7zM322.4 273.3h-.7v-7.9h.7v7.9zM328.3 273.4c-.6 0-1.1-.1-1.6-.3-.5-.2-.9-.5-1.2-.8s-.6-.8-.7-1.3-.3-1-.3-1.6c0-.6.1-1.2.3-1.7s.4-.9.8-1.3c.3-.4.7-.6 1.2-.8s1-.3 1.6-.3c.6 0 1.1.1 1.5.3s.8.5 1.2.8c.3.4.6.8.7 1.3s.3 1 .3 1.6c0 .6-.1 1.1-.2 1.7-.2.5-.4 1-.7 1.3s-.7.7-1.2.9c-.5.1-1 .2-1.7.2zm.1-7.5c-.5 0-.9.1-1.3.3-.4.2-.7.4-1 .7-.3.3-.5.7-.6 1.1s-.2.9-.2 1.3.1.9.2 1.3.3.8.5 1.1.6.6.9.7.8.3 1.3.3.9-.1 1.3-.3c.4-.2.7-.4 1-.7.3-.3.4-.7.6-1.1s.2-.9.2-1.4c0-.5-.1-.9-.2-1.3s-.3-.8-.5-1.1-.5-.6-.9-.7c-.3-.1-.8-.2-1.3-.2zm-.2-1.2h-.6l1.3-1.8h.8l-1.5 1.8zM339.8 273.3l-4.5-6.3c-.1-.1-.1-.2-.2-.2-.1-.1-.1-.2-.1-.2v6.8h-.7v-7.9h.8l4.4 6.2.2.3c.1.1.1.2.1.2v-6.7h.8v7.9h-.8z"/><path fill="#5D5D5D" d="M242.6 278.3h-1.8v-.4h1.8v.4zM249.8 279.6c-.5.3-1 .4-1.6.4-.7 0-1.2-.2-1.7-.6s-.6-1-.6-1.7.2-1.3.7-1.8c.5-.5 1.1-.7 1.8-.7.5 0 1 .1 1.3.2v.6c-.4-.2-.8-.4-1.4-.4-.5 0-1 .2-1.3.5s-.5.8-.5 1.4c0 .6.2 1.1.5 1.4s.7.5 1.3.5c.4 0 .7-.1 1-.2v-1.2h-1v-.5h1.6v2.1zM253.9 278.4h-2.4c0 .4.1.7.3.9.2.2.5.3.8.3.4 0 .7-.1 1.1-.4v.5c-.3.2-.7.3-1.2.3s-.9-.2-1.1-.5-.4-.7-.4-1.3c0-.5.2-.9.5-1.3.3-.3.7-.5 1.1-.5s.8.1 1 .4.4.7.4 1.2v.4zm-.6-.5c0-.3-.1-.5-.2-.7-.2-.2-.4-.3-.6-.3-.3 0-.5.1-.7.3-.2.2-.3.4-.3.7h1.8zM254.9 279.8v-.6c.3.2.6.3 1 .3.5 0 .7-.2.7-.5 0-.1 0-.2-.1-.2l-.2-.2c-.1 0-.2-.1-.2-.1l-.3-.1c-.2-.1-.3-.1-.4-.2l-.3-.2-.2-.3s-.1-.2-.1-.3c0-.2 0-.3.1-.4l.3-.3.4-.2.5-.1c.3 0 .6.1.8.2v.5c-.3-.2-.5-.2-.9-.2h-.3c-.1 0-.2.1-.2.1l-.1.1v.4s.1.1.1.2l.2.1s.2.1.3.1c.2.1.3.1.4.2l.3.2.2.3.1.3c0 .2 0 .3-.1.4l-.3.3-.4.2s-.3.1-.5.1c-.3.1-.6 0-.8-.1zM259.9 279.9c-.1.1-.3.1-.5.1-.6 0-.9-.3-.9-1v-2h-.6v-.5h.6v-.8l.5-.2v1h.9v.5h-.9v1.9c0 .2 0 .4.1.5.1.1.2.1.4.1.1 0 .3 0 .4-.1v.5zM261.2 275.7c-.1 0-.2 0-.3-.1-.1-.1-.1-.1-.1-.2s0-.2.1-.2c.1-.1.2-.1.3-.1.1 0 .2 0 .3.1.1.1.1.1.1.2s0 .2-.1.2c-.1.1-.2.1-.3.1zm.3 4.2h-.5v-3.3h.5v3.3zM264.4 280c-.5 0-.9-.2-1.2-.5-.3-.3-.5-.7-.5-1.2 0-.6.2-1 .5-1.3.3-.3.7-.5 1.3-.5.5 0 .9.2 1.2.5.3.3.4.7.4 1.3 0 .5-.2 1-.5 1.3s-.7.4-1.2.4zm0-3c-.4 0-.6.1-.8.3s-.3.6-.3 1 .1.7.3.9c.2.2.5.3.8.3.4 0 .6-.1.8-.3s.3-.5.3-1c0-.4-.1-.7-.3-1-.2-.1-.4-.2-.8-.2zm.8-2.1l-.9 1.1h-.4l.7-1.1h.6zM270.1 279.9h-.5v-1.9c0-.7-.3-1.1-.8-1.1-.3 0-.5.1-.7.3s-.3.5-.3.8v1.9h-.5v-3.3h.5v.6c.3-.4.6-.6 1.1-.6.4 0 .7.1.9.4s.3.6.3 1v1.9zM276.6 279.9h-.5v-.6c-.3.4-.6.6-1.2.6-.4 0-.8-.1-1-.4-.3-.3-.4-.7-.4-1.2 0-.6.1-1 .4-1.3.3-.3.7-.5 1.1-.5.5 0 .8.2 1 .5v-2h.5v4.9zm-.5-1.5v-.5c0-.3-.1-.5-.3-.7-.2-.2-.4-.3-.7-.3-.3 0-.6.1-.8.4-.2.2-.3.6-.3 1s.1.7.3.9c.2.2.4.3.7.3.3 0 .6-.1.7-.3.3-.2.4-.5.4-.8zM280.8 278.4h-2.4c0 .4.1.7.3.9.2.2.5.3.8.3.4 0 .7-.1 1.1-.4v.5c-.3.2-.7.3-1.2.3s-.9-.2-1.1-.5-.4-.7-.4-1.3c0-.5.2-.9.5-1.3.3-.3.7-.5 1.1-.5s.8.1 1 .4.4.7.4 1.2v.4zm-.6-.5c0-.3-.1-.5-.2-.7-.2-.2-.4-.3-.6-.3-.3 0-.5.1-.7.3-.2.2-.3.4-.3.7h1.8zM284.7 279.4v2h-.5v-4.9h.5v.6c.3-.4.7-.7 1.2-.7.4 0 .8.1 1 .4.2.3.4.7.4 1.2 0 .6-.1 1-.4 1.3-.3.3-.7.5-1.1.5-.5.2-.8 0-1.1-.4zm0-1.3v.5c0 .3.1.5.3.7.2.2.4.3.7.3.3 0 .6-.1.8-.4.2-.2.3-.6.3-1s-.1-.7-.3-.9c-.2-.2-.4-.3-.7-.3-.3 0-.6.1-.8.3-.2.2-.3.5-.3.8zM291.3 278.4h-2.4c0 .4.1.7.3.9.2.2.5.3.8.3.4 0 .7-.1 1.1-.4v.5c-.3.2-.7.3-1.2.3s-.9-.2-1.1-.5-.4-.7-.4-1.3c0-.5.2-.9.5-1.3.3-.3.7-.5 1.1-.5s.8.1 1 .4.4.7.4 1.2v.4zm-.6-.5c0-.3-.1-.5-.2-.7-.2-.2-.4-.3-.6-.3-.3 0-.5.1-.7.3-.2.2-.3.4-.3.7h1.8zM294.2 277.1c-.1-.1-.2-.1-.4-.1s-.4.1-.6.3-.2.5-.2.9v1.7h-.5v-3.3h.5v.7c.1-.2.2-.4.4-.5.2-.1.3-.2.5-.2h.3v.5zM296.8 275.5c-.1-.1-.2-.1-.4-.1-.4 0-.6.2-.6.7v.5h.8v.5h-.8v2.9h-.5v-3h-.6v-.5h.6v-.5c0-.3.1-.6.3-.8.2-.2.5-.3.8-.3.2 0 .3 0 .4.1v.5zM297.9 275.7c-.1 0-.2 0-.3-.1-.1-.1-.1-.1-.1-.2s0-.2.1-.2c.1-.1.2-.1.3-.1.1 0 .2 0 .3.1.1.1.1.1.1.2s0 .2-.1.2c-.1.1-.2.1-.3.1zm.3 4.2h-.5v-3.3h.5v3.3zM300.2 279.9h-.5v-4.9h.5v4.9zM304.3 278.4h-2.4c0 .4.1.7.3.9.2.2.5.3.8.3.4 0 .7-.1 1.1-.4v.5c-.3.2-.7.3-1.2.3s-.9-.2-1.1-.5-.4-.7-.4-1.3c0-.5.2-.9.5-1.3.3-.3.7-.5 1.1-.5s.8.1 1 .4.4.7.4 1.2v.4zm-.5-.5c0-.3-.1-.5-.2-.7-.2-.2-.4-.3-.6-.3-.3 0-.5.1-.7.3-.2.2-.3.4-.3.7h1.8zM305.3 279.8v-.6c.3.2.6.3 1 .3.5 0 .7-.2.7-.5 0-.1 0-.2-.1-.2l-.2-.2c-.1 0-.2-.1-.2-.1l-.3-.1c-.2-.1-.3-.1-.4-.2l-.3-.2-.2-.3s-.1-.2-.1-.3c0-.2 0-.3.1-.4l.3-.3.4-.2.5-.1c.3 0 .6.1.8.2v.5c-.3-.2-.5-.2-.9-.2h-.3c-.1 0-.2.1-.2.1l-.1.1v.4s.1.1.1.2l.2.1s.2.1.3.1c.2.1.3.1.4.2l.3.2.2.3.1.3c0 .2 0 .3-.1.4l-.3.3-.4.2s-.3.1-.5.1c-.2.1-.5 0-.8-.1zM313.9 279.9h-.5v-.6c-.3.4-.6.6-1.2.6-.4 0-.8-.1-1-.4-.3-.3-.4-.7-.4-1.2 0-.6.1-1 .4-1.3.3-.3.7-.5 1.1-.5.5 0 .8.2 1 .5v-2h.5v4.9zm-.6-1.5v-.5c0-.3-.1-.5-.3-.7-.2-.2-.4-.3-.7-.3-.3 0-.6.1-.8.4-.2.2-.3.6-.3 1s.1.7.3.9c.2.2.4.3.7.3.3 0 .6-.1.7-.3.3-.2.4-.5.4-.8zM315.6 275.7c-.1 0-.2 0-.3-.1-.1-.1-.1-.1-.1-.2s0-.2.1-.2c.1-.1.2-.1.3-.1.1 0 .2 0 .3.1.1.1.1.1.1.2s0 .2-.1.2c-.1.1-.2.1-.3.1zm.3 4.2h-.5v-3.3h.5v3.3zM320.1 279.9h-.5v-1.9c0-.7-.3-1.1-.8-1.1-.3 0-.5.1-.7.3s-.3.5-.3.8v1.9h-.5v-3.3h.5v.6c.3-.4.6-.6 1.1-.6.4 0 .7.1.9.4s.3.6.3 1v1.9zM324 279.9h-.5v-.5c-.2.4-.6.6-1 .6-.3 0-.6-.1-.8-.3s-.3-.4-.3-.7c0-.6.4-1 1.1-1.1l1-.1c0-.6-.2-.8-.7-.8-.4 0-.8.1-1.1.4v-.5c.3-.2.7-.3 1.2-.3.8 0 1.2.4 1.2 1.2v2.1zm-.6-1.7l-.8.1c-.3 0-.4.1-.6.2-.1.1-.2.2-.2.5 0 .2.1.3.2.4.1.1.3.2.5.2.3 0 .5-.1.7-.3s.3-.4.3-.7v-.4zm.1-3.3l-.9 1.1h-.4l.7-1.1h.6zM330.2 279.9h-.5v-1.9c0-.4-.1-.6-.2-.8-.1-.2-.3-.2-.6-.2-.2 0-.4.1-.6.3-.2.2-.2.5-.2.7v1.9h-.5v-2c0-.7-.3-1-.8-1-.2 0-.4.1-.6.3-.2.2-.2.5-.2.8v1.9h-.5v-3.3h.5v.5c.2-.4.6-.6 1.1-.6.2 0 .4.1.6.2.2.1.3.3.4.5.3-.5.6-.7 1.1-.7.8 0 1.1.5 1.1 1.4v2zM331.8 275.7c-.1 0-.2 0-.3-.1-.1-.1-.1-.1-.1-.2s0-.2.1-.2c.1-.1.2-.1.3-.1.1 0 .2 0 .3.1.1.1.1.1.1.2s0 .2-.1.2c-.1.1-.2.1-.3.1zm.3 4.2h-.5v-3.3h.5v3.3zM335.9 279.8c-.3.2-.6.2-.9.2-.5 0-.9-.2-1.2-.5s-.4-.7-.4-1.2.2-1 .5-1.3c.3-.3.8-.5 1.3-.5.3 0 .6.1.8.2v.5c-.3-.2-.5-.3-.8-.3-.3 0-.6.1-.9.4-.2.2-.3.6-.3 1s.1.7.3.9.5.3.8.3c.3 0 .6-.1.8-.3v.6zM338.5 280c-.5 0-.9-.2-1.2-.5-.3-.3-.5-.7-.5-1.2 0-.6.2-1 .5-1.3.3-.3.7-.5 1.3-.5.5 0 .9.2 1.2.5.3.3.4.7.4 1.3 0 .5-.2 1-.5 1.3s-.7.4-1.2.4zm0-3c-.4 0-.6.1-.8.3s-.3.6-.3 1 .1.7.3.9c.2.2.5.3.8.3.4 0 .6-.1.8-.3s.3-.5.3-1c0-.4-.1-.7-.3-1-.2-.1-.5-.2-.8-.2zM341.2 279.8v-.6c.3.2.6.3 1 .3.5 0 .7-.2.7-.5 0-.1 0-.2-.1-.2l-.2-.2c-.1 0-.2-.1-.2-.1l-.3-.1c-.2-.1-.3-.1-.4-.2l-.3-.2-.2-.3s-.1-.2-.1-.3c0-.2 0-.3.1-.4l.3-.3.4-.2.5-.1c.3 0 .6.1.8.2v.5c-.3-.2-.5-.2-.9-.2h-.3c-.1 0-.2.1-.2.1l-.1.1v.4s.1.1.1.2l.2.1s.2.1.3.1c.2.1.3.1.4.2l.3.2.2.3.1.3c0 .2 0 .3-.1.4l-.3.3-.4.2s-.3.1-.5.1c-.3.1-.6 0-.8-.1zM245.5 284.9h-1.8v-.4h1.8v.4zM252.7 286.3c-.5.3-1 .4-1.6.4-.7 0-1.2-.2-1.7-.6s-.6-1-.6-1.7.2-1.3.7-1.8c.5-.5 1.1-.7 1.8-.7.5 0 1 .1 1.3.2v.6c-.4-.2-.8-.4-1.4-.4-.5 0-1 .2-1.3.5s-.5.8-.5 1.4c0 .6.2 1.1.5 1.4s.7.5 1.3.5c.4 0 .7-.1 1-.2v-1.3h-1v-.5h1.6v2.2zM256.8 285.1h-2.4c0 .4.1.7.3.9.2.2.5.3.8.3.4 0 .7-.1 1.1-.4v.5c-.3.2-.7.3-1.2.3s-.9-.2-1.1-.5-.4-.7-.4-1.3c0-.5.2-.9.5-1.3.3-.3.7-.5 1.1-.5s.8.1 1 .4.4.7.4 1.2v.4zm-.5-.5c0-.3-.1-.5-.2-.7-.2-.2-.4-.3-.6-.3-.3 0-.5.1-.7.3-.2.2-.3.4-.3.7h1.8zM257.8 286.5v-.6c.3.2.6.3 1 .3.5 0 .7-.2.7-.5 0-.1 0-.2-.1-.2l-.2-.2c-.1 0-.2-.1-.2-.1l-.3-.1c-.2-.1-.3-.1-.4-.2l-.3-.2-.2-.3s-.1-.2-.1-.3c0-.2 0-.3.1-.4l.3-.3.4-.2.5-.1c.3 0 .6.1.8.2v.5c-.3-.2-.5-.2-.9-.2h-.3c-.1 0-.2.1-.2.1l-.1.1v.4s.1.1.1.2l.2.1s.2.1.3.1c.2.1.3.1.4.2l.3.2.2.3.1.3c0 .2 0 .3-.1.4l-.3.3-.4.2s-.3.1-.5.1c-.2.1-.6 0-.8-.1zM262.8 286.6c-.1.1-.3.1-.5.1-.6 0-.9-.3-.9-1v-2h-.6v-.5h.6v-.8l.5-.2v1h.9v.5h-.8v1.9c0 .2 0 .4.1.5.1.1.2.1.4.1.1 0 .3 0 .4-.1v.5zM264.2 282.4c-.1 0-.2 0-.3-.1-.1-.1-.1-.1-.1-.2s0-.2.1-.2c.1-.1.2-.1.3-.1.1 0 .2 0 .3.1.1.1.1.1.1.2s0 .2-.1.2c-.2.1-.2.1-.3.1zm.2 4.2h-.5v-3.3h.5v3.3zM267.3 286.7c-.5 0-.9-.2-1.2-.5-.3-.3-.5-.7-.5-1.2 0-.6.2-1 .5-1.3.3-.3.7-.5 1.3-.5.5 0 .9.2 1.2.5.3.3.4.7.4 1.3 0 .5-.2 1-.5 1.3s-.7.4-1.2.4zm0-3.1c-.4 0-.6.1-.8.3s-.3.6-.3 1 .1.7.3.9c.2.2.5.3.8.3.4 0 .6-.1.8-.3s.3-.5.3-1c0-.4-.1-.7-.3-1-.1-.1-.4-.2-.8-.2zm.8-2l-.9 1.1h-.4l.7-1.1h.6zM273 286.6h-.5v-1.9c0-.7-.3-1.1-.8-1.1-.3 0-.5.1-.7.3s-.3.5-.3.8v1.9h-.5v-3.3h.5v.6c.3-.4.6-.6 1.1-.6.4 0 .7.1.9.4s.3.6.3 1v1.9zM279.5 286.6h-.5v-.6c-.3.4-.6.6-1.2.6-.4 0-.8-.1-1-.4-.3-.3-.4-.7-.4-1.2 0-.6.1-1 .4-1.3.3-.3.7-.5 1.1-.5.5 0 .8.2 1 .5v-2.1h.5v5zm-.5-1.5v-.5c0-.3-.1-.5-.3-.7-.2-.2-.4-.3-.7-.3-.3 0-.6.1-.8.4-.2.2-.3.6-.3 1s.1.7.3.9c.2.2.4.3.7.3.3 0 .6-.1.7-.3.3-.2.4-.5.4-.8zM283.7 285.1h-2.4c0 .4.1.7.3.9.2.2.5.3.8.3.4 0 .7-.1 1.1-.4v.5c-.3.2-.7.3-1.2.3s-.9-.2-1.1-.5-.4-.7-.4-1.3c0-.5.2-.9.5-1.3.3-.3.7-.5 1.1-.5s.8.1 1 .4.4.7.4 1.2v.4zm-.5-.5c0-.3-.1-.5-.2-.7-.2-.2-.4-.3-.6-.3-.3 0-.5.1-.7.3-.2.2-.3.4-.3.7h1.8zM290 286.6h-.5v-.6c-.3.4-.6.6-1.2.6-.4 0-.8-.1-1-.4-.3-.3-.4-.7-.4-1.2 0-.6.1-1 .4-1.3.3-.3.7-.5 1.1-.5.5 0 .8.2 1 .5v-2.1h.5v5zm-.5-1.5v-.5c0-.3-.1-.5-.3-.7-.2-.2-.4-.3-.7-.3-.3 0-.6.1-.8.4-.2.2-.3.6-.3 1s.1.7.3.9c.2.2.4.3.7.3.3 0 .6-.1.7-.3.3-.2.4-.5.4-.8zM292.9 286.7c-.5 0-.9-.2-1.2-.5-.3-.3-.5-.7-.5-1.2 0-.6.2-1 .5-1.3.3-.3.7-.5 1.3-.5.5 0 .9.2 1.2.5.3.3.4.7.4 1.3 0 .5-.2 1-.5 1.3s-.7.4-1.2.4zm0-3.1c-.4 0-.6.1-.8.3s-.3.6-.3 1 .1.7.3.9c.2.2.5.3.8.3.4 0 .6-.1.8-.3s.3-.5.3-1c0-.4-.1-.7-.3-1-.1-.1-.4-.2-.8-.2zM298.1 286.4c-.3.2-.6.2-.9.2-.5 0-.9-.2-1.2-.5s-.4-.7-.4-1.2.2-1 .5-1.3c.3-.3.8-.5 1.3-.5.3 0 .6.1.8.2v.5c-.3-.2-.5-.3-.8-.3-.3 0-.6.1-.9.4-.2.2-.3.6-.3 1s.1.7.3.9.5.3.8.3c.3 0 .6-.1.8-.3v.6zM302.1 286.6h-.5v-.5c-.2.4-.6.6-1.1.6-.8 0-1.2-.5-1.2-1.4v-2h.5v1.9c0 .7.3 1.1.8 1.1.3 0 .5-.1.7-.3.2-.2.3-.4.3-.8v-1.9h.5v3.3zM308.3 286.6h-.5v-1.9c0-.4-.1-.6-.2-.8-.1-.2-.3-.2-.6-.2-.2 0-.4.1-.6.3-.2.2-.2.5-.2.7v1.9h-.5v-2c0-.7-.3-1-.8-1-.2 0-.4.1-.6.3-.2.2-.2.5-.2.8v1.9h-.5v-3.3h.5v.5c.2-.4.6-.6 1.1-.6.2 0 .4.1.6.2.2.1.3.3.4.5.3-.5.6-.7 1.1-.7.8 0 1.1.5 1.1 1.4v2zM312.5 285.1h-2.5c0 .4.1.7.3.9.2.2.5.3.8.3.4 0 .7-.1 1.1-.4v.5c-.3.2-.7.3-1.2.3s-.9-.2-1.1-.5-.4-.7-.4-1.3c0-.5.2-.9.5-1.3.3-.3.7-.5 1.1-.5s.8.1 1 .4.4.7.4 1.2v.4zm-.6-.5c0-.3-.1-.5-.2-.7-.2-.2-.4-.3-.6-.3-.3 0-.5.1-.7.3-.2.2-.3.4-.3.7h1.8zM316.5 286.6h-.5v-1.9c0-.7-.3-1.1-.8-1.1-.3 0-.5.1-.7.3s-.3.5-.3.8v1.9h-.5v-3.3h.5v.6c.3-.4.6-.6 1.1-.6.4 0 .7.1.9.4s.3.6.3 1v1.9zM319.4 286.6c-.1.1-.3.1-.5.1-.6 0-.9-.3-.9-1v-2h-.6v-.5h.6v-.8l.5-.2v1h.9v.5h-.9v1.9c0 .2 0 .4.1.5.1.1.2.1.4.1.1 0 .3 0 .4-.1v.5zM321.9 286.7c-.5 0-.9-.2-1.2-.5-.3-.3-.5-.7-.5-1.2 0-.6.2-1 .5-1.3.3-.3.7-.5 1.3-.5.5 0 .9.2 1.2.5.3.3.4.7.4 1.3 0 .5-.2 1-.5 1.3s-.7.4-1.2.4zm0-3.1c-.4 0-.6.1-.8.3s-.3.6-.3 1 .1.7.3.9c.2.2.5.3.8.3.4 0 .6-.1.8-.3s.3-.5.3-1c0-.4-.1-.7-.3-1-.1-.1-.4-.2-.8-.2zM324.6 286.5v-.6c.3.2.6.3 1 .3.5 0 .7-.2.7-.5 0-.1 0-.2-.1-.2l-.2-.2c-.1 0-.2-.1-.2-.1l-.3-.1c-.2-.1-.3-.1-.4-.2l-.3-.2-.2-.3s-.1-.2-.1-.3c0-.2 0-.3.1-.4l.3-.3.4-.2.5-.1c.3 0 .6.1.8.2v.5c-.3-.2-.5-.2-.9-.2h-.3c-.1 0-.2.1-.2.1l-.1.1v.4s.1.1.1.2l.2.1s.2.1.3.1c.2.1.3.1.4.2l.3.2.2.3.1.3c0 .2 0 .3-.1.4l-.3.3-.4.2s-.3.1-.5.1c-.2.1-.5 0-.8-.1zM330.8 286.1v2h-.5v-4.9h.5v.6c.3-.4.7-.7 1.2-.7.4 0 .8.1 1 .4.2.3.4.7.4 1.2 0 .6-.1 1-.4 1.3-.3.3-.7.5-1.1.5-.5.2-.8 0-1.1-.4zm0-1.3v.5c0 .3.1.5.3.7.2.2.4.3.7.3.3 0 .6-.1.8-.4.2-.2.3-.6.3-1s-.1-.7-.3-.9c-.2-.2-.4-.3-.7-.3-.3 0-.6.1-.8.3-.2.2-.3.4-.3.8zM336 286.7c-.5 0-.9-.2-1.2-.5-.3-.3-.5-.7-.5-1.2 0-.6.2-1 .5-1.3.3-.3.7-.5 1.3-.5.5 0 .9.2 1.2.5.3.3.4.7.4 1.3 0 .5-.2 1-.5 1.3s-.6.4-1.2.4zm.1-3.1c-.4 0-.6.1-.8.3s-.3.6-.3 1 .1.7.3.9c.2.2.5.3.8.3.4 0 .6-.1.8-.3s.3-.5.3-1c0-.4-.1-.7-.3-1-.2-.1-.5-.2-.8-.2zM340.7 283.8c-.1-.1-.2-.1-.4-.1s-.4.1-.6.3-.2.5-.2.9v1.7h-.5v-3.3h.5v.7c.1-.2.2-.4.4-.5.2-.1.3-.2.5-.2h.3v.5zM281.6 293.3h-.5v-.5c-.2.4-.6.6-1.1.6-.8 0-1.2-.5-1.2-1.4v-2h.5v1.9c0 .7.3 1.1.8 1.1.3 0 .5-.1.7-.3.2-.2.3-.4.3-.8v-1.9h.5v3.3zM282.9 293.1v-.6c.3.2.6.3 1 .3.5 0 .7-.2.7-.5 0-.1 0-.2-.1-.2l-.2-.2c-.1 0-.2-.1-.2-.1l-.3-.1c-.2-.1-.3-.1-.4-.2l-.3-.2-.2-.3s-.1-.2-.1-.3c0-.2 0-.3.1-.4l.3-.3.4-.2.5-.1c.3 0 .6.1.8.2v.5c-.3-.2-.5-.2-.9-.2h-.3c-.1 0-.2.1-.2.1l-.1.1v.4s.1.1.1.2l.2.1s.2.1.3.1c.2.1.3.1.4.2l.3.2.2.3.1.3c0 .2 0 .3-.1.4l-.3.3-.4.2s-.3.1-.5.1c-.3.1-.6.1-.8-.1zM289.1 293.3h-.5v-.5c-.2.4-.6.6-1.1.6-.8 0-1.2-.5-1.2-1.4v-2h.5v1.9c0 .7.3 1.1.8 1.1.3 0 .5-.1.7-.3.2-.2.3-.4.3-.8v-1.9h.5v3.3zM292.9 293.3h-.5v-.5c-.2.4-.6.6-1 .6-.3 0-.6-.1-.8-.3s-.3-.4-.3-.7c0-.6.4-1 1.1-1.1l1-.1c0-.6-.2-.8-.7-.8-.4 0-.8.1-1.1.4v-.5c.3-.2.7-.3 1.2-.3.8 0 1.2.4 1.2 1.2v2.1zm-.5-1.7l-.8.1c-.3 0-.4.1-.6.2-.1.1-.2.2-.2.5 0 .2.1.3.2.4.1.1.3.2.5.2.3 0 .5-.1.7-.3s.3-.4.3-.7v-.4zM296.1 290.5c-.1-.1-.2-.1-.4-.1s-.4.1-.6.3-.2.5-.2.9v1.7h-.5v-3.3h.5v.7c.1-.2.2-.4.4-.5.2-.1.3-.2.5-.2h.3v.5zM297.3 289.1c-.1 0-.2 0-.3-.1-.1-.1-.1-.1-.1-.2s0-.2.1-.2c.1-.1.2-.1.3-.1.1 0 .2 0 .3.1.1.1.1.1.1.2s0 .2-.1.2l-.3.1zm.3 4.2h-.6v-3.3h.5v3.3zM300.4 293.3c-.5 0-.9-.2-1.2-.5-.3-.3-.5-.7-.5-1.2 0-.6.2-1 .5-1.3.3-.3.7-.5 1.3-.5.5 0 .9.2 1.2.5.3.3.4.7.4 1.3 0 .5-.2 1-.5 1.3s-.6.4-1.2.4zm.1-3c-.4 0-.6.1-.8.3s-.3.6-.3 1 .1.7.3.9c.2.2.5.3.8.3.4 0 .6-.1.8-.3s.3-.5.3-1c0-.4-.1-.7-.3-1-.2-.1-.5-.2-.8-.2zM303.1 293.1v-.6c.3.2.6.3 1 .3.5 0 .7-.2.7-.5 0-.1 0-.2-.1-.2l-.2-.2c-.1 0-.2-.1-.2-.1l-.3-.1c-.2-.1-.3-.1-.4-.2l-.3-.2-.2-.3s-.1-.2-.1-.3c0-.2 0-.3.1-.4l.3-.3.4-.2.5-.1c.3 0 .6.1.8.2v.5c-.3-.2-.5-.2-.9-.2h-.3c-.1 0-.2.1-.2.1l-.1.1v.4s.1.1.1.2l.2.1s.2.1.3.1c.2.1.3.1.4.2l.3.2.2.3.1.3c0 .2 0 .3-.1.4l-.3.3-.4.2s-.3.1-.5.1c-.2.1-.5.1-.8-.1zM254.4 298.3h-1.8v-.4h1.8v.4zM261.3 299.7c-.4.2-.8.3-1.3.3-.7 0-1.2-.2-1.6-.6-.4-.4-.6-1-.6-1.7s.2-1.4.7-1.8c.5-.5 1-.7 1.7-.7.5 0 .8.1 1.1.2v.6c-.3-.2-.7-.3-1.1-.3-.5 0-1 .2-1.3.5-.3.4-.5.8-.5 1.4 0 .6.2 1 .5 1.4.3.3.7.5 1.3.5.5 0 .9-.1 1.2-.3v.5zM265.2 298.4h-2.4c0 .4.1.7.3.9.2.2.5.3.8.3.4 0 .7-.1 1.1-.4v.5c-.3.2-.7.3-1.2.3s-.9-.2-1.1-.5-.4-.7-.4-1.3c0-.5.2-.9.5-1.3.3-.3.7-.5 1.1-.5s.8.1 1 .4.4.7.4 1.2v.4zm-.5-.5c0-.3-.1-.5-.2-.7-.2-.2-.4-.3-.6-.3-.3 0-.5.1-.7.3-.2.2-.3.4-.3.7h1.8zM269.2 299.9h-.5v-1.9c0-.7-.3-1.1-.8-1.1-.3 0-.5.1-.7.3s-.3.5-.3.8v1.9h-.5v-3.3h.5v.6c.3-.4.6-.6 1.1-.6.4 0 .7.1.9.4s.3.6.3 1v1.9zM272.2 299.9c-.1.1-.3.1-.5.1-.6 0-.9-.3-.9-1v-2h-.6v-.5h.6v-.8l.5-.2v1h.9v.5h-.9v1.9c0 .2 0 .4.1.5.1.1.2.1.4.1.1 0 .3 0 .4-.1v.5zM275 297.1c-.1-.1-.2-.1-.4-.1s-.4.1-.6.3-.2.5-.2.9v1.7h-.5v-3.3h.5v.7c.1-.2.2-.4.4-.5.2-.1.3-.2.5-.2h.3v.5zM277.4 300c-.5 0-.9-.2-1.2-.5-.3-.3-.5-.7-.5-1.2 0-.6.2-1 .5-1.3.3-.3.7-.5 1.3-.5.5 0 .9.2 1.2.5.3.3.4.7.4 1.3 0 .5-.2 1-.5 1.3s-.7.4-1.2.4zm0-3c-.4 0-.6.1-.8.3s-.3.6-.3 1 .1.7.3.9c.2.2.5.3.8.3.4 0 .6-.1.8-.3s.3-.5.3-1c0-.4-.1-.7-.3-1-.1-.1-.4-.2-.8-.2zM285.4 299.9h-.5v-.6c-.3.4-.6.6-1.2.6-.4 0-.8-.1-1-.4-.3-.3-.4-.7-.4-1.2 0-.6.1-1 .4-1.3.3-.3.7-.5 1.1-.5.5 0 .8.2 1 .5v-2h.5v4.9zm-.5-1.5v-.5c0-.3-.1-.5-.3-.7-.2-.2-.4-.3-.7-.3-.3 0-.6.1-.8.4-.2.2-.3.6-.3 1s.1.7.3.9c.2.2.4.3.7.3.3 0 .6-.1.7-.3.3-.2.4-.5.4-.8zM289.6 298.4h-2.4c0 .4.1.7.3.9.2.2.5.3.8.3.4 0 .7-.1 1.1-.4v.5c-.3.2-.7.3-1.2.3s-.9-.2-1.1-.5-.4-.7-.4-1.3c0-.5.2-.9.5-1.3.3-.3.7-.5 1.1-.5s.8.1 1 .4.4.7.4 1.2v.4zm-.5-.5c0-.3-.1-.5-.2-.7-.2-.2-.4-.3-.6-.3-.3 0-.5.1-.7.3-.2.2-.3.4-.3.7h1.8zM293.3 295.7c-.1 0-.2 0-.3-.1-.1-.1-.1-.1-.1-.2s0-.2.1-.2c.1-.1.2-.1.3-.1.1 0 .2 0 .3.1.1.1.1.1.1.2s0 .2-.1.2c-.1.1-.2.1-.3.1zm.3 4.2h-.6v-3.3h.5v3.3zM297.8 299.9h-.5v-1.9c0-.7-.3-1.1-.8-1.1-.3 0-.5.1-.7.3s-.3.5-.3.8v1.9h-.5v-3.3h.5v.6c.3-.4.6-.6 1.1-.6.4 0 .7.1.9.4s.3.6.3 1v1.9zM300.9 295.5c-.1-.1-.2-.1-.4-.1-.4 0-.6.2-.6.7v.5h.8v.5h-.7v2.9h-.5v-3h-.6v-.5h.6v-.5c0-.3.1-.6.3-.8.2-.2.5-.3.8-.3.2 0 .3 0 .4.1v.5zM303.1 300c-.5 0-.9-.2-1.2-.5-.3-.3-.5-.7-.5-1.2 0-.6.2-1 .5-1.3.3-.3.7-.5 1.3-.5.5 0 .9.2 1.2.5.3.3.4.7.4 1.3 0 .5-.2 1-.5 1.3s-.7.4-1.2.4zm0-3c-.4 0-.6.1-.8.3s-.3.6-.3 1 .1.7.3.9c.2.2.5.3.8.3.4 0 .6-.1.8-.3s.3-.5.3-1c0-.4-.1-.7-.3-1-.1-.1-.4-.2-.8-.2zM307.8 297.1c-.1-.1-.2-.1-.4-.1s-.4.1-.6.3-.2.5-.2.9v1.7h-.6v-3.3h.5v.7c.1-.2.2-.4.4-.5.2-.1.3-.2.5-.2h.3v.5zM313.6 299.9h-.6v-1.9c0-.4-.1-.6-.2-.8-.1-.2-.3-.2-.6-.2-.2 0-.4.1-.6.3-.2.2-.2.5-.2.7v1.9h-.5v-2c0-.7-.3-1-.8-1-.2 0-.4.1-.6.3-.2.2-.2.5-.2.8v1.9h-.5v-3.3h.5v.5c.2-.4.6-.6 1.1-.6.2 0 .4.1.6.2.2.1.3.3.4.5.3-.5.6-.7 1.1-.7.8 0 1.1.5 1.1 1.4v2zM317.4 299.9h-.5v-.5c-.2.4-.6.6-1 .6-.3 0-.6-.1-.8-.3s-.3-.4-.3-.7c0-.6.4-1 1.1-1.1l1-.1c0-.6-.2-.8-.7-.8-.4 0-.8.1-1.1.4v-.5c.3-.2.7-.3 1.2-.3.8 0 1.2.4 1.2 1.2v2.1zm-.6-1.7l-.8.1c-.3 0-.4.1-.6.2-.1.1-.2.2-.2.5 0 .2.1.3.2.4.1.1.3.2.5.2.3 0 .5-.1.7-.3s.3-.4.3-.7v-.4zM321.1 299.8c-.3.2-.6.2-.9.2-.5 0-.9-.2-1.2-.5s-.4-.7-.4-1.2.2-1 .5-1.3c.3-.3.8-.5 1.3-.5.3 0 .6.1.8.2v.5c-.3-.2-.5-.3-.8-.3-.3 0-.6.1-.9.4-.2.2-.3.6-.3 1s.1.7.3.9.5.3.8.3c.3 0 .6-.1.8-.3v.6zM322.5 295.7c-.1 0-.2 0-.3-.1-.1-.1-.1-.1-.1-.2s0-.2.1-.2c.1-.1.2-.1.3-.1.1 0 .2 0 .3.1.1.1.1.1.1.2s0 .2-.1.2c-.1.1-.2.1-.3.1zm.3 4.2h-.5v-3.3h.5v3.3zM325.7 300c-.5 0-.9-.2-1.2-.5-.3-.3-.5-.7-.5-1.2 0-.6.2-1 .5-1.3.3-.3.7-.5 1.3-.5.5 0 .9.2 1.2.5.3.3.4.7.4 1.3 0 .5-.2 1-.5 1.3s-.7.4-1.2.4zm0-3c-.4 0-.6.1-.8.3s-.3.6-.3 1 .1.7.3.9c.2.2.5.3.8.3.4 0 .6-.1.8-.3s.3-.5.3-1c0-.4-.1-.7-.3-1-.2-.1-.4-.2-.8-.2zm.8-2.1l-.9 1.1h-.4l.7-1.1h.6zM331.4 299.9h-.5v-1.9c0-.7-.3-1.1-.8-1.1-.3 0-.5.1-.7.3s-.3.5-.3.8v1.9h-.5v-3.3h.5v.6c.3-.4.6-.6 1.1-.6.4 0 .7.1.9.4s.3.6.3 1v1.9z"/></g><path stroke="#D3D3D3" stroke-miterlimit="10" fill="none" d="M292 190.7v-49.6M279.9 305.6v26.1c0 4.4-3.6 8-8 8h-13.5c-4.4 0-8 3.6-8 8v11M304.1 305.6v26.1c0 4.4 3.6 8 8 8h13.5c4.4 0 8 3.6 8 8v11M292 305.6v53.1"/><path fill="#c6c" d="M252.5 358.7c0 1.1-.9 2-2 2s-2-.9-2-2 .9-2 2-2 2 .9 2 2zM294 358.7c0 1.1-.9 2-2 2s-2-.9-2-2 .9-2 2-2 2 .9 2 2zM335.6 358.7c0 1.1-.9 2-2 2s-2-.9-2-2 .9-2 2-2 2 .9 2 2z"/><path stroke="#D3D3D3" stroke-miterlimit="10" d="M250.4 387.8v9.9c0 4.4 3.6 8 8 8h67.1c4.4 0 8-3.6 8-8v-9.9M292 387.8v50" fill="none"/><path fill="#6cc" d="M470.5 224.8c0 16.3-13.2 29.5-29.5 29.5s-29.5-13.2-29.5-29.5 13.2-29.5 29.5-29.5 29.5 13.2 29.5 29.5z"/><path fill="#fff" d="M441 245.5c-11.4 0-20.7-9.3-20.7-20.7 0-11.4 9.3-20.7 20.7-20.7s20.7 9.3 20.7 20.7c.1 11.4-9.2 20.7-20.7 20.7zm0-38.8c-10 0-18.1 8.1-18.1 18.1 0 10 8.1 18.1 18.1 18.1 10 0 18.1-8.1 18.1-18.1.1-10-8-18.1-18.1-18.1zM440.5 205.4h1.1v4.5h-1.1zM430.1 214.6l-3.2-3.1.8-.8 3.2 3.1zM421.6 224.2h4.5v1.1h-4.5zM426.966 238.102l3.184-3.18.777.778-3.184 3.18zM440.5 239.8h1.1v4.5h-1.1zM451.164 235.776l.778-.777 3.18 3.184-.778.777zM456 224.2h4.5v1.1h-4.5zM452 214.6l-.8-.8 3.2-3.1.8.8zM442.2 226.6h-2.3v-8.8l1.1-1.1 1.2 1.1zM438.8 225.6v-1.6h13.6l.8.8-.8.8z"/><path fill="#0c9" d="M172.4 224.8c0 16.3-13.2 29.5-29.5 29.5s-29.5-13.2-29.5-29.5 13.2-29.5 29.5-29.5 29.5 13.2 29.5 29.5z"/><path fill="#fff" d="M129.1 234.3l-2 2 4.3 4.3 2.1-2.1c1.9 1.3 4.1 2.2 6.4 2.7v2.9h6.1v-2.9c2.3-.4 4.5-1.4 6.4-2.7l2.1 2.1 4.3-4.3-2.1-2c1.3-1.9 2.2-4.1 2.7-6.4h2.9v-6.1h-2.9c-.4-2.4-1.4-4.5-2.7-6.4l2.1-2-4.3-4.3-2.1 2.1c-1.9-1.3-4.1-2.2-6.4-2.7v-2.9h-6.1v2.9c-2.3.4-4.5 1.4-6.4 2.7l-2.1-2.1-4.3 4.3 2 2c-1.3 1.9-2.2 4.1-2.7 6.4h-2.9v6.1h2.9c.5 2.3 1.4 4.5 2.7 6.4zm13.9-18.8c5.2 0 9.3 4.2 9.3 9.3 0 5.2-4.2 9.3-9.3 9.3-5.2 0-9.3-4.2-9.3-9.3-.1-5.2 4.1-9.3 9.3-9.3z"/><g opacity=".6"><path fill="#0c9" d="M99.6 273c-.6.3-1.3.4-2.1.4-.6 0-1.1-.1-1.5-.3s-.9-.5-1.2-.8c-.3-.3-.6-.8-.8-1.2-.2-.5-.3-1-.3-1.6 0-.6.1-1.2.3-1.7s.5-1 .8-1.3.8-.7 1.3-.9 1.1-.3 1.7-.3c.7 0 1.3.1 1.8.3v.8c-.6-.3-1.2-.4-1.8-.4-.5 0-1 .1-1.4.3-.4.2-.7.4-1 .7-.3.3-.5.7-.6 1.1-.1.4-.2.9-.2 1.4 0 .5.1.9.2 1.3s.3.8.6 1c.3.3.6.5 1 .7.4.2.8.3 1.3.3.8 0 1.5-.2 2-.5v.7zM107.1 273.3l-.9-2.3h-3.5l-.9 2.3h-.8l3.1-7.9h.8l3 7.9h-.8zm-2.4-6.5l-.1-.2-.1-.3c0 .1 0 .2-.1.3 0 .1-.1.2-.1.2l-1.3 3.5h2.9l-1.2-3.5zM114.2 273.3l-1.2-2.3-.3-.6c-.1-.2-.2-.3-.3-.4-.1-.1-.2-.2-.4-.2-.1 0-.3-.1-.5-.1h-.9v3.4h-.7v-7.9h2.3c.3 0 .6 0 .9.1s.5.2.8.4.4.4.5.6c.1.3.2.6.2.9 0 .3 0 .5-.1.8-.1.2-.2.4-.4.6s-.4.3-.6.5c-.2.1-.5.2-.8.3.1 0 .2.1.3.2l.3.3.3.3.3.4 1.4 2.4h-1.1zm-3.7-7.2v3.1h1.3c.3 0 .5 0 .7-.1l.6-.3s.3-.3.4-.5.1-.4.1-.7c0-.5-.2-.8-.5-1.1-.3-.3-.7-.4-1.3-.4h-1.3zM122.2 273.3l-.9-2.3h-3.5l-.9 2.3h-.8l3.1-7.9h.8l3 7.9h-.8zm-2.5-6.5l-.1-.2-.1-.3c0 .1 0 .2-.1.3 0 .1-.1.2-.1.2l-1.3 3.5h2.9l-1.2-3.5zM130.1 273c-.6.3-1.3.4-2.1.4-.6 0-1.1-.1-1.5-.3s-.9-.5-1.2-.8c-.3-.3-.6-.8-.8-1.2-.2-.5-.3-1-.3-1.6 0-.6.1-1.2.3-1.7s.5-1 .8-1.3.8-.7 1.3-.9 1.1-.3 1.7-.3c.7 0 1.3.1 1.8.3v.8c-.6-.3-1.2-.4-1.8-.4-.5 0-1 .1-1.4.3-.4.2-.7.4-1 .7-.3.3-.5.7-.6 1.1-.1.4-.2.9-.2 1.4 0 .5.1.9.2 1.3s.3.8.6 1c.3.3.6.5 1 .7.4.2.8.3 1.3.3.8 0 1.5-.2 2-.5v.7zM134.7 266.1v7.2h-.7v-7.2h-2.3v-.7h5.4v.7h-2.4zM138.9 273.3v-7.9h3.9v.7h-3.2v2.9h2.9v.7h-2.9v3h3.4v.7h-4.1zM149.7 273.3l-1.2-2.3-.3-.6c-.1-.2-.2-.3-.3-.4-.1-.1-.2-.2-.4-.2-.1 0-.3-.1-.5-.1h-1v3.4h-.7v-7.9h2.3c.3 0 .6 0 .9.1s.5.2.8.4.4.4.5.6c.1.3.2.6.2.9 0 .3 0 .5-.1.8-.1.2-.2.4-.4.6s-.4.3-.6.5c-.2.1-.5.2-.8.3.1 0 .2.1.3.2l.3.3.3.3.3.4 1.4 2.4h-1zm-3.7-7.2v3.1h1.3c.3 0 .5 0 .7-.1l.6-.3s.3-.3.4-.5.1-.4.1-.7c0-.5-.2-.8-.5-1.1-.3-.3-.7-.4-1.3-.4h-1.3zM152.9 264.7h-.6l1.3-1.8h.8l-1.5 1.8zm.3 8.6h-.7v-7.9h.7v7.9zM155.6 272.1l.4.3.5.2c.2.1.3.1.5.1h.5c.6 0 1.1-.1 1.4-.3s.5-.6.5-1c0-.2 0-.4-.1-.5s-.2-.3-.3-.4c-.1-.1-.3-.3-.6-.4-.2-.1-.5-.3-.8-.5-.3-.2-.6-.4-.9-.5l-.6-.5s-.3-.4-.3-.6c-.1-.2-.1-.4-.1-.7 0-.3.1-.6.2-.9.1-.3.3-.5.6-.6.2-.2.5-.3.8-.4.3-.1.7-.1 1-.1.6 0 1.2.1 1.6.3v.8c-.5-.3-1-.4-1.7-.4-.2 0-.5 0-.7.1s-.4.1-.6.2c-.2.1-.3.2-.4.4-.1.2-.1.4-.1.6 0 .2 0 .4.1.5l.3.4s.3.3.5.4.5.3.8.4l.9.5c.3.2.5.3.6.5.2.2.3.4.4.6s.1.4.1.7c0 .3-.1.6-.2.9s-.3.5-.5.6c-.2.2-.5.3-.8.4s-.7.1-1.1.1h-.5c-.2 0-.4 0-.5-.1s-.4-.1-.5-.1c-.2-.1-.3-.1-.4-.2v-.8zM164.7 266.1v7.2h-.7v-7.2h-2.3v-.7h5.4v.7h-2.4zM169.6 273.3h-.7v-7.9h.7v7.9zM177.7 273c-.6.3-1.3.4-2.1.4-.6 0-1.1-.1-1.5-.3s-.9-.5-1.2-.8c-.3-.3-.6-.8-.8-1.2-.2-.5-.3-1-.3-1.6 0-.6.1-1.2.3-1.7s.5-1 .8-1.3.8-.7 1.3-.9 1.1-.3 1.7-.3c.7 0 1.3.1 1.8.3v.8c-.6-.3-1.2-.4-1.8-.4-.5 0-1 .1-1.4.3-.4.2-.7.4-1 .7-.3.3-.5.7-.6 1.1-.1.4-.2.9-.2 1.4 0 .5.1.9.2 1.3s.3.8.6 1c.3.3.6.5 1 .7.4.2.8.3 1.3.3.8 0 1.5-.2 2-.5v.7zM185.2 273.3l-.9-2.3h-3.5l-.9 2.3h-.8l3.1-7.9h.8l3 7.9h-.8zm-2.4-6.5l-.1-.2-.1-.3c0 .1 0 .2-.1.3 0 .1-.1.2-.1.2l-1.3 3.5h2.9l-1.2-3.5zM187.6 272.1l.4.3.5.2c.2.1.3.1.5.1h.5c.6 0 1.1-.1 1.4-.3s.5-.6.5-1c0-.2 0-.4-.1-.5s-.2-.3-.3-.4c-.1-.1-.3-.3-.6-.4-.2-.1-.5-.3-.8-.5-.3-.2-.6-.4-.9-.5l-.6-.5s-.3-.4-.3-.6c-.1-.2-.1-.4-.1-.7 0-.3.1-.6.2-.9.1-.3.3-.5.6-.6.2-.2.5-.3.8-.4.3-.1.7-.1 1-.1.6 0 1.2.1 1.6.3v.8c-.5-.3-1-.4-1.7-.4-.2 0-.5 0-.7.1s-.4.1-.6.2c-.2.1-.3.2-.4.4-.1.2-.1.4-.1.6 0 .2 0 .4.1.5l.3.4s.3.3.5.4.5.3.8.4l.9.5c.3.2.5.3.6.5.2.2.3.4.4.6s.1.4.1.7c0 .3-.1.6-.2.9s-.3.5-.5.6c-.2.2-.5.3-.8.4s-.7.1-1.1.1h-.5c-.2 0-.4 0-.5-.1s-.4-.1-.5-.1c-.2-.1-.3-.1-.4-.2v-.8z"/><path fill="#5D5D5D" d="M97.9 278.3h-1.9v-.4h1.8v.4zM102 279.9h-.6v-4.7h.6v4.7zM106.4 279.9h-.5v-1.9c0-.7-.3-1.1-.8-1.1-.3 0-.5.1-.7.3s-.3.5-.3.8v1.9h-.5v-3.3h.5v.6c.3-.4.6-.6 1.1-.6.4 0 .7.1.9.4s.3.6.3 1v1.9zM109.4 275.5c-.1-.1-.2-.1-.4-.1-.4 0-.6.2-.6.7v.5h.8v.5h-.8v2.9h-.4v-3h-.6v-.5h.6v-.5c0-.3.1-.6.3-.8.2-.2.5-.3.8-.3.2 0 .3 0 .4.1v.5zM111.7 280c-.5 0-.9-.2-1.2-.5-.3-.3-.5-.7-.5-1.2 0-.6.2-1 .5-1.3.3-.3.7-.5 1.3-.5.5 0 .9.2 1.2.5.3.3.4.7.4 1.3 0 .5-.2 1-.5 1.3s-.7.4-1.2.4zm0-3c-.4 0-.6.1-.8.3s-.3.6-.3 1 .1.7.3.9c.2.2.5.3.8.3.4 0 .6-.1.8-.3s.3-.5.3-1c0-.4-.1-.7-.3-1-.2-.1-.4-.2-.8-.2zM116.4 277.1c-.1-.1-.2-.1-.4-.1s-.4.1-.6.3-.2.5-.2.9v1.7h-.5v-3.3h.5v.7c.1-.2.2-.4.4-.5.2-.1.3-.2.5-.2h.3v.5zM122.1 279.9h-.5v-1.9c0-.4-.1-.6-.2-.8-.1-.2-.3-.2-.6-.2-.2 0-.4.1-.6.3-.2.2-.2.5-.2.7v1.9h-.5v-2c0-.7-.3-1-.8-1-.2 0-.4.1-.6.3-.2.2-.2.5-.2.8v1.9h-.5v-3.3h.5v.5c.2-.4.6-.6 1.1-.6.2 0 .4.1.6.2.2.1.3.3.4.5.3-.5.6-.7 1.1-.7.8 0 1.1.5 1.1 1.4v2zM125.9 279.9h-.5v-.5c-.2.4-.6.6-1 .6-.3 0-.6-.1-.8-.3s-.3-.4-.3-.7c0-.6.4-1 1.1-1.1l1-.1c0-.6-.2-.8-.7-.8-.4 0-.8.1-1.1.4v-.5c.3-.2.7-.3 1.2-.3.8 0 1.2.4 1.2 1.2v2.1zm-.5-1.7l-.8.1c-.3 0-.4.1-.6.2-.1.1-.2.2-.2.5 0 .2.1.3.2.4.1.1.3.2.5.2.3 0 .5-.1.7-.3s.3-.4.3-.7v-.4zM129.6 279.8c-.3.2-.6.2-.9.2-.5 0-.9-.2-1.2-.5s-.4-.7-.4-1.2.2-1 .5-1.3c.3-.3.8-.5 1.3-.5.3 0 .6.1.8.2v.5c-.3-.2-.5-.3-.8-.3-.3 0-.6.1-.9.4-.2.2-.3.6-.3 1s.1.7.3.9.5.3.8.3c.3 0 .6-.1.8-.3v.6zM131.1 275.7c-.1 0-.2 0-.3-.1-.1-.1-.1-.1-.1-.2s0-.2.1-.2c.1-.1.2-.1.3-.1.1 0 .2 0 .3.1.1.1.1.1.1.2s0 .2-.1.2c-.1.1-.2.1-.3.1zm.3 4.2h-.5v-3.3h.5v3.3zM134.2 280c-.5 0-.9-.2-1.2-.5-.3-.3-.5-.7-.5-1.2 0-.6.2-1 .5-1.3.3-.3.7-.5 1.3-.5.5 0 .9.2 1.2.5.3.3.4.7.4 1.3 0 .5-.2 1-.5 1.3s-.7.4-1.2.4zm.1-3c-.4 0-.6.1-.8.3s-.3.6-.3 1 .1.7.3.9c.2.2.5.3.8.3.4 0 .6-.1.8-.3s.3-.5.3-1c0-.4-.1-.7-.3-1-.2-.1-.5-.2-.8-.2zm.8-2.1l-.9 1.1h-.4l.7-1.1h.6zM140 279.9h-.5v-1.9c0-.7-.3-1.1-.8-1.1-.3 0-.5.1-.7.3s-.3.5-.3.8v1.9h-.5v-3.3h.5v.6c.3-.4.6-.6 1.1-.6.4 0 .7.1.9.4s.3.6.3 1v1.9zM146 279.9h-.5v-.5c-.2.4-.6.6-1 .6-.3 0-.6-.1-.8-.3s-.3-.4-.3-.7c0-.6.4-1 1.1-1.1l1-.1c0-.6-.2-.8-.7-.8-.4 0-.8.1-1.1.4v-.5c.3-.2.7-.3 1.2-.3.8 0 1.2.4 1.2 1.2v2.1zm-.6-1.7l-.8.1c-.3 0-.4.1-.6.2-.1.1-.2.2-.2.5 0 .2.1.3.2.4.1.1.3.2.5.2.3 0 .5-.1.7-.3s.3-.4.3-.7v-.4zM149.7 279.8c-.3.2-.6.2-.9.2-.5 0-.9-.2-1.2-.5s-.4-.7-.4-1.2.2-1 .5-1.3c.3-.3.8-.5 1.3-.5.3 0 .6.1.8.2v.5c-.3-.2-.5-.3-.8-.3-.3 0-.6.1-.9.4-.2.2-.3.6-.3 1s.1.7.3.9.5.3.8.3c.3 0 .6-.1.8-.3v.6zM152.4 279.9c-.1.1-.3.1-.5.1-.6 0-.9-.3-.9-1v-2h-.6v-.5h.6v-.8l.5-.2v1h.9v.5h-.9v1.9c0 .2 0 .4.1.5.1.1.2.1.4.1.1 0 .3 0 .4-.1v.5zM156.3 279.9h-.5v-.5c-.2.4-.6.6-1.1.6-.8 0-1.2-.5-1.2-1.4v-2h.5v1.9c0 .7.3 1.1.8 1.1.3 0 .5-.1.7-.3.2-.2.3-.4.3-.8v-1.9h.5v3.3zM160.2 279.9h-.5v-.5c-.2.4-.6.6-1 .6-.3 0-.6-.1-.8-.3s-.3-.4-.3-.7c0-.6.4-1 1.1-1.1l1-.1c0-.6-.2-.8-.7-.8-.4 0-.8.1-1.1.4v-.5c.3-.2.7-.3 1.2-.3.8 0 1.2.4 1.2 1.2v2.1zm-.6-1.7l-.8.1c-.3 0-.4.1-.6.2-.1.1-.2.2-.2.5 0 .2.1.3.2.4.1.1.3.2.5.2.3 0 .5-.1.7-.3s.3-.4.3-.7v-.4zM162.1 279.9h-.5v-4.9h.5v4.9zM163.8 275.7c-.1 0-.2 0-.3-.1-.1-.1-.1-.1-.1-.2s0-.2.1-.2c.1-.1.2-.1.3-.1.1 0 .2 0 .3.1.1.1.1.1.1.2s0 .2-.1.2c-.1.1-.2.1-.3.1zm.3 4.2h-.5v-3.3h.5v3.3zM167.9 276.7l-2 2.7h2v.5h-2.8v-.2l2-2.7h-1.8v-.5h2.6v.2zM171.4 279.9h-.5v-.5c-.2.4-.6.6-1 .6-.3 0-.6-.1-.8-.3s-.3-.4-.3-.7c0-.6.4-1 1.1-1.1l1-.1c0-.6-.2-.8-.7-.8-.4 0-.8.1-1.1.4v-.5c.3-.2.7-.3 1.2-.3.8 0 1.2.4 1.2 1.2v2.1zm-.6-1.7l-.8.1c-.3 0-.4.1-.6.2-.1.1-.2.2-.2.5 0 .2.1.3.2.4.1.1.3.2.5.2.3 0 .5-.1.7-.3s.3-.4.3-.7v-.4zM175.7 279.9h-.5v-.6c-.3.4-.6.6-1.2.6-.4 0-.8-.1-1-.4-.3-.3-.4-.7-.4-1.2 0-.6.1-1 .4-1.3.3-.3.7-.5 1.1-.5.5 0 .8.2 1 .5v-2h.5v4.9zm-.6-1.5v-.5c0-.3-.1-.5-.3-.7-.2-.2-.4-.3-.7-.3-.3 0-.6.1-.8.4-.2.2-.3.6-.3 1s.1.7.3.9c.2.2.4.3.7.3.3 0 .6-.1.7-.3.3-.2.4-.5.4-.8zM179.5 279.9h-.5v-.5c-.2.4-.6.6-1 .6-.3 0-.6-.1-.8-.3s-.3-.4-.3-.7c0-.6.4-1 1.1-1.1l1-.1c0-.6-.2-.8-.7-.8-.4 0-.8.1-1.1.4v-.5c.3-.2.7-.3 1.2-.3.8 0 1.2.4 1.2 1.2v2.1zm-.5-1.7l-.8.1c-.3 0-.4.1-.6.2-.1.1-.2.2-.2.5 0 .2.1.3.2.4.1.1.3.2.5.2.3 0 .5-.1.7-.3s.3-.4.3-.7v-.4zM185.9 278.4h-2.4c0 .4.1.7.3.9.2.2.5.3.8.3.4 0 .7-.1 1.1-.4v.5c-.3.2-.7.3-1.2.3s-.9-.2-1.1-.5-.4-.7-.4-1.3c0-.5.2-.9.5-1.3.3-.3.7-.5 1.1-.5s.8.1 1 .4.4.7.4 1.2v.4zm-.6-.5c0-.3-.1-.5-.2-.7-.2-.2-.4-.3-.6-.3-.3 0-.5.1-.7.3-.2.2-.3.4-.3.7h1.8zM189.9 279.9h-.5v-1.9c0-.7-.3-1.1-.8-1.1-.3 0-.5.1-.7.3s-.3.5-.3.8v1.9h-.6v-3.3h.5v.6c.3-.4.6-.6 1.1-.6.4 0 .7.1.9.4s.3.6.3 1v1.9zM126.2 286.6c-.1.1-.3.1-.5.1-.6 0-.9-.3-.9-1v-2h-.6v-.5h.6v-.8l.5-.2v1h.9v.5h-.9v1.9c0 .2 0 .4.1.5.1.1.2.1.4.1.1 0 .3 0 .4-.1v.5zM127.6 282.4c-.1 0-.2 0-.3-.1-.1-.1-.1-.1-.1-.2s0-.2.1-.2c.1-.1.2-.1.3-.1.1 0 .2 0 .3.1.1.1.1.1.1.2s0 .2-.1.2c-.2.1-.2.1-.3.1zm.2 4.2h-.5v-3.3h.5v3.3zM132 285.1h-2.4c0 .4.1.7.3.9.2.2.5.3.8.3.4 0 .7-.1 1.1-.4v.5c-.3.2-.7.3-1.2.3s-.9-.2-1.1-.5-.4-.7-.4-1.3c0-.5.2-.9.5-1.3.3-.3.7-.5 1.1-.5s.8.1 1 .4.4.7.4 1.2v.4zm-.5-.5c0-.3-.1-.5-.2-.7-.2-.2-.4-.3-.6-.3-.3 0-.5.1-.7.3-.2.2-.3.4-.3.7h1.8zM138 286.6h-.5v-1.9c0-.4-.1-.6-.2-.8-.1-.2-.3-.2-.6-.2-.2 0-.4.1-.6.3-.2.2-.2.5-.2.7v1.9h-.5v-2c0-.7-.3-1-.8-1-.2 0-.4.1-.6.3-.2.2-.2.5-.2.8v1.9h-.5v-3.3h.5v.5c.2-.4.6-.6 1.1-.6.2 0 .4.1.6.2.2.1.3.3.4.5.3-.5.6-.7 1.1-.7.8 0 1.1.5 1.1 1.4v2zM140 286.1v2h-.5v-4.9h.5v.6c.3-.4.7-.7 1.2-.7.4 0 .8.1 1 .4.2.3.4.7.4 1.2 0 .6-.1 1-.4 1.3-.3.3-.7.5-1.1.5-.6.2-.9 0-1.1-.4zm-.1-1.3v.5c0 .3.1.5.3.7.2.2.4.3.7.3.3 0 .6-.1.8-.4.2-.2.3-.6.3-1s-.1-.7-.3-.9c-.2-.2-.4-.3-.7-.3-.3 0-.6.1-.8.3-.2.2-.3.4-.3.8zM145.2 286.7c-.5 0-.9-.2-1.2-.5-.3-.3-.5-.7-.5-1.2 0-.6.2-1 .5-1.3.3-.3.7-.5 1.3-.5.5 0 .9.2 1.2.5.3.3.4.7.4 1.3 0 .5-.2 1-.5 1.3s-.7.4-1.2.4zm0-3.1c-.4 0-.6.1-.8.3s-.3.6-.3 1 .1.7.3.9c.2.2.5.3.8.3.4 0 .6-.1.8-.3s.3-.5.3-1c0-.4-.1-.7-.3-1-.2-.1-.4-.2-.8-.2zM152.1 283.8c-.1-.1-.2-.1-.4-.1s-.4.1-.6.3-.2.5-.2.9v1.7h-.5v-3.3h.5v.7c.1-.2.2-.4.4-.5.2-.1.3-.2.5-.2h.3v.5zM155.8 285.1h-2.4c0 .4.1.7.3.9.2.2.5.3.8.3.4 0 .7-.1 1.1-.4v.5c-.3.2-.7.3-1.2.3s-.9-.2-1.1-.5-.4-.7-.4-1.3c0-.5.2-.9.5-1.3.3-.3.7-.5 1.1-.5s.8.1 1 .4.4.7.4 1.2v.4zm-.6-.5c0-.3-.1-.5-.2-.7-.2-.2-.4-.3-.6-.3-.3 0-.5.1-.7.3-.2.2-.3.4-.3.7h1.8zM159.4 286.6h-.5v-.5c-.2.4-.6.6-1 .6-.3 0-.6-.1-.8-.3s-.3-.4-.3-.7c0-.6.4-1 1.1-1.1l1-.1c0-.6-.2-.8-.7-.8-.4 0-.8.1-1.1.4v-.5c.3-.2.7-.3 1.2-.3.8 0 1.2.4 1.2 1.2v2.1zm-.6-1.7l-.8.1c-.3 0-.4.1-.6.2-.1.1-.2.2-.2.5 0 .2.1.3.2.4.1.1.3.2.5.2.3 0 .5-.1.7-.3s.3-.4.3-.7v-.4zM161.3 286.6h-.5v-4.9h.5v4.9zM116 291.6h-1.8v-.4h1.8v.4zM124.5 293.3h-.5v-4c-.1.2-.1.4-.1.5l-1.6 3.6h-.3l-1.6-3.6c0-.1-.1-.3-.1-.5v4h-.5v-4.7h.7l1.5 3.3c.1.2.2.4.2.6.1-.3.2-.4.2-.6l1.5-3.2h.7v4.6zM128.8 293.3h-.5v-.5c-.2.4-.6.6-1.1.6-.8 0-1.2-.5-1.2-1.4v-2h.5v1.9c0 .7.3 1.1.8 1.1.3 0 .5-.1.7-.3.2-.2.3-.4.3-.8v-1.9h.5v3.3zM130.8 293.3h-.5v-4.9h.5v4.9zM133.8 293.2c-.1.1-.3.1-.5.1-.6 0-.9-.3-.9-1v-2h-.6v-.5h.6v-.8l.5-.2v1h.9v.5h-.8v1.9c0 .2 0 .4.1.5.1.1.2.1.4.1.1 0 .3 0 .4-.1v.5zM135.2 289.1c-.1 0-.2 0-.3-.1-.1-.1-.1-.1-.1-.2s0-.2.1-.2c.1-.1.2-.1.3-.1.1 0 .2 0 .3.1.1.1.1.1.1.2s0 .2-.1.2l-.3.1zm.2 4.2h-.5v-3.3h.5v3.3zM137.4 292.8v2h-.5v-4.9h.5v.6c.3-.4.7-.7 1.2-.7.4 0 .8.1 1 .4.2.3.4.7.4 1.2 0 .6-.1 1-.4 1.3-.3.3-.7.5-1.1.5-.5.1-.8 0-1.1-.4zm0-1.4v.5c0 .3.1.5.3.7.2.2.4.3.7.3.3 0 .6-.1.8-.4.2-.2.3-.6.3-1s-.1-.7-.3-.9c-.2-.2-.4-.3-.7-.3-.3 0-.6.1-.8.3-.2.2-.3.5-.3.8zM141.8 293.3h-.5v-4.9h.5v4.9zM145.7 293.3h-.5v-.5c-.2.4-.6.6-1 .6-.3 0-.6-.1-.8-.3s-.3-.4-.3-.7c0-.6.4-1 1.1-1.1l1-.1c0-.6-.2-.8-.7-.8-.4 0-.8.1-1.1.4v-.5c.3-.2.7-.3 1.2-.3.8 0 1.2.4 1.2 1.2v2.1zm-.6-1.7l-.8.1c-.3 0-.4.1-.6.2-.1.1-.2.2-.2.5 0 .2.1.3.2.4.1.1.3.2.5.2.3 0 .5-.1.7-.3s.3-.4.3-.7v-.4zM148.6 293.2c-.1.1-.3.1-.5.1-.6 0-.9-.3-.9-1v-2h-.6v-.5h.6v-.8l.5-.2v1h.9v.5h-.9v1.9c0 .2 0 .4.1.5.1.1.2.1.4.1.1 0 .3 0 .4-.1v.5zM152.1 293.3h-.5v-.5c-.2.4-.6.6-1 .6-.3 0-.6-.1-.8-.3s-.3-.4-.3-.7c0-.6.4-1 1.1-1.1l1-.1c0-.6-.2-.8-.7-.8-.4 0-.8.1-1.1.4v-.5c.3-.2.7-.3 1.2-.3.8 0 1.2.4 1.2 1.2v2.1zm-.5-1.7l-.8.1c-.3 0-.4.1-.6.2-.1.1-.2.2-.2.5 0 .2.1.3.2.4.1.1.3.2.5.2.3 0 .5-.1.7-.3s.3-.4.3-.7v-.4zM155.2 288.8c-.1-.1-.2-.1-.4-.1-.4 0-.6.2-.6.7v.5h.8v.5h-.8v2.9h-.5v-2.9h-.6v-.5h.6v-.5c0-.3.1-.6.3-.8.2-.2.5-.3.8-.3.2 0 .3 0 .4.1v.4zM157.4 293.3c-.5 0-.9-.2-1.2-.5-.3-.3-.5-.7-.5-1.2 0-.6.2-1 .5-1.3.3-.3.7-.5 1.3-.5.5 0 .9.2 1.2.5.3.3.4.7.4 1.3 0 .5-.2 1-.5 1.3s-.7.4-1.2.4zm0-3c-.4 0-.6.1-.8.3s-.3.6-.3 1 .1.7.3.9c.2.2.5.3.8.3.4 0 .6-.1.8-.3s.3-.5.3-1c0-.4-.1-.7-.3-1-.1-.1-.4-.2-.8-.2zM162.1 290.5c-.1-.1-.2-.1-.4-.1s-.4.1-.6.3-.2.5-.2.9v1.7h-.5v-3.3h.5v.7c.1-.2.2-.4.4-.5.2-.1.3-.2.5-.2h.3v.5zM167.9 293.3h-.5v-1.9c0-.4-.1-.6-.2-.8-.1-.2-.3-.2-.6-.2-.2 0-.4.1-.6.3-.2.2-.2.5-.2.7v1.9h-.5v-2c0-.7-.3-1-.8-1-.2 0-.4.1-.6.3-.2.2-.2.5-.2.8v1.9h-.7v-3.3h.5v.5c.2-.4.6-.6 1.1-.6.2 0 .4.1.6.2.2.1.3.3.4.5.3-.5.6-.7 1.1-.7.8 0 1.1.5 1.1 1.4v2zM171.7 293.3h-.5v-.5c-.2.4-.6.6-1 .6-.3 0-.6-.1-.8-.3s-.3-.4-.3-.7c0-.6.4-1 1.1-1.1l1-.1c0-.6-.2-.8-.7-.8-.4 0-.8.1-1.1.4v-.5c.3-.2.7-.3 1.2-.3.8 0 1.2.4 1.2 1.2v2.1zm-.6-1.7l-.8.1c-.3 0-.4.1-.6.2-.1.1-.2.2-.2.5 0 .2.1.3.2.4.1.1.3.2.5.2.3 0 .5-.1.7-.3s.3-.4.3-.7v-.4zM127.6 298.3h-1.8v-.4h1.8v.4zM133.7 299.9h-2.5v-4.7h2.4v.5h-1.9v1.6h1.7v.5h-1.7v1.6h2v.5zM134.7 299.8v-.6c.3.2.6.3 1 .3.5 0 .7-.2.7-.5 0-.1 0-.2-.1-.2l-.2-.2c-.1 0-.2-.1-.2-.1l-.3-.1c-.2-.1-.3-.1-.4-.2l-.3-.2-.2-.3s-.1-.2-.1-.3c0-.2 0-.3.1-.4l.3-.3.4-.2.5-.1c.3 0 .6.1.8.2v.5c-.3-.2-.5-.2-.9-.2h-.3c-.1 0-.2.1-.2.1l-.1.1v.4s.1.1.1.2l.2.1s.2.1.3.1c.2.1.3.1.4.2l.3.2.2.3.1.3c0 .2 0 .3-.1.4l-.3.3-.4.2s-.3.1-.5.1c-.2.1-.5 0-.8-.1zM140.5 299.8c-.3.2-.6.2-.9.2-.5 0-.9-.2-1.2-.5s-.4-.7-.4-1.2.2-1 .5-1.3c.3-.3.8-.5 1.3-.5.3 0 .6.1.8.2v.5c-.3-.2-.5-.3-.8-.3-.3 0-.6.1-.9.4-.2.2-.3.6-.3 1s.1.7.3.9.5.3.8.3c.3 0 .6-.1.8-.3v.6zM144.1 299.9h-.5v-.5c-.2.4-.6.6-1 .6-.3 0-.6-.1-.8-.3s-.3-.4-.3-.7c0-.6.4-1 1.1-1.1l1-.1c0-.6-.2-.8-.7-.8-.4 0-.8.1-1.1.4v-.5c.3-.2.7-.3 1.2-.3.8 0 1.2.4 1.2 1.2v2.1zm-.6-1.7l-.8.1c-.3 0-.4.1-.6.2-.1.1-.2.2-.2.5 0 .2.1.3.2.4.1.1.3.2.5.2.3 0 .5-.1.7-.3s.3-.4.3-.7v-.4zM146 299.9h-.5v-4.9h.5v4.9zM149.9 299.9h-.5v-.5c-.2.4-.6.6-1 .6-.3 0-.6-.1-.8-.3s-.3-.4-.3-.7c0-.6.4-1 1.1-1.1l1-.1c0-.6-.2-.8-.7-.8-.4 0-.8.1-1.1.4v-.5c.3-.2.7-.3 1.2-.3.8 0 1.2.4 1.2 1.2v2.1zm-.6-1.7l-.8.1c-.3 0-.4.1-.6.2-.1.1-.2.2-.2.5 0 .2.1.3.2.4.1.1.3.2.5.2.3 0 .5-.1.7-.3s.3-.4.3-.7v-.4zM151.8 299.4v.5h-.5v-4.9h.5v2.2c.3-.4.7-.7 1.2-.7.4 0 .8.1 1 .4s.4.7.4 1.2c0 .6-.1 1-.4 1.3-.3.3-.7.5-1.1.5-.5.1-.8-.1-1.1-.5zm0-1.3v.5c0 .3.1.5.3.7.2.2.4.3.7.3.3 0 .6-.1.8-.4.2-.2.3-.6.3-1s-.1-.7-.3-.9c-.2-.2-.4-.3-.7-.3-.3 0-.6.1-.8.3-.2.2-.3.5-.3.8zM156.2 299.9h-.5v-4.9h.5v4.9zM160.3 298.4h-2.4c0 .4.1.7.3.9.2.2.5.3.8.3.4 0 .7-.1 1.1-.4v.5c-.3.2-.7.3-1.2.3s-.9-.2-1.1-.5-.4-.7-.4-1.3c0-.5.2-.9.5-1.3.3-.3.7-.5 1.1-.5s.8.1 1 .4.4.7.4 1.2v.4zm-.5-.5c0-.3-.1-.5-.2-.7-.2-.2-.4-.3-.6-.3-.3 0-.5.1-.7.3-.2.2-.3.4-.3.7h1.8z"/></g><g opacity=".6"><path fill="#6cc" d="M425.3 266.2h-2.3v7h-1v-7h-2.3v-.8h5.6v.8zM428.1 273.3h-.9v-7.9h.9v7.9zM435 273.3h-4.3v-7.9h4.1v.8h-3.1v2.6h2.9v.8h-2.9v2.8h3.3v.9zM445.3 273.3h-.9v-5.3c0-.4 0-.9.1-1.5-.1.4-.2.6-.2.8l-2.7 6h-.6l-2.7-6c-.1-.2-.2-.4-.2-.8v6.8h-.9v-7.9h1.2l2.5 5.5c.2.4.3.7.4.9.2-.4.3-.8.4-1l2.5-5.5h1.2v8zM449 270.3v3h-1v-7.9h2.2c.9 0 1.5.2 2 .6.5.4.7 1 .7 1.7s-.3 1.4-.8 1.8c-.5.5-1.2.7-2.1.7h-1zm0-4.1v3.2h1c.7 0 1.1-.1 1.5-.4.3-.3.5-.7.5-1.2 0-1-.6-1.6-1.9-1.6h-1.1zM458.3 273.4c-1.1 0-2.1-.4-2.7-1.1-.7-.7-1-1.7-1-2.9 0-1.3.3-2.3 1-3s1.7-1.1 2.9-1.1c1.1 0 2 .4 2.7 1.1.7.7 1 1.7 1 2.9 0 1.3-.3 2.3-1 3-.8.7-1.8 1.1-2.9 1.1zm0-7.3c-.8 0-1.5.3-2.1.9s-.8 1.4-.8 2.3.3 1.7.8 2.3c.5.6 1.2.9 2 .9.9 0 1.6-.3 2.1-.8.5-.6.8-1.4.8-2.4s-.2-1.8-.7-2.4c-.5-.5-1.2-.8-2.1-.8z"/><path fill="#5D5D5D" d="M412.7 278.3h-1.8v-.4h1.8v.4zM420 279.9h-.6l-.5-1.3h-2l-.5 1.3h-.6l1.8-4.7h.6l1.8 4.7zm-1.3-1.8l-.8-2c0-.1 0-.2-.1-.3 0 .1 0 .2-.1.3l-.7 2h1.7zM423.8 279.9h-.5v-1.9c0-.7-.3-1.1-.8-1.1-.3 0-.5.1-.7.3s-.3.5-.3.8v1.9h-.5v-3.3h.5v.6c.3-.4.6-.6 1.1-.6.4 0 .7.1.9.4s.3.6.3 1v1.9zM427.6 279.9h-.5v-.5c-.2.4-.6.6-1 .6-.3 0-.6-.1-.8-.3s-.3-.4-.3-.7c0-.6.4-1 1.1-1.1l1-.1c0-.6-.2-.8-.7-.8-.4 0-.8.1-1.1.4v-.5c.3-.2.7-.3 1.2-.3.8 0 1.2.4 1.2 1.2v2.1zm-.5-1.7l-.8.1c-.3 0-.4.1-.6.2-.1.1-.2.2-.2.5 0 .2.1.3.2.4.1.1.3.2.5.2.3 0 .5-.1.7-.3s.3-.4.3-.7v-.4zm.1-3.3l-.9 1.1h-.4l.7-1.1h.6zM429.6 279.9h-.6v-4.9h.5v4.9zM431.3 275.7c-.1 0-.2 0-.3-.1-.1-.1-.1-.1-.1-.2s0-.2.1-.2c.1-.1.2-.1.3-.1.1 0 .2 0 .3.1.1.1.1.1.1.2s0 .2-.1.2c-.1.1-.2.1-.3.1zm.3 4.2h-.6v-3.3h.5v3.3zM432.8 279.8v-.6c.3.2.6.3 1 .3.5 0 .7-.2.7-.5 0-.1 0-.2-.1-.2l-.2-.2c-.1 0-.2-.1-.2-.1l-.3-.1c-.2-.1-.3-.1-.4-.2l-.3-.2-.2-.3s-.1-.2-.1-.3c0-.2 0-.3.1-.4l.3-.3.4-.2.5-.1c.3 0 .6.1.8.2v.5c-.3-.2-.5-.2-.9-.2h-.3c-.1 0-.2.1-.2.1l-.1.1v.4s.1.1.1.2l.2.1s.2.1.3.1c.2.1.3.1.4.2l.3.2.2.3.1.3c0 .2 0 .3-.1.4l-.3.3-.4.2s-.3.1-.5.1c-.2.1-.5 0-.8-.1zM436.5 275.7c-.1 0-.2 0-.3-.1-.1-.1-.1-.1-.1-.2s0-.2.1-.2c.1-.1.2-.1.3-.1.1 0 .2 0 .3.1.1.1.1.1.1.2s0 .2-.1.2c-.1.1-.2.1-.3.1zm.3 4.2h-.5v-3.3h.5v3.3zM438 279.8v-.6c.3.2.6.3 1 .3.5 0 .7-.2.7-.5 0-.1 0-.2-.1-.2l-.2-.2c-.1 0-.2-.1-.2-.1l-.3-.1c-.2-.1-.3-.1-.4-.2l-.3-.2-.2-.3s-.1-.2-.1-.3c0-.2 0-.3.1-.4l.3-.3.4-.2.5-.1c.3 0 .6.1.8.2v.5c-.3-.2-.5-.2-.9-.2h-.3c-.1 0-.2.1-.2.1l-.1.1v.4s.1.1.1.2l.2.1s.2.1.3.1c.2.1.3.1.4.2l.3.2.2.3.1.3c0 .2 0 .3-.1.4l-.3.3-.4.2s-.3.1-.5.1c-.2.1-.5 0-.8-.1zM446.6 279.9h-.6v-.6c-.3.4-.6.6-1.2.6-.4 0-.8-.1-1-.4-.3-.3-.4-.7-.4-1.2 0-.6.1-1 .4-1.3.3-.3.7-.5 1.1-.5.5 0 .8.2 1 .5v-2h.5v4.9zm-.6-1.5v-.5c0-.3-.1-.5-.3-.7-.2-.2-.4-.3-.7-.3-.3 0-.6.1-.8.4-.2.2-.3.6-.3 1s.1.7.3.9c.2.2.4.3.7.3.3 0 .6-.1.7-.3.4-.2.4-.5.4-.8zM450.8 278.4h-2.4c0 .4.1.7.3.9.2.2.5.3.8.3.4 0 .7-.1 1.1-.4v.5c-.3.2-.7.3-1.2.3s-.9-.2-1.1-.5-.4-.7-.4-1.3c0-.5.2-.9.5-1.3.3-.3.7-.5 1.1-.5s.8.1 1 .4.4.7.4 1.2v.4zm-.6-.5c0-.3-.1-.5-.2-.7-.2-.2-.4-.3-.6-.3-.3 0-.5.1-.7.3-.2.2-.3.4-.3.7h1.8zM457.1 279.9h-.5v-.6c-.3.4-.6.6-1.2.6-.4 0-.8-.1-1-.4-.3-.3-.4-.7-.4-1.2 0-.6.1-1 .4-1.3.3-.3.7-.5 1.1-.5.5 0 .8.2 1 .5v-2h.5v4.9zm-.6-1.5v-.5c0-.3-.1-.5-.3-.7-.2-.2-.4-.3-.7-.3-.3 0-.6.1-.8.4-.2.2-.3.6-.3 1s.1.7.3.9c.2.2.4.3.7.3.3 0 .6-.1.7-.3.3-.2.4-.5.4-.8zM461 279.9h-.5v-.5c-.2.4-.6.6-1 .6-.3 0-.6-.1-.8-.3s-.3-.4-.3-.7c0-.6.4-1 1.1-1.1l1-.1c0-.6-.2-.8-.7-.8-.4 0-.8.1-1.1.4v-.5c.3-.2.7-.3 1.2-.3.8 0 1.2.4 1.2 1.2v2.1zm-.6-1.7l-.8.1c-.3 0-.4.1-.6.2-.1.1-.2.2-.2.5 0 .2.1.3.2.4.1.1.3.2.5.2.3 0 .5-.1.7-.3s.3-.4.3-.7v-.4zM463.9 279.9c-.1.1-.3.1-.5.1-.6 0-.9-.3-.9-1v-2h-.6v-.5h.6v-.8l.5-.2v1h.9v.5h-.9v1.9c0 .2 0 .4.1.5.1.1.2.1.4.1.1 0 .3 0 .4-.1v.5zM466.4 280c-.5 0-.9-.2-1.2-.5-.3-.3-.5-.7-.5-1.2 0-.6.2-1 .5-1.3.3-.3.7-.5 1.3-.5.5 0 .9.2 1.2.5.3.3.4.7.4 1.3 0 .5-.2 1-.5 1.3s-.7.4-1.2.4zm0-3c-.4 0-.6.1-.8.3s-.3.6-.3 1 .1.7.3.9c.2.2.5.3.8.3.4 0 .6-.1.8-.3s.3-.5.3-1c0-.4-.1-.7-.3-1-.1-.1-.4-.2-.8-.2zM469.1 279.8v-.6c.3.2.6.3 1 .3.5 0 .7-.2.7-.5 0-.1 0-.2-.1-.2l-.2-.2c-.1 0-.2-.1-.2-.1l-.3-.1c-.2-.1-.3-.1-.4-.2l-.3-.2-.2-.3s-.1-.2-.1-.3c0-.2 0-.3.1-.4l.3-.3.4-.2.5-.1c.3 0 .6.1.8.2v.5c-.3-.2-.5-.2-.9-.2h-.3c-.1 0-.2.1-.2.1l-.1.1v.4s.1.1.1.2l.2.1s.2.1.3.1c.2.1.3.1.4.2l.3.2.2.3.1.3c0 .2 0 .3-.1.4l-.3.3-.4.2s-.3.1-.5.1c-.2.1-.5 0-.8-.1zM396.9 284.9h-1.9v-.4h1.8v.4zM403 286.6h-2.5v-4.7h2.4v.5h-1.9v1.6h1.7v.5h-1.7v1.6h2v.5zM404 286.5v-.6c.3.2.6.3 1 .3.5 0 .7-.2.7-.5 0-.1 0-.2-.1-.2l-.2-.2c-.1 0-.2-.1-.2-.1l-.3-.1c-.2-.1-.3-.1-.4-.2l-.3-.2-.2-.3s-.1-.2-.1-.3c0-.2 0-.3.1-.4l.3-.3.4-.2.5-.1c.3 0 .6.1.8.2v.5c-.3-.2-.5-.2-.9-.2h-.3c-.1 0-.2.1-.2.1l-.1.1v.4s.1.1.1.2l.2.1s.2.1.3.1c.2.1.3.1.4.2l.3.2.2.3.1.3c0 .2 0 .3-.1.4l-.3.3-.4.2s-.3.1-.5.1c-.3.1-.6 0-.8-.1zM409 286.6c-.1.1-.3.1-.5.1-.6 0-.9-.3-.9-1v-2h-.6v-.5h.6v-.8l.5-.2v1h.9v.5h-.9v1.9c0 .2 0 .4.1.5.1.1.2.1.4.1.1 0 .3 0 .4-.1v.5zM412.5 286.6h-.5v-.5c-.2.4-.6.6-1 .6-.3 0-.6-.1-.8-.3s-.3-.4-.3-.7c0-.6.4-1 1.1-1.1l1-.1c0-.6-.2-.8-.7-.8-.4 0-.8.1-1.1.4v-.5c.3-.2.7-.3 1.2-.3.8 0 1.2.4 1.2 1.2v2.1zm-.5-1.7l-.8.1c-.3 0-.4.1-.6.2-.1.1-.2.2-.2.5 0 .2.1.3.2.4.1.1.3.2.5.2.3 0 .5-.1.7-.3s.3-.4.3-.7v-.4zM416.8 286.6h-.5v-.6c-.3.4-.6.6-1.2.6-.4 0-.8-.1-1-.4-.3-.3-.4-.7-.4-1.2 0-.6.1-1 .4-1.3.3-.3.7-.5 1.1-.5.5 0 .8.2 1 .5v-2.1h.5v5zm-.6-1.5v-.5c0-.3-.1-.5-.3-.7-.2-.2-.4-.3-.7-.3-.3 0-.6.1-.8.4-.2.2-.3.6-.3 1s.1.7.3.9c.2.2.4.3.7.3.3 0 .6-.1.7-.3.4-.2.4-.5.4-.8zM419.3 281.6l-.9 1.1h-.4l.7-1.1h.6zm-.5 5h-.5v-3.3h.5v3.3zM420 286.5v-.6c.3.2.6.3 1 .3.5 0 .7-.2.7-.5 0-.1 0-.2-.1-.2l-.2-.2c-.1 0-.2-.1-.2-.1l-.3-.1c-.2-.1-.3-.1-.4-.2l-.3-.2-.2-.3s-.1-.2-.1-.3c0-.2 0-.3.1-.4l.3-.3.4-.2.5-.1c.3 0 .6.1.8.2v.5c-.3-.2-.5-.2-.9-.2h-.3c-.1 0-.2.1-.2.1l-.1.1v.4s.1.1.1.2l.2.1s.2.1.3.1c.2.1.3.1.4.2l.3.2.2.3.1.3c0 .2 0 .3-.1.4l-.3.3-.4.2s-.3.1-.5.1c-.2.1-.5 0-.8-.1zM425.1 286.6c-.1.1-.3.1-.5.1-.6 0-.9-.3-.9-1v-2h-.6v-.5h.6v-.8l.5-.2v1h.9v.5h-.9v1.9c0 .2 0 .4.1.5.1.1.2.1.4.1.1 0 .3 0 .4-.1v.5zM426.4 282.4c-.1 0-.2 0-.3-.1-.1-.1-.1-.1-.1-.2s0-.2.1-.2c.1-.1.2-.1.3-.1.1 0 .2 0 .3.1.1.1.1.1.1.2s0 .2-.1.2c-.1.1-.2.1-.3.1zm.3 4.2h-.5v-3.3h.5v3.3zM430.4 286.4c-.3.2-.6.2-.9.2-.5 0-.9-.2-1.2-.5s-.4-.7-.4-1.2.2-1 .5-1.3c.3-.3.8-.5 1.3-.5.3 0 .6.1.8.2v.5c-.3-.2-.5-.3-.8-.3-.3 0-.6.1-.9.4-.2.2-.3.6-.3 1s.1.7.3.9.5.3.8.3c.3 0 .6-.1.8-.3v.6zM434 286.6h-.5v-.5c-.2.4-.6.6-1 .6-.3 0-.6-.1-.8-.3s-.3-.4-.3-.7c0-.6.4-1 1.1-1.1l1-.1c0-.6-.2-.8-.7-.8-.4 0-.8.1-1.1.4v-.5c.3-.2.7-.3 1.2-.3.8 0 1.2.4 1.2 1.2v2.1zm-.5-1.7l-.8.1c-.3 0-.4.1-.6.2-.1.1-.2.2-.2.5 0 .2.1.3.2.4.1.1.3.2.5.2.3 0 .5-.1.7-.3s.3-.4.3-.7v-.4zM435.2 286.5v-.6c.3.2.6.3 1 .3.5 0 .7-.2.7-.5 0-.1 0-.2-.1-.2l-.2-.2c-.1 0-.2-.1-.2-.1l-.3-.1c-.2-.1-.3-.1-.4-.2l-.3-.2-.2-.3s-.1-.2-.1-.3c0-.2 0-.3.1-.4l.3-.3.4-.2.5-.1c.3 0 .6.1.8.2v.5c-.3-.2-.5-.2-.9-.2h-.3c-.1 0-.2.1-.2.1l-.1.1v.4s.1.1.1.2l.2.1s.2.1.3.1c.2.1.3.1.4.2l.3.2.2.3.1.3c0 .2 0 .3-.1.4l-.3.3-.4.2s-.3.1-.5.1c-.2.1-.5 0-.8-.1zM443.8 286.6h-.5v-.6c-.3.4-.6.6-1.2.6-.4 0-.8-.1-1-.4-.3-.3-.4-.7-.4-1.2 0-.6.1-1 .4-1.3.3-.3.7-.5 1.1-.5.5 0 .8.2 1 .5v-2.1h.5v5zm-.6-1.5v-.5c0-.3-.1-.5-.3-.7-.2-.2-.4-.3-.7-.3-.3 0-.6.1-.8.4-.2.2-.3.6-.3 1s.1.7.3.9c.2.2.4.3.7.3.3 0 .6-.1.7-.3.3-.2.4-.5.4-.8zM448 285.1h-2.4c0 .4.1.7.3.9.2.2.5.3.8.3.4 0 .7-.1 1.1-.4v.5c-.3.2-.7.3-1.2.3s-.9-.2-1.1-.5-.4-.7-.4-1.3c0-.5.2-.9.5-1.3.3-.3.7-.5 1.1-.5s.8.1 1 .4.4.7.4 1.2v.4zm-.6-.5c0-.3-.1-.5-.2-.7-.2-.2-.4-.3-.6-.3-.3 0-.5.1-.7.3-.2.2-.3.4-.3.7h1.8zM453.7 286.4c-.3.2-.6.2-.9.2-.5 0-.9-.2-1.2-.5s-.4-.7-.4-1.2.2-1 .5-1.3c.3-.3.8-.5 1.3-.5.3 0 .6.1.8.2v.5c-.3-.2-.5-.3-.8-.3-.3 0-.6.1-.9.4-.2.2-.3.6-.3 1s.1.7.3.9.5.3.8.3c.3 0 .6-.1.8-.3v.6zM457.3 286.6h-.5v-.5c-.2.4-.6.6-1 .6-.3 0-.6-.1-.8-.3s-.3-.4-.3-.7c0-.6.4-1 1.1-1.1l1-.1c0-.6-.2-.8-.7-.8-.4 0-.8.1-1.1.4v-.5c.3-.2.7-.3 1.2-.3.8 0 1.2.4 1.2 1.2v2.1zm-.6-1.7l-.8.1c-.3 0-.4.1-.6.2-.1.1-.2.2-.2.5 0 .2.1.3.2.4.1.1.3.2.5.2.3 0 .5-.1.7-.3s.3-.4.3-.7v-.4zM459.2 286.6h-.5v-4.9h.5v4.9zM460.9 282.4c-.1 0-.2 0-.3-.1-.1-.1-.1-.1-.1-.2s0-.2.1-.2c.1-.1.2-.1.3-.1.1 0 .2 0 .3.1.1.1.1.1.1.2s0 .2-.1.2c-.1.1-.2.1-.3.1zm.3 4.2h-.5v-3.3h.5v3.3zM464.3 282.1c-.1-.1-.2-.1-.4-.1-.4 0-.6.2-.6.7v.5h.8v.5h-.8v2.9h-.5v-2.9h-.6v-.5h.6v-.5c0-.3.1-.6.3-.8.2-.2.5-.3.8-.3.2 0 .3 0 .4.1v.4zM465.4 282.4c-.1 0-.2 0-.3-.1-.1-.1-.1-.1-.1-.2s0-.2.1-.2c.1-.1.2-.1.3-.1.1 0 .2 0 .3.1.1.1.1.1.1.2s0 .2-.1.2c-.1.1-.2.1-.3.1zm.3 4.2h-.5v-3.3h.5v3.3zM469.4 286.4c-.3.2-.6.2-.9.2-.5 0-.9-.2-1.2-.5s-.4-.7-.4-1.2.2-1 .5-1.3c.3-.3.8-.5 1.3-.5.3 0 .6.1.8.2v.5c-.3-.2-.5-.3-.8-.3-.3 0-.6.1-.9.4-.2.2-.3.6-.3 1s.1.7.3.9.5.3.8.3c.3 0 .6-.1.8-.3v.6zM473 286.6h-.5v-.5c-.2.4-.6.6-1 .6-.3 0-.6-.1-.8-.3s-.3-.4-.3-.7c0-.6.4-1 1.1-1.1l1-.1c0-.6-.2-.8-.7-.8-.4 0-.8.1-1.1.4v-.5c.3-.2.7-.3 1.2-.3.8 0 1.2.4 1.2 1.2v2.1zm-.5-1.7l-.8.1c-.3 0-.4.1-.6.2-.1.1-.2.2-.2.5 0 .2.1.3.2.4.1.1.3.2.5.2.3 0 .5-.1.7-.3s.3-.4.3-.7v-.4zM476.7 286.4c-.3.2-.6.2-.9.2-.5 0-.9-.2-1.2-.5s-.4-.7-.4-1.2.2-1 .5-1.3c.3-.3.8-.5 1.3-.5.3 0 .6.1.8.2v.5c-.3-.2-.5-.3-.8-.3-.3 0-.6.1-.9.4-.2.2-.3.6-.3 1s.1.7.3.9.5.3.8.3c.3 0 .6-.1.8-.3v.6zM478.2 282.4c-.1 0-.2 0-.3-.1-.1-.1-.1-.1-.1-.2s0-.2.1-.2c.1-.1.2-.1.3-.1.1 0 .2 0 .3.1.1.1.1.1.1.2s0 .2-.1.2c-.1.1-.2.1-.3.1zm.2 4.2h-.5v-3.3h.5v3.3zM481.3 286.7c-.5 0-.9-.2-1.2-.5-.3-.3-.5-.7-.5-1.2 0-.6.2-1 .5-1.3.3-.3.7-.5 1.3-.5.5 0 .9.2 1.2.5.3.3.4.7.4 1.3 0 .5-.2 1-.5 1.3s-.7.4-1.2.4zm.1-3.1c-.4 0-.6.1-.8.3s-.3.6-.3 1 .1.7.3.9c.2.2.5.3.8.3.4 0 .6-.1.8-.3s.3-.5.3-1c0-.4-.1-.7-.3-1-.2-.1-.5-.2-.8-.2zm.8-2l-.9 1.1h-.4l.7-1.1h.6zM487.1 286.6h-.5v-1.9c0-.7-.3-1.1-.8-1.1-.3 0-.5.1-.7.3s-.3.5-.3.8v1.9h-.5v-3.3h.5v.6c.3-.4.6-.6 1.1-.6.4 0 .7.1.9.4s.3.6.3 1v1.9zM408.8 291.6h-1.8v-.4h1.8v.4zM415.7 293.1c-.4.2-.8.3-1.3.3-.7 0-1.2-.2-1.6-.6-.4-.4-.6-1-.6-1.7s.2-1.4.7-1.8c.5-.5 1-.7 1.7-.7.5 0 .8.1 1.1.2v.6c-.3-.2-.7-.3-1.1-.3-.5 0-1 .2-1.3.5-.3.4-.5.8-.5 1.4 0 .6.2 1 .5 1.4.3.3.7.5 1.3.5.5 0 .9-.1 1.2-.3v.5zM417.5 293.3h-.5v-4.9h.5v4.9zM421.3 293.3h-.5v-.5c-.2.4-.6.6-1 .6-.3 0-.6-.1-.8-.3s-.3-.4-.3-.7c0-.6.4-1 1.1-1.1l1-.1c0-.6-.2-.8-.7-.8-.4 0-.8.1-1.1.4v-.5c.3-.2.7-.3 1.2-.3.8 0 1.2.4 1.2 1.2v2.1zm-.5-1.7l-.8.1c-.3 0-.4.1-.6.2-.1.1-.2.2-.2.5 0 .2.1.3.2.4.1.1.3.2.5.2.3 0 .5-.1.7-.3s.3-.4.3-.7v-.4zM422.5 293.1v-.6c.3.2.6.3 1 .3.5 0 .7-.2.7-.5 0-.1 0-.2-.1-.2l-.2-.2c-.1 0-.2-.1-.2-.1l-.3-.1c-.2-.1-.3-.1-.4-.2l-.3-.2-.2-.3s-.1-.2-.1-.3c0-.2 0-.3.1-.4l.3-.3.4-.2.5-.1c.3 0 .6.1.8.2v.5c-.3-.2-.5-.2-.9-.2h-.3c-.1 0-.2.1-.2.1l-.1.1v.4s.1.1.1.2l.2.1s.2.1.3.1c.2.1.3.1.4.2l.3.2.2.3.1.3c0 .2 0 .3-.1.4l-.3.3-.4.2s-.3.1-.5.1c-.2.1-.5.1-.8-.1zM426.2 289.1c-.1 0-.2 0-.3-.1-.1-.1-.1-.1-.1-.2s0-.2.1-.2c.1-.1.2-.1.3-.1.1 0 .2 0 .3.1.1.1.1.1.1.2s0 .2-.1.2l-.3.1zm.3 4.2h-.5v-3.3h.5v3.3zM429.6 288.8c-.1-.1-.2-.1-.4-.1-.4 0-.6.2-.6.7v.5h.8v.5h-.8v2.9h-.5v-2.9h-.6v-.5h.6v-.5c0-.3.1-.6.3-.8.2-.2.5-.3.8-.3.2 0 .3 0 .4.1v.4zM430.7 289.1c-.1 0-.2 0-.3-.1-.1-.1-.1-.1-.1-.2s0-.2.1-.2c.1-.1.2-.1.3-.1.1 0 .2 0 .3.1.1.1.1.1.1.2s0 .2-.1.2l-.3.1zm.3 4.2h-.5v-3.3h.5v3.3zM434.7 293.1c-.3.2-.6.2-.9.2-.5 0-.9-.2-1.2-.5s-.4-.7-.4-1.2.2-1 .5-1.3c.3-.3.8-.5 1.3-.5.3 0 .6.1.8.2v.5c-.3-.2-.5-.3-.8-.3-.3 0-.6.1-.9.4-.2.2-.3.6-.3 1s.1.7.3.9.5.3.8.3c.3 0 .6-.1.8-.3v.6zM438.4 293.3h-.5v-.5c-.2.4-.6.6-1 .6-.3 0-.6-.1-.8-.3s-.3-.4-.3-.7c0-.6.4-1 1.1-1.1l1-.1c0-.6-.2-.8-.7-.8-.4 0-.8.1-1.1.4v-.5c.3-.2.7-.3 1.2-.3.8 0 1.2.4 1.2 1.2v2.1zm-.6-1.7l-.8.1c-.3 0-.4.1-.6.2-.1.1-.2.2-.2.5 0 .2.1.3.2.4.1.1.3.2.5.2.3 0 .5-.1.7-.3s.3-.4.3-.7v-.4zM442 293.1c-.3.2-.6.2-.9.2-.5 0-.9-.2-1.2-.5s-.4-.7-.4-1.2.2-1 .5-1.3c.3-.3.8-.5 1.3-.5.3 0 .6.1.8.2v.5c-.3-.2-.5-.3-.8-.3-.3 0-.6.1-.9.4-.2.2-.3.6-.3 1s.1.7.3.9.5.3.8.3c.3 0 .6-.1.8-.3v.6zM443.5 289.1c-.1 0-.2 0-.3-.1-.1-.1-.1-.1-.1-.2s0-.2.1-.2c.1-.1.2-.1.3-.1.1 0 .2 0 .3.1.1.1.1.1.1.2s0 .2-.1.2l-.3.1zm.3 4.2h-.5v-3.3h.5v3.3zM446.6 293.3c-.5 0-.9-.2-1.2-.5-.3-.3-.5-.7-.5-1.2 0-.6.2-1 .5-1.3.3-.3.7-.5 1.3-.5.5 0 .9.2 1.2.5.3.3.4.7.4 1.3 0 .5-.2 1-.5 1.3s-.6.4-1.2.4zm.1-3c-.4 0-.6.1-.8.3s-.3.6-.3 1 .1.7.3.9c.2.2.5.3.8.3.4 0 .6-.1.8-.3s.3-.5.3-1c0-.4-.1-.7-.3-1-.2-.1-.5-.2-.8-.2zm.8-2.1l-.9 1.1h-.4l.7-1.1h.6zM452.4 293.3h-.5v-1.9c0-.7-.3-1.1-.8-1.1-.3 0-.5.1-.7.3s-.3.5-.3.8v1.9h-.5v-3.3h.5v.6c.3-.4.6-.6 1.1-.6.4 0 .7.1.9.4s.3.6.3 1v1.9zM456.5 292.8v2h-.5v-4.9h.5v.6c.3-.4.7-.7 1.2-.7.4 0 .8.1 1 .4.2.3.4.7.4 1.2 0 .6-.1 1-.4 1.3-.3.3-.7.5-1.1.5-.5.1-.8 0-1.1-.4zm0-1.4v.5c0 .3.1.5.3.7.2.2.4.3.7.3.3 0 .6-.1.8-.4.2-.2.3-.6.3-1s-.1-.7-.3-.9c-.2-.2-.4-.3-.7-.3-.3 0-.6.1-.8.3-.2.2-.3.5-.3.8zM461.7 293.3c-.5 0-.9-.2-1.2-.5-.3-.3-.5-.7-.5-1.2 0-.6.2-1 .5-1.3.3-.3.7-.5 1.3-.5.5 0 .9.2 1.2.5.3.3.4.7.4 1.3 0 .5-.2 1-.5 1.3s-.6.4-1.2.4zm.1-3c-.4 0-.6.1-.8.3s-.3.6-.3 1 .1.7.3.9c.2.2.5.3.8.3.4 0 .6-.1.8-.3s.3-.5.3-1c0-.4-.1-.7-.3-1-.2-.1-.5-.2-.8-.2zM466.4 290.5c-.1-.1-.2-.1-.4-.1s-.4.1-.6.3-.2.5-.2.9v1.7h-.5v-3.3h.5v.7c.1-.2.2-.4.4-.5.2-.1.3-.2.5-.2h.3v.5zM470.2 293.3h-.6v-4.7h.6v4.7zM475.5 293.3h-.6l-.5-1.3h-2l-.5 1.3h-.6l1.8-4.7h.6l1.8 4.7zm-1.3-1.8l-.8-2c0-.1 0-.2-.1-.3 0 .1 0 .2-.1.3l-.7 2h1.7z"/></g><path fill="#0c9" d="M195.9 363h-105.9c-5.9 0-10.6 4.8-10.6 10.6 0 5.9 4.8 10.6 10.6 10.6h105.9c5.9 0 10.6-4.8 10.6-10.6s-4.8-10.6-10.6-10.6z"/><path stroke="#D3D3D3" stroke-miterlimit="10" d="M130.9 305.6v26.1c0 4.4-3.6 8-8 8h-13.5c-4.4 0-8 3.6-8 8v11M155.1 305.6v26.1c0 4.4 3.6 8 8 8h13.5c4.4 0 8 3.6 8 8v11M143 305.6v53.1" fill="none"/><g fill="#fff"><path d="M110.3 378.6h-1.3l-1.6-2.6-.4-.6-.4-.4s-.3-.2-.5-.2l-.5-.1h-.9v3.9h-1.1v-9.1h2.8c.4 0 .8 0 1.1.1.3.1.6.3.9.5s.5.5.6.8c.1.3.2.7.2 1.1 0 .3 0 .6-.1.9s-.2.5-.4.7c-.2.2-.4.4-.6.5-.3.1-.5.3-.9.3.2.1.3.1.4.2l.3.3.3.4.3.5 1.8 2.8zm-5.6-8.1v3.3h1.5c.3 0 .5 0 .8-.1l.6-.3c.2-.2.3-.3.4-.6.1-.2.1-.5.1-.7 0-.5-.2-.9-.5-1.1-.3-.3-.8-.4-1.4-.4h-1.5zM117 375.6h-4.7c0 .7.2 1.3.6 1.7.4.4.9.6 1.6.6.7 0 1.4-.2 2.1-.7v1c-.6.4-1.4.6-2.3.6-.9 0-1.7-.3-2.2-.9-.5-.6-.8-1.4-.8-2.5 0-1 .3-1.8.9-2.5.6-.6 1.3-1 2.2-1s1.5.3 2 .8.7 1.3.7 2.3v.6zm-1.1-.9c0-.6-.2-1.1-.4-1.4-.3-.3-.7-.5-1.2-.5s-.9.2-1.3.5c-.4.4-.6.8-.6 1.4h3.5zM124.8 378.6h-1.1v-3.7c0-1.4-.5-2.1-1.5-2.1-.5 0-1 .2-1.3.6-.3.4-.5.9-.5 1.5v3.7h-1.1v-6.5h1.1v1.1c.5-.8 1.2-1.2 2.2-1.2.7 0 1.3.2 1.7.7.4.5.6 1.1.6 2v3.9zM133.1 378.6h-1.1v-1.1c-.5.8-1.3 1.3-2.3 1.3-.8 0-1.5-.3-2-.9s-.8-1.4-.8-2.4c0-1.1.3-1.9.8-2.6.6-.6 1.3-1 2.2-1 .9 0 1.6.4 2 1.1v-4h1.1v9.6zm-1-3v-1c0-.5-.2-1-.5-1.3-.4-.4-.8-.5-1.4-.5-.6 0-1.2.2-1.5.7s-.6 1.1-.6 1.9c0 .7.2 1.3.5 1.8s.8.7 1.4.7c.6 0 1.1-.2 1.4-.6.5-.5.7-1 .7-1.7zM136.5 370.4c-.2 0-.4-.1-.5-.2-.1-.1-.2-.3-.2-.5s.1-.4.2-.5c.1-.1.3-.2.5-.2s.4.1.5.2c.1.1.2.3.2.5s-.1.3-.2.5-.3.2-.5.2zm.5 8.2h-1v-6.5h1.1v6.5zM149.3 378.6h-1.1v-3.7c0-.7-.1-1.2-.3-1.6-.2-.3-.6-.5-1.1-.5-.5 0-.8.2-1.2.6-.3.4-.5.9-.5 1.5v3.7h-1.1v-3.9c0-1.3-.5-1.9-1.5-1.9-.5 0-.9.2-1.2.6-.3.4-.5.9-.5 1.5v3.7h-1.1v-6.5h1.1v1c.5-.8 1.2-1.2 2.1-1.2.5 0 .9.1 1.2.4.3.2.6.6.7 1 .5-.9 1.2-1.3 2.2-1.3 1.5 0 2.2.9 2.2 2.6v4zM152.5 370.4c-.2 0-.4-.1-.5-.2-.1-.1-.2-.3-.2-.5s.1-.4.2-.5c.1-.1.3-.2.5-.2s.4.1.5.2c.1.1.2.3.2.5s-.1.3-.2.5-.3.2-.5.2zm.5 8.2h-1v-6.5h1.1v6.5zM161.2 375.6h-4.7c0 .7.2 1.3.6 1.7.4.4.9.6 1.6.6.7 0 1.4-.2 2.1-.7v1c-.6.4-1.4.6-2.3.6-.9 0-1.7-.3-2.2-.9-.5-.6-.8-1.4-.8-2.5 0-1 .3-1.8.9-2.5.6-.6 1.3-1 2.2-1s1.5.3 2 .8.7 1.3.7 2.3v.6zm-1.1-.9c0-.6-.2-1.1-.4-1.4-.3-.3-.7-.5-1.2-.5s-.9.2-1.3.5c-.4.4-.6.8-.6 1.4h3.5zM169 378.6h-1.1v-3.7c0-1.4-.5-2.1-1.5-2.1-.5 0-1 .2-1.3.6-.3.4-.5.9-.5 1.5v3.7h-1.1v-6.5h1.1v1.1c.5-.8 1.2-1.2 2.2-1.2.7 0 1.3.2 1.7.7.4.5.6 1.1.6 2v3.9zM174.8 378.5c-.3.1-.6.2-1 .2-1.2 0-1.7-.6-1.7-1.9v-3.8h-1.1v-.9h1.1v-1.6l1.1-.3v1.9h1.7v.9h-1.7v3.7c0 .4.1.7.2.9s.4.3.8.3c.3 0 .5-.1.7-.2v.8zM179.6 378.7c-1 0-1.8-.3-2.4-.9-.6-.6-.9-1.4-.9-2.4 0-1.1.3-1.9.9-2.6.6-.6 1.4-.9 2.5-.9 1 0 1.8.3 2.3.9.6.6.8 1.4.8 2.5 0 1-.3 1.9-.9 2.5-.5.6-1.3.9-2.3.9zm.1-5.9c-.7 0-1.2.2-1.6.7s-.6 1.1-.6 1.9c0 .8.2 1.4.6 1.8.4.4.9.7 1.6.7.7 0 1.2-.2 1.6-.7.4-.4.6-1.1.6-1.9 0-.8-.2-1.4-.6-1.9s-.9-.6-1.6-.6z"/></g><path fill="#0c9" d="M103.4 358.7c0 1.1-.9 2-2 2s-2-.9-2-2 .9-2 2-2 2 .9 2 2zM145 358.7c0 1.1-.9 2-2 2s-2-.9-2-2 .9-2 2-2 2 .9 2 2zM186.5 358.7c0 1.1-.9 2-2 2s-2-.9-2-2 .9-2 2-2 2 .9 2 2z"/><path stroke="#D3D3D3" stroke-miterlimit="10" d="M428.9 305.6v26.1c0 4.4-3.6 8-8 8h-13.5c-4.4 0-8 3.6-8 8v11M453.1 305.6v26.1c0 4.4 3.6 8 8 8h13.5c4.4 0 8 3.6 8 8v11M441 305.6v53.1" fill="none"/><path fill="#6cc" d="M401.5 358.7c0 1.1-.9 2-2 2s-2-.9-2-2 .9-2 2-2 2 .9 2 2zM443.1 358.7c0 1.1-.9 2-2 2s-2-.9-2-2 .9-2 2-2 2 .9 2 2z"/><path stroke="#D3D3D3" stroke-miterlimit="10" d="M101.4 387.8v9.9c0 4.4 3.6 8 8 8h67.1c4.4 0 8-3.6 8-8v-9.9M143 387.8v66.3c0 4.4 3.6 8 8 8h49M482.6 387.8v9.9c0 4.4-3.6 8-8 8h-67.1c-4.4 0-8-3.6-8-8v-9.9M441 387.8v66.3c0 4.4-3.6 8-8 8h-49" fill="none"/><path fill="#09c" d="M358 441.3h-132c-11.5 0-20.8 9.3-20.8 20.8s9.3 20.8 20.8 20.8h132c11.5 0 20.8-9.3 20.8-20.8s-9.3-20.8-20.8-20.8z"/><g fill="#fff"><path d="M277.5 464.3c0 .6-.1 1.1-.3 1.6s-.4.9-.8 1.2-.8.6-1.3.7c-.5.2-1.1.3-1.7.3-.6 0-1.2-.1-1.7-.2s-.9-.4-1.2-.7c-.3-.3-.6-.7-.8-1.1-.2-.5-.3-1-.3-1.6v-5.8999999999999995s.1-.1.2-.1.2 0 .3-.1h1c.1 0 .2 0 .3.1l.2.1v5.699999999999999c0 .4 0 .7.1 1s.2.5.4.7c.2.2.4.3.6.4s.5.1.8.1c.3 0 .6 0 .8-.1.2-.1.5-.2.6-.4.2-.2.3-.4.4-.7.1-.3.1-.6.1-.9v-5.8s.1-.1.2-.1.2 0 .3-.1h1s.2 0 .3.1l.2.1v5.699999999999999zM284.2 466.9v.5c0 .1-.1.2-.1.2s-.1.1-.2.1-.2.1-.3.1c-.1 0-.2 0-.4.1h-.4c-.4 0-.7 0-1-.1-.3-.1-.5-.2-.7-.4-.2-.2-.3-.4-.4-.7-.1-.3-.1-.6-.1-1v-3.4h-.8c-.1 0-.2-.1-.2-.2-.1-.1-.1-.3-.1-.6v-.4s0-.2.1-.2c0-.1.1-.1.1-.1h.9v-1.6s.1-.1.2-.1.2 0 .3-.1h1c.1 0 .2 0 .3.1s.1.1.2.1v1.6h1.6l.1.1c0 .1 0 .1.1.2v.4c0 .3 0 .5-.1.6-.1.1-.1.2-.2.2h-1.5v3.1c0 .4.1.6.2.8.1.2.3.3.6.3h.3c.1 0 .2 0 .2-.1s.1 0 .2-.1h.2s0 .1.1.1v.2c-.2.1-.2.2-.2.3zM293 464.2c0 .6-.1 1.1-.2 1.5s-.4.9-.7 1.2-.7.6-1.2.8c-.5.2-1 .3-1.6.3-.6 0-1.1-.1-1.6-.2-.4-.2-.8-.4-1.1-.7-.3-.3-.5-.7-.6-1.1-.1-.5-.2-1-.2-1.5 0-.6.1-1.1.2-1.5.2-.5.4-.9.7-1.2.3-.3.7-.6 1.1-.8.5-.2 1-.3 1.6-.3.6 0 1.1.1 1.6.2.4.2.8.4 1.1.7.3.3.5.7.6 1.1.2.4.3.9.3 1.5zm-1.9.1c0-.3 0-.6-.1-.9-.1-.3-.1-.5-.3-.7-.1-.2-.3-.4-.5-.5-.2-.1-.5-.2-.8-.2-.3 0-.5.1-.7.2s-.4.2-.5.4c-.1.2-.2.4-.3.7-.1.3-.1.6-.1.9 0 .3 0 .6.1.9.1.3.1.5.3.7s.3.4.5.5.5.2.8.2c.3 0 .5-.1.7-.2s.4-.2.5-.4c.1-.2.2-.4.3-.7s.1-.6.1-.9zM302 464.2c0 .6-.1 1.1-.2 1.6s-.3.9-.6 1.2-.6.6-.9.8c-.4.2-.8.3-1.3.3-.2 0-.4 0-.5-.1-.2 0-.3-.1-.5-.2s-.3-.2-.5-.3c-.2-.1-.3-.2-.5-.4v3.2s-.1.1-.2.1-.2 0-.3.1h-1c-.1 0-.2 0-.3-.1l-.2-.1v-9.399999999999999l.1-.1c.1 0 .1 0 .2-.1h.8c.1 0 .2 0 .2.1.1 0 .1.1.1.1v.9c.2-.2.4-.4.6-.5l.6-.4c.2-.1.4-.2.6-.2.2 0 .4-.1.7-.1.5 0 .9.1 1.3.3.3.2.6.4.8.8s.4.7.5 1.1c.5.4.5.9.5 1.4zm-1.9.1c0-.3 0-.5-.1-.8 0-.3-.1-.5-.2-.7-.1-.2-.2-.4-.4-.5-.2-.1-.4-.2-.6-.2-.1 0-.3 0-.4.1-.1 0-.2.1-.4.2l-.4.3c-.1.1-.3.3-.4.5v2.2c.3.3.5.6.8.8.2.2.5.3.8.3.2 0 .5-.1.6-.2.2-.1.3-.3.4-.5.1-.2.2-.4.2-.7l.1-.8zM306.4 458.8c0 .4-.1.6-.2.8-.2.1-.4.2-.9.2-.4 0-.7-.1-.9-.2-.1-.1-.2-.4-.2-.7 0-.4.1-.6.2-.8.2-.1.4-.2.9-.2.4 0 .7.1.9.2.1.1.2.3.2.7zm-.2 8.8v.1s-.1.1-.2.1-.2 0-.3.1h-1c-.1 0-.2 0-.3-.1s-.1-.1-.2-.1v-6.799999999999999s.1-.1.2-.1.2 0 .3-.1h1c.1 0 .2 0 .3.1l.2.1v6.699999999999999zM314.6 467.6c0 .1 0 .1-.1.2 0 0-.1.1-.2.1h-1c-.1 0-.2 0-.2-.1 0 0-.1-.1-.1-.2v-.5c-.3.3-.6.5-.9.7-.4.2-.7.2-1.2.2-.4 0-.7 0-1-.1s-.6-.2-.8-.4-.4-.4-.5-.7c-.1-.3-.2-.6-.2-.9 0-.4.1-.7.2-1s.4-.5.7-.7c.3-.2.7-.3 1.1-.4.5-.1 1-.1 1.6-.1h.7v-.4c0-.2 0-.4-.1-.5 0-.2-.1-.3-.2-.4-.1-.1-.2-.2-.4-.2l-.6-.1c-.3 0-.6 0-.8.1l-.7.2c-.2.1-.4.2-.5.2-.1.1-.2.1-.3.1-.1 0-.1 0-.1-.1l-.1-.1c0-.1 0-.1-.1-.2v-.7c0-.1.1-.2.1-.2s.2-.2.4-.2.4-.2.6-.2c.2-.1.5-.1.8-.2l.9-.1c.5 0 1 0 1.4.2s.7.3.9.5.4.5.5.8.2.7.2 1.2v4.2zm-1.8-2.8h-.8c-.3 0-.6 0-.8.1-.2 0-.4.1-.5.2l-.3.3c-.1.1-.1.3-.1.4 0 .3.1.5.3.6.2.2.4.2.7.2.3 0 .5-.1.7-.2s.5-.3.7-.6v-1z"/></g><path fill="#0c9" d="M146.1 405.6c0 1.7-1.4 3.1-3.1 3.1-1.7 0-3.1-1.4-3.1-3.1 0-1.7 1.4-3.1 3.1-3.1 1.7 0 3.1 1.4 3.1 3.1z"/><path fill="#c6c" d="M295.1 405.6c0 1.7-1.4 3.1-3.1 3.1-1.7 0-3.1-1.4-3.1-3.1 0-1.7 1.4-3.1 3.1-3.1 1.7 0 3.1 1.4 3.1 3.1z"/><path fill="#6cc" d="M444.2 405.6c0 1.7-1.4 3.1-3.1 3.1-1.7 0-3.1-1.4-3.1-3.1 0-1.7 1.4-3.1 3.1-3.1 1.7 0 3.1 1.4 3.1 3.1z"/></g></svg>