<svg xmlns="http://www.w3.org/2000/svg" viewBox="0 0 425.2 406.2"><style>.st0{fill:#6cc}.st1{fill:#fff}.st2{fill:#09c}.st3{fill:none;stroke:#d3d3d3;stroke-miterlimit:10}.st4{fill:#c6c}.st5{opacity:.6}.st6{fill:#5d5d5d}.st7{fill:#0c9}</style><path class="st0" d="M407.2 280c0 1.1-.9 2-2 2s-2-.9-2-2 .9-2 2-2 2 .9 2 2zm9.4 4.3H310.7c-5.9 0-10.6 4.8-10.6 10.6 0 5.9 4.8 10.6 10.6 10.6h105.9c5.9 0 10.6-4.8 10.6-10.6s-4.8-10.6-10.6-10.6z"/><path class="st1" d="M330 299.9v-9.1h2.6c3.3 0 4.9 1.5 4.9 4.4 0 1.4-.5 2.5-1.4 3.4-.9.9-2.1 1.3-3.7 1.3H330zm1.1-8.1v7.2h1.4c1.2 0 2.2-.3 2.9-1 .7-.6 1-1.5 1-2.7 0-2.3-1.3-3.5-3.8-3.5h-1.5zm9.3-.1c-.2 0-.4-.1-.5-.2-.1-.1-.2-.3-.2-.5s.1-.4.2-.5c.1-.1.3-.2.5-.2s.4.1.5.2c.1.1.2.3.2.5s-.1.3-.2.5-.3.2-.5.2zm.5 8.2h-1.1v-6.5h1.1v6.5zm8.4 0h-1.1v-3.7c0-1.4-.5-2.1-1.5-2.1-.5 0-1 .2-1.3.6-.3.4-.5.9-.5 1.5v3.7h-1.1v-6.5h1.1v1.1c.5-.8 1.2-1.2 2.2-1.2.7 0 1.3.2 1.7.7.4.5.6 1.1.6 2v3.9h-.1zm7.4 0h-1.1v-1c-.5.8-1.1 1.2-2 1.2-.7 0-1.2-.2-1.6-.5s-.6-.8-.6-1.4c0-1.2.7-1.9 2.2-2.1l2-.3c0-1.1-.5-1.7-1.4-1.7-.8 0-1.5.3-2.2.8v-1.1c.7-.4 1.4-.6 2.3-.6 1.6 0 2.3.8 2.3 2.4v4.3h.1zm-1.1-3.3l-1.6.2c-.5.1-.9.2-1.1.4-.3.2-.4.5-.4.9 0 .3.1.6.3.8.2.2.5.3.9.3.5 0 1-.2 1.3-.5.3-.4.5-.8.5-1.4v-.7h.1zm13.2 3.3h-1.1v-3.7c0-.7-.1-1.2-.3-1.6-.2-.3-.6-.5-1.1-.5s-.8.2-1.2.6c-.3.4-.5.9-.5 1.5v3.7h-1V296c0-1.3-.5-1.9-1.5-1.9-.5 0-.9.2-1.2.6-.3.4-.5.9-.5 1.5v3.7h-1.1v-6.5h1.1v1c.5-.8 1.2-1.2 2.1-1.2.5 0 .9.1 1.2.4.3.2.6.6.7 1 .5-.9 1.2-1.3 2.2-1.3 1.5 0 2.2.9 2.2 2.6v4zm3.2-8.2c-.2 0-.4-.1-.5-.2-.1-.1-.2-.3-.2-.5s.1-.4.2-.5c.1-.1.3-.2.5-.2s.4.1.5.2c.1.1.2.3.2.5s-.1.3-.2.5-.3.2-.5.2zm.6 8.2h-1.1v-6.5h1.1v6.5zm2.4-.2v-1.1c.6.4 1.2.6 1.9.6.9 0 1.4-.3 1.4-.9 0-.2 0-.3-.1-.4l-.3-.3c-.1-.1-.3-.2-.5-.3-.2-.1-.4-.2-.6-.2-.3-.1-.6-.2-.8-.3-.2-.1-.4-.2-.6-.4-.1-.1-.3-.3-.3-.5-.1-.2-.1-.4-.1-.7 0-.3.1-.6.2-.8s.3-.4.6-.6c.2-.2.5-.3.8-.4.3-.1.6-.1.9-.1.6 0 1.1.1 1.5.3v1.1c-.5-.3-1.1-.5-1.7-.5-.2 0-.4 0-.5.1-.2 0-.3.1-.4.2l-.3.3s-.1.2-.1.4 0 .3.1.4l.3.3c.1.1.3.2.4.2l.6.2c.3.1.6.2.8.3s.4.2.6.4c.2.1.3.3.4.5s.1.4.1.7-.1.6-.2.8c-.1.2-.3.4-.6.6-.2.2-.5.3-.8.3-.3.1-.6.1-1 .1-.6 0-1.2-.1-1.7-.3zm16.1.2H390v-3.7c0-.7-.1-1.2-.3-1.6-.2-.3-.6-.5-1.1-.5s-.8.2-1.2.6c-.3.4-.5.9-.5 1.5v3.7h-1.1V296c0-1.3-.5-1.9-1.5-1.9-.5 0-.9.2-1.2.6-.3.4-.5.9-.5 1.5v3.7h-1.1v-6.5h1.1v1c.5-.8 1.2-1.2 2.1-1.2.5 0 .9.1 1.2.4.3.2.6.6.7 1 .5-.9 1.2-1.3 2.2-1.3 1.5 0 2.2.9 2.2 2.6l.1 4zm5.5.1c-1 0-1.8-.3-2.4-.9-.6-.6-.9-1.4-.9-2.4 0-1.1.3-1.9.9-2.6.6-.6 1.4-.9 2.5-.9 1 0 1.8.3 2.3.9.6.6.8 1.4.8 2.5 0 1-.3 1.9-.9 2.5-.5.6-1.3.9-2.3.9zm.1-5.9c-.7 0-1.2.2-1.6.7s-.6 1.1-.6 1.9.2 1.4.6 1.8c.4.4.9.7 1.6.7s1.2-.2 1.6-.7c.4-.4.6-1.1.6-1.9s-.2-1.4-.6-1.9-1-.6-1.6-.6z"/><path class="st2" d="M337.1 5.3H155.4c-13.9 0-25.1 11.2-25.1 25.1s11.3 25.1 25.1 25.1h181.7c13.9 0 25.1-11.2 25.1-25.1.1-13.9-11.2-25.1-25.1-25.1zM123.7 30.4c0 15.7-12.7 28.4-28.4 28.4S66.9 46.1 66.9 30.4 79.6 2 95.3 2s28.4 12.7 28.4 28.4z"/><path class="st1" d="M112.6 26.3l-2.3-2c-1.5-1.3-3.3-2.3-5.5-3.1l-.3-.1-.1-.3c-.8-2.2-1.9-4-3.1-5.5l-2-2.3 2.7 1.2c4.2 1.8 7.5 5.2 9.3 9.3l1.3 2.8zm-7-6.2c1.1.4 2.2.9 3.2 1.5-1.2-1.9-2.8-3.5-4.7-4.7.6 1 1.1 2 1.5 3.2zM91.2 47.7l-2.7-1.2c-4.2-1.8-7.5-5.2-9.3-9.3L78 34.5l2.3 2c1.4 1.3 3.3 2.3 5.5 3.1l.3.1.1.3c.8 2.2 1.9 4 3.1 5.5l1.9 2.2zm-9.4-8.5c1.2 1.9 2.8 3.5 4.7 4.7-.6-1-1.1-2-1.5-3.2-1.2-.4-2.2-.9-3.2-1.5zM78 26.3l1.2-2.7c1.8-4.2 5.2-7.5 9.3-9.3l2.7-1.2-1.9 2.3c-1.2 1.4-2.3 3.3-3.1 5.5l-.1.3-.3.1c-2.2.8-4 1.9-5.5 3.1L78 26.3zm8.5-9.4c-1.9 1.2-3.5 2.8-4.7 4.7 1-.6 2-1.1 3.2-1.5.4-1.2.9-2.2 1.5-3.2zm12.9 30.8l2-2.3c1.2-1.4 2.3-3.3 3.1-5.5l.1-.3.3-.1c2.1-.8 4-1.9 5.5-3.1l2.3-2-1.2 2.7c-1.8 4.2-5.2 7.5-9.3 9.3l-2.8 1.3zm6.2-7c-.4 1.1-.9 2.2-1.5 3.2 1.9-1.2 3.5-2.8 4.7-4.7-1 .6-2 1.1-3.2 1.5zm.7-18.9l-1.4-.5c-1.9-.7-3.9-1.2-6.1-1.4l-.5-.1-.1-.5c-.4-2.2-.9-4-1.5-5.3l-.5-1.1 1.2.1c1.7.2 3.3.6 4.8 1.3l.1.1.1.1c1.4 1.6 2.5 3.6 3.4 5.9l.5 1.4zm-6.9-3.3c1.6.2 3.1.5 4.5.9-.7-1.5-1.5-2.9-2.5-4-1-.4-2-.7-3.1-.9.5 1.2.8 2.5 1.1 4zm-15.1 3.3l.5-1.4c.9-2.3 2-4.3 3.4-5.9l.1-.1.1-.1c1.4-.6 2.8-1 4.3-1.2l1.3-.2-.5 1.2c-.6 1.3-1.1 3.1-1.5 5.3l-.1.5-.5.1c-2 .3-3.9.7-5.6 1.4l-1.5.4zm4.9-6.3c-.9 1.1-1.8 2.5-2.4 4 1.3-.4 2.6-.7 4-.9.3-1.5.6-2.8 1-3.9-1 .2-1.8.4-2.6.8zM94 47.9l-1.3-.2c-1.5-.2-2.9-.6-4.3-1.2l-.1-.1-.1-.1c-1.4-1.6-2.5-3.6-3.4-5.9l-.5-1.4 1.4.5c1.7.6 3.6 1.1 5.6 1.4l.5.1.1.5c.4 2.2.9 4 1.5 5.3l.6 1.1zm-4.8-2.6c.8.3 1.7.6 2.5.8-.4-1.1-.7-2.4-1-3.9-1.4-.2-2.7-.5-4-.9.7 1.6 1.5 2.9 2.5 4zm6.9 2.6l.5-1.1c.6-1.3 1.1-3.1 1.5-5.3l.1-.5.5-.1c2.2-.3 4.2-.7 6.1-1.4l1.4-.5-.5 1.4c-.9 2.3-2 4.3-3.4 5.9l-.1.1-.1.1c-1.5.6-3.1 1.1-4.8 1.3l-1.2.1zm3.3-5.6c-.3 1.5-.7 2.9-1.1 4 1.1-.2 2.1-.5 3.1-.9.9-1.1 1.8-2.5 2.5-4-1.4.4-2.9.7-4.5.9zm-4.1 5.6c-.8 0-1.7-.1-2.6-.2l-.4-.1-.2-.3c-.6-1.4-1.2-3.3-1.6-5.6l-.2-.9.9.1c2.4.3 4.9.3 7.4.1l.9-.1-.2.9c-.4 2.3-1 4.2-1.6 5.6l-.2.3h-.4c-.4.2-1.1.2-1.8.2zm-2-1.5c1.2.1 2.3.2 3.5.1.4-1 .9-2.4 1.2-4-1.9.2-3.9.2-5.9 0 .4 1.5.8 2.9 1.2 3.9zM90.4 20l.2-.9c.4-2.3 1-4.2 1.6-5.6l.2-.3.4-.1c1.5-.2 3-.3 4.6-.1h.4l.2.3c.6 1.4 1.2 3.3 1.6 5.6l.2.9-.9-.1c-2.5-.3-5-.3-7.4.1l-1.1.2zm2.9-5.6c-.4 1-.8 2.4-1.2 4 1.9-.2 3.9-.2 5.8 0-.3-1.6-.7-3-1.2-4-1.1-.2-2.2-.2-3.4 0zM77.8 29.1l.2-1.3c.2-1.5.6-2.9 1.2-4.3l.1-.1.1-.1c1.6-1.4 3.6-2.5 5.9-3.4l1.4-.5-.5 1.4c-.6 1.7-1.1 3.6-1.4 5.6l-.1.5-.5.1c-2.2.4-4 .9-5.3 1.5l-1.1.6zm2.6-4.8c-.3.8-.6 1.7-.8 2.6 1.1-.4 2.4-.7 3.9-1 .2-1.4.5-2.7.9-4-1.6.6-2.9 1.4-4 2.4zm6.3 17.1l-1.4-.5c-2.3-.9-4.3-2-5.9-3.4l-.1-.1-.1-.1c-.6-1.5-1.1-3.1-1.3-4.8l-.1-1.2 1.1.5c1.3.6 3.1 1.1 5.3 1.5l.5.1.1.5c.2 2.2.7 4.2 1.4 6.1l.5 1.4zm-6.3-4.9c1.1.9 2.5 1.8 4 2.5-.4-1.4-.7-2.9-.9-4.5-1.5-.3-2.9-.7-4-1.1.2 1.1.5 2.1.9 3.1zm23.5 4.9l.5-1.4c.7-1.9 1.2-3.9 1.4-6.1l.1-.5.5-.1c2.2-.4 4-.9 5.3-1.5l1.1-.5-.1 1.2c-.2 1.7-.6 3.3-1.3 4.8l-.1.1-.1.1c-1.6 1.4-3.6 2.5-5.9 3.4l-1.4.5zm3.3-6.9c-.2 1.6-.5 3.1-.9 4.5 1.5-.7 2.9-1.5 4-2.5.4-1 .7-2 .9-3.1-1.2.5-2.5.8-4 1.1zm5.6-5.4l-1.2-.5c-1.3-.6-3.1-1.1-5.3-1.5l-.5-.1-.1-.5c-.3-2-.7-3.9-1.4-5.6l-.5-1.4 1.4.5c2.3.9 4.3 2 5.9 3.4l.1.1.1.1c.6 1.4 1 2.8 1.2 4.3l.3 1.2zm-5.7-3.3c1.5.3 2.8.6 3.9 1-.2-.9-.5-1.7-.8-2.6-1.1-.9-2.5-1.8-4-2.5.4 1.4.7 2.7.9 4.1zM98 42.4l.2-.9c.4-2 .6-4.3.8-6.8v-.6h.6c2.5-.1 4.8-.4 6.8-.8l.9-.2-.1.9c-.3 2.3-.8 4.4-1.5 6.4l-.1.3-.3.1c-2 .7-4.1 1.2-6.4 1.5l-.9.1zm2.3-7c-.1 1.9-.3 3.8-.6 5.5 1.7-.3 3.4-.7 4.9-1.2.5-1.5.9-3.2 1.2-4.9-1.7.2-3.6.5-5.5.6zm-17-8.2l.1-.9c.3-2.1.8-4.1 1.4-5.9l.1-.3.3-.1c1.8-.7 3.8-1.2 5.9-1.4l.9-.1-.2.9c-.3 1.9-.6 4-.8 6.3v.6h-.6c-2.3.1-4.4.4-6.3.8l-.8.1zm2.7-6.1c-.5 1.4-.9 2.8-1.1 4.4 1.5-.2 3.2-.4 4.9-.6.1-1.8.3-3.4.6-4.9-1.5.3-3 .6-4.4 1.1zm21.3 6.1l-.9-.2c-2.1-.4-4.3-.6-6.8-.8H99v-.6c-.2-2.3-.4-4.4-.8-6.4l-.2-.9.9.1c2.3.3 4.4.8 6.4 1.5l.3.1.1.3c.7 1.8 1.2 3.8 1.4 5.9l.2 1zm-7-2.3c1.9.1 3.7.3 5.4.6-.3-1.5-.6-3-1.1-4.4-1.5-.5-3.2-.9-4.9-1.2.2 1.6.4 3.3.6 5zm-8.2 17.5l-.9-.1c-2.1-.3-4.1-.8-5.9-1.4l-.3-.1-.1-.3c-.7-2-1.2-4.1-1.5-6.4l-.1-.9.9.2c1.9.4 4.1.6 6.4.8h.6v.6c.1 2.5.4 4.8.8 6.8l.1.8zM86 39.7c1.4.5 2.8.9 4.4 1.1-.3-1.7-.5-3.5-.6-5.4-1.8-.1-3.4-.3-5-.6.3 1.7.7 3.3 1.2 4.9zm3.8-13.4l.1-.8c.2-2.3.4-4.5.8-6.5l.1-.5.5-.1c2.5-.3 5.2-.4 7.7-.1l.5.1.1.5c.4 2 .6 4.2.8 6.5l.1.8h-.8c-2.9-.2-6-.2-9 0l-.9.1zm2.1-6.5c-.3 1.5-.5 3.2-.6 5 2.5-.1 5.1-.1 7.6 0-.1-1.8-.3-3.5-.6-5.1-2.2-.1-4.3-.1-6.4.1zm3.4 22.7c-1.4 0-2.8-.1-4.1-.3l-.5-.1-.1-.5c-.4-2.1-.7-4.4-.8-7v-.8h.8c2.9.2 6 .2 9.1 0h.8v.8c-.1 2.5-.4 4.9-.8 7l-.1.5-.5.1c-1.4.3-2.6.3-3.8.3zM91.9 41c2.1.2 4.3.3 6.4.1.3-1.7.5-3.6.6-5.6-2.6.1-5.2.1-7.7 0 .2 1.9.4 3.8.7 5.5zm-7.1-6.2l-.9-.2c-2.3-.4-4.3-1-5.6-1.6l-.3-.2v-.4c-.1-.7-.1-1.4-.1-2 0-.9.1-1.7.2-2.6l.1-.4.3-.2c1.4-.6 3.3-1.2 5.6-1.6l.9-.2-.1.9c-.2 1.3-.3 2.6-.3 3.9 0 1.1.1 2.3.2 3.5v1.1zm-5.6-2.9c1.1.4 2.4.9 4 1.2-.1-.9-.1-1.8-.1-2.7 0-1.1.1-2.1.2-3.2-1.6.3-3 .7-4 1.2-.1.7-.1 1.3-.1 2v1.5zm26.6 2.9l.1-.9c.1-1.2.2-2.3.2-3.5 0-1.3-.1-2.6-.3-3.9l-.1-.9.9.2c2.3.4 4.2 1 5.6 1.6l.3.2.1.4c.1.8.2 1.7.2 2.6 0 .7 0 1.3-.1 2v.4l-.3.2c-1.4.6-3.3 1.2-5.6 1.6h-1zm1.5-7.6c.1 1.1.2 2.1.2 3.2 0 .9 0 1.8-.1 2.7 1.6-.3 3-.7 4-1.2l.1-1.5c0-.7 0-1.3-.1-2-1.1-.4-2.5-.8-4.1-1.2zm-16.1 8.2l-.8-.1c-2.4-.2-4.5-.4-6.5-.8l-.5-.1-.1-.5c-.1-1.2-.2-2.4-.2-3.6 0-1.4.1-2.8.3-4.1l.1-.5.5-.1c2-.4 4.1-.6 6.5-.8l.8-.1-.1.8c-.1 1.5-.1 3.1-.1 4.7 0 1.4 0 2.9.1 4.3v.9zm-6.5-2.1c1.6.3 3.3.5 5.1.6-.1-1.2-.1-2.4-.1-3.6 0-1.4 0-2.7.1-4-1.8.1-3.5.3-5 .6-.1 1.1-.2 2.3-.2 3.4-.1 1.1 0 2.1.1 3zm14.2 2.2v-.8c.1-1.4.1-2.9.1-4.3 0-1.6-.1-3.2-.2-4.8l-.1-.8h.8c2.5.1 4.9.4 7 .8l.5.1.1.5c.2 1.4.3 2.7.3 4.1 0 1.2-.1 2.4-.2 3.6l-.1.5-.5.1c-2.1.4-4.5.7-7 .8l-.7.2zm1.5-9.2c.1 1.3.1 2.7.1 4.1 0 1.2 0 2.4-.1 3.6 2-.1 3.9-.4 5.6-.6.1-1 .1-2 .1-3 0-1.1-.1-2.3-.2-3.4-1.7-.3-3.6-.6-5.5-.7zm-5.1 9.2c-1.6 0-3.3-.1-4.9-.2h-.6v-.6c-.1-1.4-.1-2.9-.1-4.3 0-1.7 0-3.3.2-4.8V25h.6c3-.2 6.2-.2 9.2 0h.6v.6c.1 1.6.2 3.2.2 4.9 0 1.4 0 2.9-.1 4.4v.6h-5.1zM91.1 34c2.5.1 5.2.2 7.8 0 .1-1.2.1-2.5.1-3.7 0-1.4 0-2.8-.1-4.2-2.6-.1-5.2-.1-7.8 0-.1 1.3-.1 2.7-.1 4.1.1 1.4.1 2.6.1 3.8zM210 34v5.4h-1.7V25h4.1c1.6 0 2.8.4 3.7 1.1.9.8 1.3 1.8 1.3 3.2s-.5 2.5-1.4 3.4c-1 .9-2.3 1.3-3.9 1.3H210zm0-7.4v5.9h1.8c1.2 0 2.1-.3 2.7-.8s.9-1.3.9-2.3c0-1.9-1.2-2.9-3.5-2.9H210v.1zm16.4 4.2c-.3-.2-.7-.3-1.3-.3-.7 0-1.3.3-1.8 1s-.7 1.6-.7 2.7v5.2h-1.7V29.1h1.7v2.1c.2-.7.6-1.3 1.1-1.7.5-.4 1-.6 1.7-.6.4 0 .8 0 1 .1v1.8zm7.3 8.9c-1.6 0-2.8-.5-3.7-1.4-.9-1-1.4-2.2-1.4-3.8 0-1.7.5-3.1 1.5-4.1s2.3-1.5 3.9-1.5 2.8.5 3.7 1.4c.9.9 1.3 2.3 1.3 3.9s-.5 3-1.4 3.9c-1 1.1-2.3 1.6-3.9 1.6zm.1-9.4c-1.1 0-1.9.4-2.6 1.1-.6.7-.9 1.7-.9 3 0 1.2.3 2.2 1 2.9.6.7 1.5 1.1 2.6 1.1s1.9-.3 2.5-1 .9-1.7.9-2.9c0-1.3-.3-2.3-.9-3s-1.5-1.2-2.6-1.2zm16.1 8.7c-.8.5-1.8.7-2.9.7-1.5 0-2.7-.5-3.6-1.4s-1.4-2.2-1.4-3.7c0-1.7.5-3.1 1.5-4.1s2.3-1.5 4-1.5c.9 0 1.7.2 2.4.5v1.7c-.8-.5-1.6-.8-2.5-.8-1.1 0-2 .4-2.6 1.1-.7.8-1 1.7-1 3 0 1.2.3 2.2 1 2.9s1.5 1 2.6 1c.9 0 1.8-.3 2.6-.9V39h-.1zm12-4.3h-7.4c0 1.1.3 2 .9 2.7.6.6 1.4.9 2.5.9 1.2 0 2.3-.4 3.3-1.1v1.5c-.9.7-2.1 1-3.7 1-1.5 0-2.7-.5-3.5-1.4-.9-.9-1.3-2.3-1.3-3.9s.5-2.9 1.4-3.9 2.1-1.5 3.5-1.5 2.4.4 3.2 1.3 1.1 2.1 1.1 3.6v.8zm-1.7-1.4c0-1-.2-1.7-.7-2.2s-1.1-.8-1.9-.8-1.5.3-2 .8c-.6.6-.9 1.3-1 2.2h5.6zm4.7 5.8v-1.8c.9.7 1.9 1 3 1 1.5 0 2.2-.5 2.2-1.4 0-.3-.1-.5-.2-.7s-.3-.4-.5-.5-.5-.3-.8-.4-.6-.2-.9-.4c-.5-.2-.9-.4-1.2-.5-.4-.2-.6-.4-.9-.6s-.4-.5-.5-.8-.2-.6-.2-1c0-.5.1-.9.3-1.3.2-.4.5-.7.9-.9s.8-.4 1.3-.6c.5-.1 1-.2 1.5-.2.9 0 1.7.2 2.4.5v1.7c-.8-.5-1.7-.7-2.7-.7-.3 0-.6 0-.9.1s-.5.2-.7.3c-.2.1-.3.3-.4.5s-.1.4-.1.6c0 .3 0 .5.1.7s.2.3.4.5c.2.1.4.3.7.4.3.1.6.2.9.4.5.2.9.4 1.3.5.4.2.7.4.9.6.3.2.5.5.6.8s.2.7.2 1.1c0 .5-.1 1-.3 1.3-.2.4-.5.7-.9.9s-.8.4-1.3.6c-.5.1-1 .2-1.6.2-.9-.3-1.8-.5-2.6-.9zm15 .6c-1.6 0-2.8-.5-3.7-1.4-.9-1-1.4-2.2-1.4-3.8 0-1.7.5-3.1 1.5-4.1s2.3-1.5 3.9-1.5 2.8.5 3.7 1.4c.9.9 1.3 2.3 1.3 3.9s-.5 3-1.4 3.9c-1 1.1-2.3 1.6-3.9 1.6zm.2-9.4c-1.1 0-1.9.4-2.6 1.1-.6.7-.9 1.7-.9 3 0 1.2.3 2.2 1 2.9.6.7 1.5 1.1 2.6 1.1s1.9-.3 2.5-1 .9-1.7.9-2.9c0-1.3-.3-2.3-.9-3s-1.6-1.2-2.6-1.2z"/><path class="st3" d="M180.9 62.4v14c0 6.6-5.4 12-12 12H77.6c-6.6 0-12 5.3-12 11.8V112m182.7-49.6v14c0 6.6 5.4 12 12 12h91.3c6.6 0 12 5.3 12 11.8V112"/><path class="st4" d="M267.5 284.3H161.7c-5.9 0-10.6 4.8-10.6 10.6 0 5.9 4.8 10.6 10.6 10.6h105.9c5.9 0 10.6-4.8 10.6-10.6-.1-5.8-4.8-10.6-10.7-10.6z"/><path class="st1" d="M190.5 299.5c-.7.4-1.5.5-2.6.5-1.3 0-2.4-.4-3.2-1.3-.8-.8-1.2-1.9-1.2-3.3 0-1.5.4-2.6 1.3-3.5.9-.9 2-1.3 3.4-1.3.9 0 1.6.1 2.2.4v1.1c-.7-.4-1.4-.5-2.2-.5-1.1 0-1.9.3-2.6 1s-1 1.6-1 2.8c0 1.1.3 2 .9 2.7s1.4 1 2.4 1c.9 0 1.7-.2 2.4-.6v1h.2zm5.2.5c-1 0-1.8-.3-2.4-.9-.6-.6-.9-1.4-.9-2.4 0-1.1.3-1.9.9-2.6.6-.6 1.4-.9 2.5-.9 1 0 1.8.3 2.3.9.6.6.8 1.4.8 2.5 0 1-.3 1.9-.9 2.5-.5.6-1.3.9-2.3.9zm.1-5.9c-.7 0-1.2.2-1.6.7s-.6 1.1-.6 1.9.2 1.4.6 1.8c.4.4.9.7 1.6.7s1.2-.2 1.6-.7c.4-.4.6-1.1.6-1.9s-.2-1.4-.6-1.9-.9-.6-1.6-.6zm11.1 5.8h-1.1v-3.7c0-1.4-.5-2.1-1.5-2.1-.5 0-1 .2-1.3.6-.3.4-.5.9-.5 1.5v3.7h-1.1v-6.5h1.1v1.1c.5-.8 1.2-1.2 2.2-1.2.7 0 1.3.2 1.7.7.4.5.6 1.1.6 2v3.9h-.1zm5.9-8.7c-.2-.1-.4-.2-.7-.2-.7 0-1.1.5-1.1 1.4v1h1.6v.9H211v5.6h-1.1v-5.6h-1.1v-.9h1.1v-1.1c0-.7.2-1.2.6-1.6.4-.4.9-.6 1.5-.6.3 0 .6 0 .8.1v1zm2.1.5c-.2 0-.4-.1-.5-.2-.1-.1-.2-.3-.2-.5s.1-.4.2-.5c.1-.1.3-.2.5-.2s.4.1.5.2c.1.1.2.3.2.5s-.1.3-.2.5-.3.2-.5.2zm.6 8.2h-1.1v-6.5h1.1v6.5zm7.5 0h-1.1v-1c-.5.8-1.1 1.2-2 1.2-.7 0-1.2-.2-1.6-.5s-.6-.8-.6-1.4c0-1.2.7-1.9 2.2-2.1l2-.3c0-1.1-.5-1.7-1.4-1.7-.8 0-1.5.3-2.2.8v-1.1c.7-.4 1.4-.6 2.3-.6 1.6 0 2.3.8 2.3 2.4v4.3h.1zm-1-3.3l-1.6.2c-.5.1-.9.2-1.1.4-.3.2-.4.5-.4.9 0 .3.1.6.3.8.2.2.5.3.9.3.5 0 1-.2 1.3-.5.3-.4.5-.8.5-1.4v-.7h.1zm9.2 3.3h-1.1v-3.7c0-1.4-.5-2.1-1.5-2.1-.5 0-1 .2-1.3.6-.3.4-.5.9-.5 1.5v3.7h-1.1v-6.5h1.1v1.1c.5-.8 1.2-1.2 2.2-1.2.7 0 1.3.2 1.7.7.4.5.6 1.1.6 2v3.9h-.1zm7.3-6.2l-3.9 5.3h3.9v.9H233v-.3l3.9-5.3h-3.6v-.9h5.1v.3h.1zm6.8 6.2h-1.1v-1c-.5.8-1.1 1.2-2 1.2-.7 0-1.2-.2-1.6-.5s-.6-.8-.6-1.4c0-1.2.7-1.9 2.2-2.1l2-.3c0-1.1-.5-1.7-1.4-1.7-.8 0-1.5.3-2.2.8v-1.1c.7-.4 1.4-.6 2.3-.6 1.6 0 2.3.8 2.3 2.4v4.3h.1zm-1-3.3l-1.6.2c-.5.1-.9.2-1.1.4-.3.2-.4.5-.4.9 0 .3.1.6.3.8.2.2.5.3.9.3.5 0 1-.2 1.3-.5.3-.4.5-.8.5-1.4v-.7h.1z"/><path class="st4" d="M244.1 146.1c0 16.3-13.2 29.5-29.5 29.5s-29.5-13.2-29.5-29.5 13.2-29.5 29.5-29.5 29.5 13.2 29.5 29.5z"/><path class="st1" d="M219.7 144.1l13.7 4.9c.6-1.5.9-3.2.9-4.9 0-4.6-2.1-8.7-5.5-11.4l-9.1 11.4zm-6.4 2l11.5-14.4c-3.1-2.5-7.1-4-11.5-4-10.2 0-18.4 8.2-18.4 18.4s8.2 18.4 18.4 18.4c8 0 14.8-5.1 17.3-12.2l-17.3-6.2z"/><g class="st5"><path class="st4" d="M171.2 194.6l-.9-2.3h-3.5l-.9 2.3h-.8l3.1-7.9h.8l3 7.9h-.8zm-2.5-6.5l-.1-.2-.1-.3c0 .1 0 .2-.1.3 0 .1-.1.2-.1.2l-1.3 3.5h2.9l-1.2-3.5zm5.2 6.5v-7.9h2.1c1.4 0 2.4.3 3.1 1 .7.6 1.1 1.6 1.1 2.9 0 .6-.1 1.2-.3 1.7s-.5.9-.8 1.3c-.4.4-.8.6-1.3.8-.5.2-1.1.3-1.8.3l-2.1-.1zm.7-7.2v6.5h1.2c.6 0 1-.1 1.5-.2s.8-.4 1.1-.6c.3-.3.5-.6.7-1s.2-.9.2-1.4c0-2.1-1.1-3.2-3.4-3.2l-1.3-.1zm14.9 7.2v-5.4c0-.3 0-.7.1-1.3-.1.2-.1.3-.1.4l-.1.3-2.8 6h-.3l-2.8-6c-.1-.2-.2-.4-.3-.8v6.8h-.7v-7.9h.9l2.7 5.9.2.4c.1.1.1.3.1.4.1-.1.1-.3.1-.4s.1-.3.2-.4l2.8-5.9h.8v7.9h-.8zm4.1 0h-.7v-7.9h.7v7.9zm8.2 0l-4.5-6.3c-.1-.1-.1-.2-.2-.2-.1-.1-.1-.2-.1-.2v6.8h-.7v-7.9h.8l4.4 6.2.2.3c.1.1.1.2.1.2v-6.7h.8v7.9l-.8-.1zm4.2 0h-.7v-7.9h.7v7.9zm2.3-1.2l.4.3.5.2c.2.1.3.1.5.1h.5c.6 0 1.1-.1 1.4-.3s.5-.6.5-1c0-.2 0-.4-.1-.5s-.2-.3-.3-.4c-.1-.1-.3-.3-.6-.4-.2-.1-.5-.3-.8-.5s-.6-.4-.9-.5l-.6-.5s-.3-.4-.3-.6c-.1-.2-.1-.4-.1-.7 0-.3.1-.6.2-.9s.3-.5.6-.6c.2-.2.5-.3.8-.4s.7-.1 1-.1c.6 0 1.2.1 1.6.3v.8c-.5-.3-1-.4-1.7-.4-.2 0-.5 0-.7.1s-.4.1-.6.2-.3.2-.4.4c-.1.2-.1.4-.1.6s0 .4.1.5l.3.4s.3.3.5.4.5.3.8.4l.9.5c.3.2.5.3.6.5.2.2.3.4.4.6s.1.4.1.7c0 .3-.1.6-.2.9s-.3.5-.5.6c-.2.2-.5.3-.8.4s-.7.1-1.1.1h-.5c-.2 0-.4 0-.5-.1s-.4-.1-.5-.1c-.2-.1-.3-.1-.4-.2v-.8zm9.1-6v7.2h-.7v-7.2h-2.3v-.7h5.4v.7h-2.4zm8.6 7.2l-1.2-2.3-.3-.6c-.1-.2-.2-.3-.3-.4-.1-.1-.2-.2-.4-.2-.1 0-.3-.1-.5-.1h-.9v3.4h-.8v-7.9h2.3c.3 0 .6 0 .9.1s.5.2.8.4.4.4.5.6c.1.3.2.6.2.9s0 .5-.1.8c-.1.2-.2.4-.4.6s-.4.3-.6.5c-.2.1-.5.2-.8.3.1 0 .2.1.3.2l.3.3.3.3.3.4 1.4 2.4h-1v.3zm-3.6-7.2v3.1h1.3c.3 0 .5 0 .7-.1l.6-.3s.3-.3.4-.5.1-.4.1-.7c0-.5-.2-.8-.5-1.1-.3-.3-.7-.4-1.3-.4h-1.3zm11.6 7.2l-.9-2.3h-3.5l-.9 2.3h-.8l3.1-7.9h.8l3 7.9h-.8zm-2.4-6.5l-.1-.2-.1-.3c0 .1 0 .2-.1.3 0 .1-.1.2-.1.2l-1.3 3.5h2.9l-1.2-3.5zm10.4 6.2c-.6.3-1.3.4-2.1.4-.6 0-1.1-.1-1.5-.3s-.9-.5-1.2-.8c-.3-.3-.6-.8-.8-1.2-.2-.5-.3-1-.3-1.6s.1-1.2.3-1.7.5-1 .8-1.3.8-.7 1.3-.9 1.1-.3 1.7-.3c.7 0 1.3.1 1.8.3v.8c-.6-.3-1.2-.4-1.8-.4-.5 0-1 .1-1.4.3-.4.2-.7.4-1 .7-.3.3-.5.7-.6 1.1s-.2.9-.2 1.4.1.9.2 1.3.3.8.6 1c.3.3.6.5 1 .7s.8.3 1.3.3c.8 0 1.5-.2 2-.5l-.1.7zm3 .3h-.7v-7.9h.7v7.9zm5.9.1c-.6 0-1.1-.1-1.6-.3-.5-.2-.9-.5-1.2-.8s-.6-.8-.7-1.3-.3-1-.3-1.6.1-1.2.3-1.7.4-.9.8-1.3c.3-.4.7-.6 1.2-.8s1-.3 1.6-.3 1.1.1 1.5.3.8.5 1.2.8c.3.4.6.8.7 1.3s.3 1 .3 1.6-.1 1.1-.2 1.7c-.2.5-.4 1-.7 1.3s-.7.7-1.2.9c-.5.1-1 .2-1.7.2zm.1-7.5c-.5 0-.9.1-1.3.3-.4.2-.7.4-1 .7-.3.3-.5.7-.6 1.1s-.2.9-.2 1.3.1.9.2 1.3.3.8.5 1.1.6.6.9.7.8.3 1.3.3.9-.1 1.3-.3c.4-.2.7-.4 1-.7.3-.3.4-.7.6-1.1s.2-.9.2-1.4-.1-.9-.2-1.3-.3-.8-.5-1.1-.5-.6-.9-.7c-.3-.1-.8-.2-1.3-.2zm-.2-1.2h-.6l1.3-1.8h.8l-1.5 1.8zm11.6 8.6l-4.5-6.3c-.1-.1-.1-.2-.2-.2-.1-.1-.1-.2-.1-.2v6.8h-.7v-7.9h.8l4.4 6.2.2.3c.1.1.1.2.1.2v-6.7h.8v7.9l-.8-.1z"/><path class="st6" d="M165.2 199.6h-1.8v-.4h1.8v.4zm7.2 1.3c-.5.3-1 .4-1.6.4-.7 0-1.2-.2-1.7-.6s-.6-1-.6-1.7.2-1.3.7-1.8 1.1-.7 1.8-.7c.5 0 1 .1 1.3.2v.6c-.4-.2-.8-.4-1.4-.4-.5 0-1 .2-1.3.5s-.5.8-.5 1.4.2 1.1.5 1.4.7.5 1.3.5c.4 0 .7-.1 1-.2v-1.2h-1v-.5h1.6v2.1h-.1zm4.1-1.2h-2.4c0 .4.1.7.3.9.2.2.5.3.8.3.4 0 .7-.1 1.1-.4v.5c-.3.2-.7.3-1.2.3s-.9-.2-1.1-.5-.4-.7-.4-1.3c0-.5.2-.9.5-1.3.3-.3.7-.5 1.1-.5s.8.1 1 .4.4.7.4 1.2v.4h-.1zm-.6-.5c0-.3-.1-.5-.2-.7-.2-.2-.4-.3-.6-.3-.3 0-.5.1-.7.3-.2.2-.3.4-.3.7h1.8zm1.6 1.9v-.6c.3.2.6.3 1 .3.5 0 .7-.2.7-.5 0-.1 0-.2-.1-.2l-.2-.2c-.1 0-.2-.1-.2-.1l-.3-.1c-.2-.1-.3-.1-.4-.2l-.3-.2-.2-.3s-.1-.2-.1-.3c0-.2 0-.3.1-.4l.3-.3.4-.2.5-.1c.3 0 .6.1.8.2v.5c-.3-.2-.5-.2-.9-.2h-.3c-.1 0-.2.1-.2.1l-.1.1v.4s.1.1.1.2l.2.1s.2.1.3.1c.2.1.3.1.4.2l.3.2.2.3.1.3c0 .2 0 .3-.1.4l-.3.3-.4.2s-.3.1-.5.1c-.3.1-.6 0-.8-.1zm5 .1c-.1.1-.3.1-.5.1-.6 0-.9-.3-.9-1v-2h-.6v-.5h.6v-.8l.5-.2v1h.9v.5h-.9v1.9c0 .2 0 .4.1.5s.2.1.4.1c.1 0 .3 0 .4-.1v.5zm1.3-4.2c-.1 0-.2 0-.3-.1-.1-.1-.1-.1-.1-.2s0-.2.1-.2c.1-.1.2-.1.3-.1.1 0 .2 0 .3.1.1.1.1.1.1.2s0 .2-.1.2c-.1.1-.2.1-.3.1zm.3 4.2h-.5v-3.3h.5v3.3zm2.9.1c-.5 0-.9-.2-1.2-.5-.3-.3-.5-.7-.5-1.2 0-.6.2-1 .5-1.3s.7-.5 1.3-.5c.5 0 .9.2 1.2.5.3.3.4.7.4 1.3 0 .5-.2 1-.5 1.3s-.7.4-1.2.4zm0-3c-.4 0-.6.1-.8.3s-.3.6-.3 1 .1.7.3.9c.2.2.5.3.8.3.4 0 .6-.1.8-.3s.3-.5.3-1c0-.4-.1-.7-.3-1-.2-.1-.4-.2-.8-.2zm.8-2.1l-.9 1.1h-.4l.7-1.1h.6zm4.9 5h-.5v-1.9c0-.7-.3-1.1-.8-1.1-.3 0-.5.1-.7.3s-.3.5-.3.8v1.9h-.5v-3.3h.5v.6c.3-.4.6-.6 1.1-.6.4 0 .7.1.9.4s.3.6.3 1v1.9zm6.5 0h-.5v-.6c-.3.4-.6.6-1.2.6-.4 0-.8-.1-1-.4-.3-.3-.4-.7-.4-1.2 0-.6.1-1 .4-1.3s.7-.5 1.1-.5c.5 0 .8.2 1 .5v-2h.5v4.9h.1zm-.5-1.5v-.5c0-.3-.1-.5-.3-.7-.2-.2-.4-.3-.7-.3-.3 0-.6.1-.8.4-.2.2-.3.6-.3 1s.1.7.3.9c.2.2.4.3.7.3.3 0 .6-.1.7-.3.3-.2.4-.5.4-.8zm4.7 0H201c0 .4.1.7.3.9.2.2.5.3.8.3.4 0 .7-.1 1.1-.4v.5c-.3.2-.7.3-1.2.3s-.9-.2-1.1-.5-.4-.7-.4-1.3c0-.5.2-.9.5-1.3.3-.3.7-.5 1.1-.5s.8.1 1 .4.4.7.4 1.2l-.1.4zm-.6-.5c0-.3-.1-.5-.2-.7-.2-.2-.4-.3-.6-.3-.3 0-.5.1-.7.3-.2.2-.3.4-.3.7h1.8zm4.5 1.5v2h-.5v-4.9h.5v.6c.3-.4.7-.7 1.2-.7.4 0 .8.1 1 .4s.4.7.4 1.2c0 .6-.1 1-.4 1.3s-.7.5-1.1.5c-.5.2-.8 0-1.1-.4zm0-1.3v.5c0 .3.1.5.3.7.2.2.4.3.7.3.3 0 .6-.1.8-.4.2-.2.3-.6.3-1s-.1-.7-.3-.9c-.2-.2-.4-.3-.7-.3-.3 0-.6.1-.8.3-.2.2-.3.5-.3.8zm6.6.3h-2.4c0 .4.1.7.3.9.2.2.5.3.8.3.4 0 .7-.1 1.1-.4v.5c-.3.2-.7.3-1.2.3s-.9-.2-1.1-.5-.4-.7-.4-1.3c0-.5.2-.9.5-1.3.3-.3.7-.5 1.1-.5s.8.1 1 .4.4.7.4 1.2l-.1.4zm-.6-.5c0-.3-.1-.5-.2-.7-.2-.2-.4-.3-.6-.3-.3 0-.5.1-.7.3-.2.2-.3.4-.3.7h1.8zm3.5-.8c-.1-.1-.2-.1-.4-.1s-.4.1-.6.3-.2.5-.2.9v1.7h-.5v-3.3h.5v.7c.1-.2.2-.4.4-.5.2-.1.3-.2.5-.2h.3v.5zm2.6-1.6c-.1-.1-.2-.1-.4-.1-.4 0-.6.2-.6.7v.5h.8v.5h-.8v2.9h-.5v-3h-.6v-.5h.6v-.5c0-.3.1-.6.3-.8.2-.2.5-.3.8-.3.2 0 .3 0 .4.1v.5zm1.1.2c-.1 0-.2 0-.3-.1-.1-.1-.1-.1-.1-.2s0-.2.1-.2c.1-.1.2-.1.3-.1.1 0 .2 0 .3.1.1.1.1.1.1.2s0 .2-.1.2c-.1.1-.2.1-.3.1zm.3 4.2h-.5v-3.3h.5v3.3zm2 0h-.5v-4.9h.5v4.9zm4.1-1.5h-2.4c0 .4.1.7.3.9.2.2.5.3.8.3.4 0 .7-.1 1.1-.4v.5c-.3.2-.7.3-1.2.3s-.9-.2-1.1-.5-.4-.7-.4-1.3c0-.5.2-.9.5-1.3.3-.3.7-.5 1.1-.5s.8.1 1 .4.4.7.4 1.2l-.1.4zm-.5-.5c0-.3-.1-.5-.2-.7-.2-.2-.4-.3-.6-.3-.3 0-.5.1-.7.3-.2.2-.3.4-.3.7h1.8zm1.5 1.9v-.6c.3.2.6.3 1 .3.5 0 .7-.2.7-.5 0-.1 0-.2-.1-.2l-.2-.2c-.1 0-.2-.1-.2-.1l-.3-.1c-.2-.1-.3-.1-.4-.2l-.3-.2-.2-.3s-.1-.2-.1-.3c0-.2 0-.3.1-.4l.3-.3.4-.2.5-.1c.3 0 .6.1.8.2v.5c-.3-.2-.5-.2-.9-.2h-.3c-.1 0-.2.1-.2.1l-.1.1v.4s.1.1.1.2l.2.1s.2.1.3.1c.2.1.3.1.4.2l.3.2.2.3.1.3c0 .2 0 .3-.1.4l-.3.3-.4.2s-.3.1-.5.1c-.2.1-.5 0-.8-.1zm8.6.1h-.5v-.6c-.3.4-.6.6-1.2.6-.4 0-.8-.1-1-.4-.3-.3-.4-.7-.4-1.2 0-.6.1-1 .4-1.3s.7-.5 1.1-.5c.5 0 .8.2 1 .5v-2h.5v4.9h.1zm-.6-1.5v-.5c0-.3-.1-.5-.3-.7-.2-.2-.4-.3-.7-.3-.3 0-.6.1-.8.4-.2.2-.3.6-.3 1s.1.7.3.9c.2.2.4.3.7.3.3 0 .6-.1.7-.3.3-.2.4-.5.4-.8zm2.3-2.7c-.1 0-.2 0-.3-.1-.1-.1-.1-.1-.1-.2s0-.2.1-.2c.1-.1.2-.1.3-.1.1 0 .2 0 .3.1.1.1.1.1.1.2s0 .2-.1.2c-.1.1-.2.1-.3.1zm.3 4.2h-.5v-3.3h.5v3.3zm4.2 0h-.5v-1.9c0-.7-.3-1.1-.8-1.1-.3 0-.5.1-.7.3s-.3.5-.3.8v1.9h-.5v-3.3h.5v.6c.3-.4.6-.6 1.1-.6.4 0 .7.1.9.4s.3.6.3 1v1.9zm3.9 0h-.5v-.5c-.2.4-.6.6-1 .6-.3 0-.6-.1-.8-.3s-.3-.4-.3-.7c0-.6.4-1 1.1-1.1l1-.1c0-.6-.2-.8-.7-.8-.4 0-.8.1-1.1.4v-.5c.3-.2.7-.3 1.2-.3.8 0 1.2.4 1.2 1.2v2.1h-.1zm-.6-1.7l-.8.1c-.3 0-.4.1-.6.2-.1.1-.2.2-.2.5 0 .2.1.3.2.4s.3.2.5.2c.3 0 .5-.1.7-.3s.3-.4.3-.7v-.4h-.1zm.1-3.3l-.9 1.1h-.4l.7-1.1h.6zm6.7 5h-.5v-1.9c0-.4-.1-.6-.2-.8-.1-.2-.3-.2-.6-.2-.2 0-.4.1-.6.3-.2.2-.2.5-.2.7v1.9h-.5v-2c0-.7-.3-1-.8-1-.2 0-.4.1-.6.3-.2.2-.2.5-.2.8v1.9h-.5v-3.3h.5v.5c.2-.4.6-.6 1.1-.6.2 0 .4.1.6.2s.3.3.4.5c.3-.5.6-.7 1.1-.7.8 0 1.1.5 1.1 1.4l-.1 2zm1.6-4.2c-.1 0-.2 0-.3-.1-.1-.1-.1-.1-.1-.2s0-.2.1-.2c.1-.1.2-.1.3-.1.1 0 .2 0 .3.1.1.1.1.1.1.2s0 .2-.1.2c-.1.1-.2.1-.3.1zm.3 4.2h-.5v-3.3h.5v3.3zm3.8-.1c-.3.2-.6.2-.9.2-.5 0-.9-.2-1.2-.5s-.4-.7-.4-1.2.2-1 .5-1.3.8-.5 1.3-.5c.3 0 .6.1.8.2v.5c-.3-.2-.5-.3-.8-.3s-.6.1-.9.4c-.2.2-.3.6-.3 1s.1.7.3.9.5.3.8.3.6-.1.8-.3v.6zm2.6.2c-.5 0-.9-.2-1.2-.5-.3-.3-.5-.7-.5-1.2 0-.6.2-1 .5-1.3s.7-.5 1.3-.5c.5 0 .9.2 1.2.5.3.3.4.7.4 1.3 0 .5-.2 1-.5 1.3s-.7.4-1.2.4zm0-3c-.4 0-.6.1-.8.3s-.3.6-.3 1 .1.7.3.9c.2.2.5.3.8.3.4 0 .6-.1.8-.3s.3-.5.3-1c0-.4-.1-.7-.3-1-.2-.1-.5-.2-.8-.2zm2.7 2.8v-.6c.3.2.6.3 1 .3.5 0 .7-.2.7-.5 0-.1 0-.2-.1-.2l-.2-.2c-.1 0-.2-.1-.2-.1l-.3-.1c-.2-.1-.3-.1-.4-.2l-.3-.2-.2-.3s-.1-.2-.1-.3c0-.2 0-.3.1-.4l.3-.3.4-.2.5-.1c.3 0 .6.1.8.2v.5c-.3-.2-.5-.2-.9-.2h-.3c-.1 0-.2.1-.2.1l-.1.1v.4s.1.1.1.2l.2.1s.2.1.3.1c.2.1.3.1.4.2l.3.2.2.3.1.3c0 .2 0 .3-.1.4l-.3.3-.4.2s-.3.1-.5.1c-.3.1-.6 0-.8-.1zm-95.7 5.1h-1.8v-.4h1.8v.4zm7.2 1.4c-.5.3-1 .4-1.6.4-.7 0-1.2-.2-1.7-.6s-.6-1-.6-1.7.2-1.3.7-1.8 1.1-.7 1.8-.7c.5 0 1 .1 1.3.2v.6c-.4-.2-.8-.4-1.4-.4-.5 0-1 .2-1.3.5s-.5.8-.5 1.4.2 1.1.5 1.4.7.5 1.3.5c.4 0 .7-.1 1-.2v-1.3h-1v-.5h1.6v2.2h-.1zm4.1-1.2H177c0 .4.1.7.3.9.2.2.5.3.8.3.4 0 .7-.1 1.1-.4v.5c-.3.2-.7.3-1.2.3s-.9-.2-1.1-.5-.4-.7-.4-1.3c0-.5.2-.9.5-1.3.3-.3.7-.5 1.1-.5s.8.1 1 .4.4.7.4 1.2v.4h-.1zm-.5-.5c0-.3-.1-.5-.2-.7-.2-.2-.4-.3-.6-.3-.3 0-.5.1-.7.3-.2.2-.3.4-.3.7h1.8zm1.5 1.9v-.6c.3.2.6.3 1 .3.5 0 .7-.2.7-.5 0-.1 0-.2-.1-.2l-.2-.2c-.1 0-.2-.1-.2-.1l-.3-.1c-.2-.1-.3-.1-.4-.2l-.3-.2-.2-.3s-.1-.2-.1-.3c0-.2 0-.3.1-.4l.3-.3.4-.2.5-.1c.3 0 .6.1.8.2v.5c-.3-.2-.5-.2-.9-.2h-.3c-.1 0-.2.1-.2.1l-.1.1v.4s.1.1.1.2l.2.1s.2.1.3.1c.2.1.3.1.4.2l.3.2.2.3.1.3c0 .2 0 .3-.1.4l-.3.3-.4.2s-.3.1-.5.1c-.2.1-.6 0-.8-.1zm5 .1c-.1.1-.3.1-.5.1-.6 0-.9-.3-.9-1v-2h-.6v-.5h.6v-.8l.5-.2v1h.9v.5h-.8v1.9c0 .2 0 .4.1.5s.2.1.4.1c.1 0 .3 0 .4-.1v.5h-.1zm1.4-4.2c-.1 0-.2 0-.3-.1-.1-.1-.1-.1-.1-.2s0-.2.1-.2c.1-.1.2-.1.3-.1.1 0 .2 0 .3.1.1.1.1.1.1.2s0 .2-.1.2c-.2.1-.2.1-.3.1zm.2 4.2h-.5v-3.3h.5v3.3zm2.9.1c-.5 0-.9-.2-1.2-.5-.3-.3-.5-.7-.5-1.2 0-.6.2-1 .5-1.3s.7-.5 1.3-.5c.5 0 .9.2 1.2.5.3.3.4.7.4 1.3 0 .5-.2 1-.5 1.3s-.7.4-1.2.4zm0-3.1c-.4 0-.6.1-.8.3s-.3.6-.3 1 .1.7.3.9c.2.2.5.3.8.3.4 0 .6-.1.8-.3s.3-.5.3-1c0-.4-.1-.7-.3-1-.1-.1-.4-.2-.8-.2zm.8-2l-.9 1.1h-.4l.7-1.1h.6zm4.9 5h-.5V206c0-.7-.3-1.1-.8-1.1-.3 0-.5.1-.7.3s-.3.5-.3.8v1.9h-.5v-3.3h.5v.6c.3-.4.6-.6 1.1-.6.4 0 .7.1.9.4s.3.6.3 1v1.9zm6.5 0h-.5v-.6c-.3.4-.6.6-1.2.6-.4 0-.8-.1-1-.4-.3-.3-.4-.7-.4-1.2 0-.6.1-1 .4-1.3s.7-.5 1.1-.5c.5 0 .8.2 1 .5v-2.1h.5v5h.1zm-.5-1.5v-.5c0-.3-.1-.5-.3-.7-.2-.2-.4-.3-.7-.3-.3 0-.6.1-.8.4-.2.2-.3.6-.3 1s.1.7.3.9c.2.2.4.3.7.3.3 0 .6-.1.7-.3.3-.2.4-.5.4-.8zm4.7 0h-2.4c0 .4.1.7.3.9.2.2.5.3.8.3.4 0 .7-.1 1.1-.4v.5c-.3.2-.7.3-1.2.3s-.9-.2-1.1-.5-.4-.7-.4-1.3c0-.5.2-.9.5-1.3.3-.3.7-.5 1.1-.5s.8.1 1 .4.4.7.4 1.2l-.1.4zm-.5-.5c0-.3-.1-.5-.2-.7-.2-.2-.4-.3-.6-.3-.3 0-.5.1-.7.3-.2.2-.3.4-.3.7h1.8zm6.8 2h-.5v-.6c-.3.4-.6.6-1.2.6-.4 0-.8-.1-1-.4-.3-.3-.4-.7-.4-1.2 0-.6.1-1 .4-1.3s.7-.5 1.1-.5c.5 0 .8.2 1 .5v-2.1h.5v5h.1zm-.5-1.5v-.5c0-.3-.1-.5-.3-.7-.2-.2-.4-.3-.7-.3-.3 0-.6.1-.8.4-.2.2-.3.6-.3 1s.1.7.3.9c.2.2.4.3.7.3.3 0 .6-.1.7-.3.3-.2.4-.5.4-.8zm3.4 1.6c-.5 0-.9-.2-1.2-.5-.3-.3-.5-.7-.5-1.2 0-.6.2-1 .5-1.3s.7-.5 1.3-.5c.5 0 .9.2 1.2.5.3.3.4.7.4 1.3 0 .5-.2 1-.5 1.3s-.7.4-1.2.4zm0-3.1c-.4 0-.6.1-.8.3s-.3.6-.3 1 .1.7.3.9c.2.2.5.3.8.3.4 0 .6-.1.8-.3s.3-.5.3-1c0-.4-.1-.7-.3-1-.1-.1-.4-.2-.8-.2zm5.2 2.8c-.3.2-.6.2-.9.2-.5 0-.9-.2-1.2-.5s-.4-.7-.4-1.2.2-1 .5-1.3.8-.5 1.3-.5c.3 0 .6.1.8.2v.5c-.3-.2-.5-.3-.8-.3s-.6.1-.9.4c-.2.2-.3.6-.3 1s.1.7.3.9.5.3.8.3.6-.1.8-.3v.6zm4 .2h-.5v-.5c-.2.4-.6.6-1.1.6-.8 0-1.2-.5-1.2-1.4v-2h.5v1.9c0 .7.3 1.1.8 1.1.3 0 .5-.1.7-.3.2-.2.3-.4.3-.8v-1.9h.5v3.3zm6.2 0h-.5V206c0-.4-.1-.6-.2-.8-.1-.2-.3-.2-.6-.2-.2 0-.4.1-.6.3-.2.2-.2.5-.2.7v1.9h-.5v-2c0-.7-.3-1-.8-1-.2 0-.4.1-.6.3-.2.2-.2.5-.2.8v1.9h-.5v-3.3h.5v.5c.2-.4.6-.6 1.1-.6.2 0 .4.1.6.2s.3.3.4.5c.3-.5.6-.7 1.1-.7.8 0 1.1.5 1.1 1.4l-.1 2zm4.2-1.5h-2.5c0 .4.1.7.3.9.2.2.5.3.8.3.4 0 .7-.1 1.1-.4v.5c-.3.2-.7.3-1.2.3s-.9-.2-1.1-.5-.4-.7-.4-1.3c0-.5.2-.9.5-1.3.3-.3.7-.5 1.1-.5s.8.1 1 .4.4.7.4 1.2v.4zm-.6-.5c0-.3-.1-.5-.2-.7-.2-.2-.4-.3-.6-.3-.3 0-.5.1-.7.3-.2.2-.3.4-.3.7h1.8zm4.6 2h-.5V206c0-.7-.3-1.1-.8-1.1-.3 0-.5.1-.7.3s-.3.5-.3.8v1.9h-.5v-3.3h.5v.6c.3-.4.6-.6 1.1-.6.4 0 .7.1.9.4s.3.6.3 1v1.9zm2.9 0c-.1.1-.3.1-.5.1-.6 0-.9-.3-.9-1v-2h-.6v-.5h.6v-.8l.5-.2v1h.9v.5h-.9v1.9c0 .2 0 .4.1.5s.2.1.4.1c.1 0 .3 0 .4-.1v.5zm2.5.1c-.5 0-.9-.2-1.2-.5-.3-.3-.5-.7-.5-1.2 0-.6.2-1 .5-1.3s.7-.5 1.3-.5c.5 0 .9.2 1.2.5.3.3.4.7.4 1.3 0 .5-.2 1-.5 1.3s-.7.4-1.2.4zm0-3.1c-.4 0-.6.1-.8.3s-.3.6-.3 1 .1.7.3.9c.2.2.5.3.8.3.4 0 .6-.1.8-.3s.3-.5.3-1c0-.4-.1-.7-.3-1-.1-.1-.4-.2-.8-.2zm2.7 2.9v-.6c.3.2.6.3 1 .3.5 0 .7-.2.7-.5 0-.1 0-.2-.1-.2l-.2-.2c-.1 0-.2-.1-.2-.1l-.3-.1c-.2-.1-.3-.1-.4-.2l-.3-.2-.2-.3s-.1-.2-.1-.3c0-.2 0-.3.1-.4l.3-.3.4-.2.5-.1c.3 0 .6.1.8.2v.5c-.3-.2-.5-.2-.9-.2h-.3c-.1 0-.2.1-.2.1l-.1.1v.4s.1.1.1.2l.2.1s.2.1.3.1c.2.1.3.1.4.2l.3.2.2.3.1.3c0 .2 0 .3-.1.4l-.3.3-.4.2s-.3.1-.5.1c-.2.1-.5 0-.8-.1zm6.2-.4v2h-.5v-4.9h.5v.6c.3-.4.7-.7 1.2-.7.4 0 .8.1 1 .4s.4.7.4 1.2c0 .6-.1 1-.4 1.3s-.7.5-1.1.5c-.5.2-.8 0-1.1-.4zm0-1.3v.5c0 .3.1.5.3.7.2.2.4.3.7.3.3 0 .6-.1.8-.4.2-.2.3-.6.3-1s-.1-.7-.3-.9c-.2-.2-.4-.3-.7-.3-.3 0-.6.1-.8.3-.2.2-.3.4-.3.8zm5.2 1.9c-.5 0-.9-.2-1.2-.5-.3-.3-.5-.7-.5-1.2 0-.6.2-1 .5-1.3s.7-.5 1.3-.5c.5 0 .9.2 1.2.5.3.3.4.7.4 1.3 0 .5-.2 1-.5 1.3s-.6.4-1.2.4zm.1-3.1c-.4 0-.6.1-.8.3s-.3.6-.3 1 .1.7.3.9c.2.2.5.3.8.3.4 0 .6-.1.8-.3s.3-.5.3-1c0-.4-.1-.7-.3-1-.2-.1-.5-.2-.8-.2zm4.6.2c-.1-.1-.2-.1-.4-.1s-.4.1-.6.3-.2.5-.2.9v1.7h-.5v-3.3h.5v.7c.1-.2.2-.4.4-.5.2-.1.3-.2.5-.2h.3v.5zm-59.1 9.5h-.5v-.5c-.2.4-.6.6-1.1.6-.8 0-1.2-.5-1.2-1.4v-2h.5v1.9c0 .7.3 1.1.8 1.1.3 0 .5-.1.7-.3.2-.2.3-.4.3-.8v-1.9h.5v3.3zm1.3-.2v-.6c.3.2.6.3 1 .3.5 0 .7-.2.7-.5 0-.1 0-.2-.1-.2l-.2-.2c-.1 0-.2-.1-.2-.1l-.3-.1c-.2-.1-.3-.1-.4-.2l-.3-.2-.2-.3s-.1-.2-.1-.3c0-.2 0-.3.1-.4l.3-.3.4-.2.5-.1c.3 0 .6.1.8.2v.5c-.3-.2-.5-.2-.9-.2h-.3c-.1 0-.2.1-.2.1l-.1.1v.4s.1.1.1.2l.2.1s.2.1.3.1c.2.1.3.1.4.2l.3.2.2.3.1.3c0 .2 0 .3-.1.4l-.3.3-.4.2s-.3.1-.5.1c-.3.1-.6.1-.8-.1zm6.2.2h-.5v-.5c-.2.4-.6.6-1.1.6-.8 0-1.2-.5-1.2-1.4v-2h.5v1.9c0 .7.3 1.1.8 1.1.3 0 .5-.1.7-.3.2-.2.3-.4.3-.8v-1.9h.5v3.3zm3.8 0h-.5v-.5c-.2.4-.6.6-1 .6-.3 0-.6-.1-.8-.3s-.3-.4-.3-.7c0-.6.4-1 1.1-1.1l1-.1c0-.6-.2-.8-.7-.8-.4 0-.8.1-1.1.4v-.5c.3-.2.7-.3 1.2-.3.8 0 1.2.4 1.2 1.2v2.1h-.1zm-.5-1.7l-.8.1c-.3 0-.4.1-.6.2-.1.1-.2.2-.2.5 0 .2.1.3.2.4s.3.2.5.2c.3 0 .5-.1.7-.3s.3-.4.3-.7v-.4h-.1zm3.7-1.1c-.1-.1-.2-.1-.4-.1s-.4.1-.6.3-.2.5-.2.9v1.7h-.5v-3.3h.5v.7c.1-.2.2-.4.4-.5.2-.1.3-.2.5-.2h.3v.5zm1.2-1.4c-.1 0-.2 0-.3-.1-.1-.1-.1-.1-.1-.2s0-.2.1-.2c.1-.1.2-.1.3-.1.1 0 .2 0 .3.1.1.1.1.1.1.2s0 .2-.1.2l-.3.1zm.3 4.2h-.6v-3.3h.5v3.3h.1zm2.8 0c-.5 0-.9-.2-1.2-.5-.3-.3-.5-.7-.5-1.2 0-.6.2-1 .5-1.3s.7-.5 1.3-.5c.5 0 .9.2 1.2.5.3.3.4.7.4 1.3 0 .5-.2 1-.5 1.3s-.6.4-1.2.4zm.1-3c-.4 0-.6.1-.8.3s-.3.6-.3 1 .1.7.3.9c.2.2.5.3.8.3.4 0 .6-.1.8-.3s.3-.5.3-1c0-.4-.1-.7-.3-1-.2-.1-.5-.2-.8-.2zm2.6 2.8v-.6c.3.2.6.3 1 .3.5 0 .7-.2.7-.5 0-.1 0-.2-.1-.2l-.2-.2c-.1 0-.2-.1-.2-.1l-.3-.1c-.2-.1-.3-.1-.4-.2l-.3-.2-.2-.3s-.1-.2-.1-.3c0-.2 0-.3.1-.4l.3-.3.4-.2.5-.1c.3 0 .6.1.8.2v.5c-.3-.2-.5-.2-.9-.2h-.3c-.1 0-.2.1-.2.1l-.1.1v.4s.1.1.1.2l.2.1s.2.1.3.1c.2.1.3.1.4.2l.3.2.2.3.1.3c0 .2 0 .3-.1.4l-.3.3-.4.2s-.3.1-.5.1c-.2.1-.5.1-.8-.1zm-48.7 5.2h-1.8v-.4h1.8v.4zm6.9 1.4c-.4.2-.8.3-1.3.3-.7 0-1.2-.2-1.6-.6s-.6-1-.6-1.7.2-1.4.7-1.8c.5-.5 1-.7 1.7-.7.5 0 .8.1 1.1.2v.6c-.3-.2-.7-.3-1.1-.3-.5 0-1 .2-1.3.5-.3.4-.5.8-.5 1.4s.2 1 .5 1.4c.3.3.7.5 1.3.5.5 0 .9-.1 1.2-.3v.5h-.1zm3.9-1.3h-2.4c0 .4.1.7.3.9.2.2.5.3.8.3.4 0 .7-.1 1.1-.4v.5c-.3.2-.7.3-1.2.3s-.9-.2-1.1-.5-.4-.7-.4-1.3c0-.5.2-.9.5-1.3.3-.3.7-.5 1.1-.5s.8.1 1 .4.4.7.4 1.2l-.1.4zm-.5-.5c0-.3-.1-.5-.2-.7-.2-.2-.4-.3-.6-.3-.3 0-.5.1-.7.3-.2.2-.3.4-.3.7h1.8zm4.5 2h-.5v-1.9c0-.7-.3-1.1-.8-1.1-.3 0-.5.1-.7.3s-.3.5-.3.8v1.9h-.5v-3.3h.5v.6c.3-.4.6-.6 1.1-.6.4 0 .7.1.9.4s.3.6.3 1v1.9zm3 0c-.1.1-.3.1-.5.1-.6 0-.9-.3-.9-1v-2h-.6v-.5h.6v-.8l.5-.2v1h.9v.5h-.9v1.9c0 .2 0 .4.1.5s.2.1.4.1c.1 0 .3 0 .4-.1v.5zm2.8-2.8c-.1-.1-.2-.1-.4-.1s-.4.1-.6.3-.2.5-.2.9v1.7h-.5v-3.3h.5v.7c.1-.2.2-.4.4-.5.2-.1.3-.2.5-.2h.3v.5zm2.4 2.9c-.5 0-.9-.2-1.2-.5-.3-.3-.5-.7-.5-1.2 0-.6.2-1 .5-1.3s.7-.5 1.3-.5c.5 0 .9.2 1.2.5.3.3.4.7.4 1.3 0 .5-.2 1-.5 1.3s-.7.4-1.2.4zm0-3c-.4 0-.6.1-.8.3s-.3.6-.3 1 .1.7.3.9c.2.2.5.3.8.3.4 0 .6-.1.8-.3s.3-.5.3-1c0-.4-.1-.7-.3-1-.1-.1-.4-.2-.8-.2zm8 2.9h-.5v-.6c-.3.4-.6.6-1.2.6-.4 0-.8-.1-1-.4-.3-.3-.4-.7-.4-1.2 0-.6.1-1 .4-1.3s.7-.5 1.1-.5c.5 0 .8.2 1 .5v-2h.5v4.9h.1zm-.5-1.5v-.5c0-.3-.1-.5-.3-.7-.2-.2-.4-.3-.7-.3-.3 0-.6.1-.8.4-.2.2-.3.6-.3 1s.1.7.3.9c.2.2.4.3.7.3.3 0 .6-.1.7-.3.3-.2.4-.5.4-.8zm4.7 0h-2.4c0 .4.1.7.3.9.2.2.5.3.8.3.4 0 .7-.1 1.1-.4v.5c-.3.2-.7.3-1.2.3s-.9-.2-1.1-.5-.4-.7-.4-1.3c0-.5.2-.9.5-1.3.3-.3.7-.5 1.1-.5s.8.1 1 .4.4.7.4 1.2l-.1.4zm-.5-.5c0-.3-.1-.5-.2-.7-.2-.2-.4-.3-.6-.3-.3 0-.5.1-.7.3-.2.2-.3.4-.3.7h1.8zm4.2-2.2c-.1 0-.2 0-.3-.1-.1-.1-.1-.1-.1-.2s0-.2.1-.2c.1-.1.2-.1.3-.1.1 0 .2 0 .3.1.1.1.1.1.1.2s0 .2-.1.2c-.1.1-.2.1-.3.1zm.3 4.2h-.6v-3.3h.5v3.3h.1zm4.2 0h-.5v-1.9c0-.7-.3-1.1-.8-1.1-.3 0-.5.1-.7.3s-.3.5-.3.8v1.9h-.5v-3.3h.5v.6c.3-.4.6-.6 1.1-.6.4 0 .7.1.9.4s.3.6.3 1v1.9zm3.1-4.4c-.1-.1-.2-.1-.4-.1-.4 0-.6.2-.6.7v.5h.8v.5h-.7v2.9h-.5v-3h-.6v-.5h.6v-.5c0-.3.1-.6.3-.8.2-.2.5-.3.8-.3.2 0 .3 0 .4.1l-.1.5zm2.2 4.5c-.5 0-.9-.2-1.2-.5-.3-.3-.5-.7-.5-1.2 0-.6.2-1 .5-1.3s.7-.5 1.3-.5c.5 0 .9.2 1.2.5.3.3.4.7.4 1.3 0 .5-.2 1-.5 1.3s-.7.4-1.2.4zm0-3c-.4 0-.6.1-.8.3s-.3.6-.3 1 .1.7.3.9c.2.2.5.3.8.3.4 0 .6-.1.8-.3s.3-.5.3-1c0-.4-.1-.7-.3-1-.1-.1-.4-.2-.8-.2zm4.7.1c-.1-.1-.2-.1-.4-.1s-.4.1-.6.3-.2.5-.2.9v1.7h-.6v-3.3h.5v.7c.1-.2.2-.4.4-.5.2-.1.3-.2.5-.2h.3v.5h.1zm5.8 2.8h-.6v-1.9c0-.4-.1-.6-.2-.8-.1-.2-.3-.2-.6-.2-.2 0-.4.1-.6.3-.2.2-.2.5-.2.7v1.9h-.5v-2c0-.7-.3-1-.8-1-.2 0-.4.1-.6.3-.2.2-.2.5-.2.8v1.9h-.5v-3.3h.5v.5c.2-.4.6-.6 1.1-.6.2 0 .4.1.6.2s.3.3.4.5c.3-.5.6-.7 1.1-.7.8 0 1.1.5 1.1 1.4v2zm3.8 0h-.5v-.5c-.2.4-.6.6-1 .6-.3 0-.6-.1-.8-.3s-.3-.4-.3-.7c0-.6.4-1 1.1-1.1l1-.1c0-.6-.2-.8-.7-.8-.4 0-.8.1-1.1.4v-.5c.3-.2.7-.3 1.2-.3.8 0 1.2.4 1.2 1.2v2.1h-.1zm-.6-1.7l-.8.1c-.3 0-.4.1-.6.2-.1.1-.2.2-.2.5 0 .2.1.3.2.4s.3.2.5.2c.3 0 .5-.1.7-.3s.3-.4.3-.7v-.4h-.1zm4.3 1.6c-.3.2-.6.2-.9.2-.5 0-.9-.2-1.2-.5s-.4-.7-.4-1.2.2-1 .5-1.3.8-.5 1.3-.5c.3 0 .6.1.8.2v.5c-.3-.2-.5-.3-.8-.3s-.6.1-.9.4c-.2.2-.3.6-.3 1s.1.7.3.9.5.3.8.3.6-.1.8-.3v.6zm1.4-4.1c-.1 0-.2 0-.3-.1-.1-.1-.1-.1-.1-.2s0-.2.1-.2c.1-.1.2-.1.3-.1.1 0 .2 0 .3.1.1.1.1.1.1.2s0 .2-.1.2c-.1.1-.2.1-.3.1zm.3 4.2h-.5v-3.3h.5v3.3zm2.9.1c-.5 0-.9-.2-1.2-.5-.3-.3-.5-.7-.5-1.2 0-.6.2-1 .5-1.3s.7-.5 1.3-.5c.5 0 .9.2 1.2.5.3.3.4.7.4 1.3 0 .5-.2 1-.5 1.3s-.7.4-1.2.4zm0-3c-.4 0-.6.1-.8.3s-.3.6-.3 1 .1.7.3.9c.2.2.5.3.8.3.4 0 .6-.1.8-.3s.3-.5.3-1c0-.4-.1-.7-.3-1-.2-.1-.4-.2-.8-.2zm.8-2.1l-.9 1.1h-.4l.7-1.1h.6zm4.9 5h-.5v-1.9c0-.7-.3-1.1-.8-1.1-.3 0-.5.1-.7.3s-.3.5-.3.8v1.9h-.5v-3.3h.5v.6c.3-.4.6-.6 1.1-.6.4 0 .7.1.9.4s.3.6.3 1v1.9z"/></g><path class="st3" d="M214.6 112V62.4m-12.1 164.5V253c0 4.4-3.6 8-8 8H181c-4.4 0-8 3.6-8 8v11m53.7-53.1V253c0 4.4 3.6 8 8 8h13.5c4.4 0 8 3.6 8 8v11m-41.6-53.1V280"/><path class="st4" d="M175.1 280c0 1.1-.9 2-2 2s-2-.9-2-2 .9-2 2-2 2 .9 2 2zm41.5 0c0 1.1-.9 2-2 2s-2-.9-2-2 .9-2 2-2 2 .9 2 2zm41.6 0c0 1.1-.9 2-2 2s-2-.9-2-2 .9-2 2-2 2 .9 2 2z"/><path class="st3" d="M173 309.1v9.9c0 4.4 3.6 8 8 8h67.1c4.4 0 8-3.6 8-8v-9.9m-41.5 0v50"/><path class="st0" d="M393.1 146.1c0 16.3-13.2 29.5-29.5 29.5s-29.5-13.2-29.5-29.5 13.2-29.5 29.5-29.5 29.5 13.2 29.5 29.5z"/><path class="st1" d="M363.6 166.8c-11.4 0-20.7-9.3-20.7-20.7s9.3-20.7 20.7-20.7 20.7 9.3 20.7 20.7c.1 11.4-9.2 20.7-20.7 20.7zm0-38.8c-10 0-18.1 8.1-18.1 18.1s8.1 18.1 18.1 18.1 18.1-8.1 18.1-18.1c.1-10-8-18.1-18.1-18.1zm-.5-1.3h1.1v4.5h-1.1v-4.5zm-10.4 9.2l-3.2-3.1.8-.8 3.2 3.1-.8.8zm-8.5 9.6h4.5v1.1h-4.5v-1.1zm5.4 13.9l3.2-3.2.8.8-3.2 3.2-.8-.8zm13.5 1.7h1.1v4.5h-1.1v-4.5zm10.7-4l.8-.8 3.2 3.2-.8.8-3.2-3.2zm4.8-11.6h4.5v1.1h-4.5v-1.1zm-4-9.6l-.8-.8 3.2-3.1.8.8-3.2 3.1zm-9.8 12h-2.3v-8.8l1.1-1.1 1.2 1.1v8.8zm-3.4-1v-1.6H375l.8.8-.8.8h-13.6z"/><path class="st7" d="M95 146.1c0 16.3-13.2 29.5-29.5 29.5S36 162.4 36 146.1s13.2-29.5 29.5-29.5S95 129.8 95 146.1z"/><path class="st1" d="M51.7 155.6l-2 2 4.3 4.3 2.1-2.1c1.9 1.3 4.1 2.2 6.4 2.7v2.9h6.1v-2.9c2.3-.4 4.5-1.4 6.4-2.7l2.1 2.1 4.3-4.3-2.1-2c1.3-1.9 2.2-4.1 2.7-6.4h2.9v-6.1H82c-.4-2.4-1.4-4.5-2.7-6.4l2.1-2-4.3-4.3-2.1 2.1c-1.9-1.3-4.1-2.2-6.4-2.7v-2.9h-6.1v2.9c-2.3.4-4.5 1.4-6.4 2.7l-2.1-2.1-4.3 4.3 2 2c-1.3 1.9-2.2 4.1-2.7 6.4h-2.9v6.1H49c.5 2.3 1.4 4.5 2.7 6.4zm13.9-18.8c5.2 0 9.3 4.2 9.3 9.3 0 5.2-4.2 9.3-9.3 9.3-5.2 0-9.3-4.2-9.3-9.3-.1-5.2 4.1-9.3 9.3-9.3z"/><g class="st5"><path class="st7" d="M22.2 194.3c-.6.3-1.3.4-2.1.4-.6 0-1.1-.1-1.5-.3s-.9-.5-1.2-.8c-.3-.3-.6-.8-.8-1.2-.2-.5-.3-1-.3-1.6s.1-1.2.3-1.7.5-1 .8-1.3.8-.7 1.3-.9 1.1-.3 1.7-.3c.7 0 1.3.1 1.8.3v.8c-.6-.3-1.2-.4-1.8-.4-.5 0-1 .1-1.4.3-.4.2-.7.4-1 .7-.3.3-.5.7-.6 1.1s-.2.9-.2 1.4.1.9.2 1.3.3.8.6 1c.3.3.6.5 1 .7s.8.3 1.3.3c.8 0 1.5-.2 2-.5v.7h-.1zm7.5.3l-.9-2.3h-3.5l-.9 2.3h-.8l3.1-7.9h.8l3 7.9h-.8zm-2.4-6.5l-.1-.2-.1-.3c0 .1 0 .2-.1.3 0 .1-.1.2-.1.2l-1.3 3.5h2.9l-1.2-3.5zm9.5 6.5l-1.2-2.3-.3-.6c-.1-.2-.2-.3-.3-.4-.1-.1-.2-.2-.4-.2-.1 0-.3-.1-.5-.1h-.9v3.4h-.7v-7.9h2.3c.3 0 .6 0 .9.1s.5.2.8.4.4.4.5.6c.1.3.2.6.2.9s0 .5-.1.8c-.1.2-.2.4-.4.6s-.4.3-.6.5c-.2.1-.5.2-.8.3.1 0 .2.1.3.2l.3.3.3.3.3.4 1.4 2.4h-1.1v.3zm-3.7-7.2v3.1h1.3c.3 0 .5 0 .7-.1l.6-.3s.3-.3.4-.5.1-.4.1-.7c0-.5-.2-.8-.5-1.1-.3-.3-.7-.4-1.3-.4h-1.3zm11.7 7.2l-.9-2.3h-3.5l-.9 2.3h-.8l3.1-7.9h.8l3 7.9h-.8zm-2.5-6.5l-.1-.2-.1-.3c0 .1 0 .2-.1.3 0 .1-.1.2-.1.2l-1.3 3.5h2.9l-1.2-3.5zm10.4 6.2c-.6.3-1.3.4-2.1.4-.6 0-1.1-.1-1.5-.3s-.9-.5-1.2-.8c-.3-.3-.6-.8-.8-1.2-.2-.5-.3-1-.3-1.6s.1-1.2.3-1.7.5-1 .8-1.3.8-.7 1.3-.9 1.1-.3 1.7-.3c.7 0 1.3.1 1.8.3v.8c-.6-.3-1.2-.4-1.8-.4-.5 0-1 .1-1.4.3-.4.2-.7.4-1 .7-.3.3-.5.7-.6 1.1s-.2.9-.2 1.4.1.9.2 1.3.3.8.6 1c.3.3.6.5 1 .7s.8.3 1.3.3c.8 0 1.5-.2 2-.5l-.1.7zm4.6-6.9v7.2h-.7v-7.2h-2.3v-.7h5.4v.7h-2.4zm4.2 7.2v-7.9h3.9v.7h-3.2v2.9h2.9v.7h-2.9v3h3.4v.7h-4.1v-.1zm10.8 0l-1.2-2.3-.3-.6c-.1-.2-.2-.3-.3-.4s-.2-.2-.4-.2c-.1 0-.3-.1-.5-.1h-1v3.4h-.7v-7.9h2.3c.3 0 .6 0 .9.1s.5.2.8.4.4.4.5.6c.1.3.2.6.2.9s0 .5-.1.8c-.1.2-.2.4-.4.6s-.4.3-.6.5c-.2.1-.5.2-.8.3.1 0 .2.1.3.2l.3.3.3.3.3.4 1.4 2.4h-1v.3zm-3.7-7.2v3.1h1.3c.3 0 .5 0 .7-.1l.6-.3s.3-.3.4-.5.1-.4.1-.7c0-.5-.2-.8-.5-1.1-.3-.3-.7-.4-1.3-.4h-1.3zm6.9-1.4h-.6l1.3-1.8h.8l-1.5 1.8zm.3 8.6h-.7v-7.9h.7v7.9zm2.4-1.2l.4.3.5.2c.2.1.3.1.5.1h.5c.6 0 1.1-.1 1.4-.3s.5-.6.5-1c0-.2 0-.4-.1-.5s-.2-.3-.3-.4-.3-.3-.6-.4c-.2-.1-.5-.3-.8-.5s-.6-.4-.9-.5l-.6-.5s-.3-.4-.3-.6c-.1-.2-.1-.4-.1-.7 0-.3.1-.6.2-.9.1-.3.3-.5.6-.6.2-.2.5-.3.8-.4s.7-.1 1-.1c.6 0 1.2.1 1.6.3v.8c-.5-.3-1-.4-1.7-.4-.2 0-.5 0-.7.1s-.4.1-.6.2c-.2.1-.3.2-.4.4-.1.2-.1.4-.1.6s0 .4.1.5l.3.4s.3.3.5.4.5.3.8.4l.9.5c.3.2.5.3.6.5.2.2.3.4.4.6s.1.4.1.7c0 .3-.1.6-.2.9s-.3.5-.5.6c-.2.2-.5.3-.8.4s-.7.1-1.1.1h-.5c-.2 0-.4 0-.5-.1s-.4-.1-.5-.1c-.2-.1-.3-.1-.4-.2v-.8zm9.1-6v7.2h-.7v-7.2h-2.3v-.7h5.4v.7h-2.4zm4.9 7.2h-.7v-7.9h.7v7.9zm8.1-.3c-.6.3-1.3.4-2.1.4-.6 0-1.1-.1-1.5-.3s-.9-.5-1.2-.8-.6-.8-.8-1.2c-.2-.5-.3-1-.3-1.6s.1-1.2.3-1.7.5-1 .8-1.3.8-.7 1.3-.9 1.1-.3 1.7-.3c.7 0 1.3.1 1.8.3v.8c-.6-.3-1.2-.4-1.8-.4-.5 0-1 .1-1.4.3-.4.2-.7.4-1 .7-.3.3-.5.7-.6 1.1s-.2.9-.2 1.4.1.9.2 1.3.3.8.6 1c.3.3.6.5 1 .7s.8.3 1.3.3c.8 0 1.5-.2 2-.5v.7h-.1zm7.5.3l-.9-2.3h-3.5l-.9 2.3h-.8l3.1-7.9h.8l3 7.9h-.8zm-2.4-6.5l-.1-.2-.1-.3c0 .1 0 .2-.1.3 0 .1-.1.2-.1.2l-1.3 3.5h2.9l-1.2-3.5zm4.8 5.3l.4.3.5.2c.2.1.3.1.5.1h.5c.6 0 1.1-.1 1.4-.3s.5-.6.5-1c0-.2 0-.4-.1-.5s-.2-.3-.3-.4-.3-.3-.6-.4c-.2-.1-.5-.3-.8-.5s-.6-.4-.9-.5l-.6-.5s-.3-.4-.3-.6c-.1-.2-.1-.4-.1-.7 0-.3.1-.6.2-.9.1-.3.3-.5.6-.6.2-.2.5-.3.8-.4s.7-.1 1-.1c.6 0 1.2.1 1.6.3v.8c-.5-.3-1-.4-1.7-.4-.2 0-.5 0-.7.1s-.4.1-.6.2c-.2.1-.3.2-.4.4-.1.2-.1.4-.1.6s0 .4.1.5l.3.4s.3.3.5.4.5.3.8.4l.9.5c.3.2.5.3.6.5.2.2.3.4.4.6s.1.4.1.7c0 .3-.1.6-.2.9s-.3.5-.5.6c-.2.2-.5.3-.8.4s-.7.1-1.1.1h-.5c-.2 0-.4 0-.5-.1s-.4-.1-.5-.1c-.2-.1-.3-.1-.4-.2v-.8z"/><path class="st6" d="M20.5 199.6h-1.9v-.4h1.8l.1.4zm4.1 1.6H24v-4.7h.6v4.7zm4.4 0h-.5v-1.9c0-.7-.3-1.1-.8-1.1-.3 0-.5.1-.7.3s-.3.5-.3.8v1.9h-.5v-3.3h.5v.6c.3-.4.6-.6 1.1-.6.4 0 .7.1.9.4s.3.6.3 1v1.9zm3-4.4c-.1-.1-.2-.1-.4-.1-.4 0-.6.2-.6.7v.5h.8v.5H31v2.9h-.4v-3H30v-.5h.6v-.5c0-.3.1-.6.3-.8.2-.2.5-.3.8-.3.2 0 .3 0 .4.1v.5H32zm2.3 4.5c-.5 0-.9-.2-1.2-.5-.3-.3-.5-.7-.5-1.2 0-.6.2-1 .5-1.3s.7-.5 1.3-.5c.5 0 .9.2 1.2.5.3.3.4.7.4 1.3 0 .5-.2 1-.5 1.3s-.7.4-1.2.4zm0-3c-.4 0-.6.1-.8.3s-.3.6-.3 1 .1.7.3.9c.2.2.5.3.8.3.4 0 .6-.1.8-.3s.3-.5.3-1c0-.4-.1-.7-.3-1-.2-.1-.4-.2-.8-.2zm4.7.1c-.1-.1-.2-.1-.4-.1s-.4.1-.6.3-.2.5-.2.9v1.7h-.5v-3.3h.5v.7c.1-.2.2-.4.4-.5.2-.1.3-.2.5-.2h.3v.5zm5.7 2.8h-.5v-1.9c0-.4-.1-.6-.2-.8-.1-.2-.3-.2-.6-.2-.2 0-.4.1-.6.3-.2.2-.2.5-.2.7v1.9h-.5v-2c0-.7-.3-1-.8-1-.2 0-.4.1-.6.3-.2.2-.2.5-.2.8v1.9H40v-3.3h.5v.5c.2-.4.6-.6 1.1-.6.2 0 .4.1.6.2s.3.3.4.5c.3-.5.6-.7 1.1-.7.8 0 1.1.5 1.1 1.4v2h-.1zm3.8 0H48v-.5c-.2.4-.6.6-1 .6-.3 0-.6-.1-.8-.3s-.3-.4-.3-.7c0-.6.4-1 1.1-1.1l1-.1c0-.6-.2-.8-.7-.8-.4 0-.8.1-1.1.4v-.5c.3-.2.7-.3 1.2-.3.8 0 1.2.4 1.2 1.2l-.1 2.1zm-.5-1.7l-.8.1c-.3 0-.4.1-.6.2-.1.1-.2.2-.2.5 0 .2.1.3.2.4s.3.2.5.2c.3 0 .5-.1.7-.3s.3-.4.3-.7l-.1-.4zm4.2 1.6c-.3.2-.6.2-.9.2-.5 0-.9-.2-1.2-.5s-.4-.7-.4-1.2.2-1 .5-1.3.8-.5 1.3-.5c.3 0 .6.1.8.2v.5c-.3-.2-.5-.3-.8-.3s-.6.1-.9.4c-.2.2-.3.6-.3 1s.1.7.3.9c.2.2.5.3.8.3s.6-.1.8-.3v.6zm1.5-4.1c-.1 0-.2 0-.3-.1s-.1-.1-.1-.2 0-.2.1-.2c.1-.1.2-.1.3-.1s.2 0 .3.1.1.1.1.2 0 .2-.1.2c-.1.1-.2.1-.3.1zm.3 4.2h-.5v-3.3h.5v3.3zm2.8.1c-.5 0-.9-.2-1.2-.5s-.5-.7-.5-1.2c0-.6.2-1 .5-1.3s.7-.5 1.3-.5c.5 0 .9.2 1.2.5s.4.7.4 1.3c0 .5-.2 1-.5 1.3s-.7.4-1.2.4zm.1-3c-.4 0-.6.1-.8.3s-.3.6-.3 1 .1.7.3.9c.2.2.5.3.8.3.4 0 .6-.1.8-.3s.3-.5.3-1c0-.4-.1-.7-.3-1-.2-.1-.5-.2-.8-.2zm.8-2.1l-.9 1.1h-.4l.7-1.1h.6zm4.9 5h-.5v-1.9c0-.7-.3-1.1-.8-1.1-.3 0-.5.1-.7.3s-.3.5-.3.8v1.9h-.5v-3.3h.5v.6c.3-.4.6-.6 1.1-.6.4 0 .7.1.9.4s.3.6.3 1v1.9zm6 0h-.5v-.5c-.2.4-.6.6-1 .6-.3 0-.6-.1-.8-.3s-.3-.4-.3-.7c0-.6.4-1 1.1-1.1l1-.1c0-.6-.2-.8-.7-.8-.4 0-.8.1-1.1.4v-.5c.3-.2.7-.3 1.2-.3.8 0 1.2.4 1.2 1.2l-.1 2.1zm-.6-1.7l-.8.1c-.3 0-.4.1-.6.2-.1.1-.2.2-.2.5 0 .2.1.3.2.4.1.1.3.2.5.2.3 0 .5-.1.7-.3s.3-.4.3-.7l-.1-.4zm4.3 1.6c-.3.2-.6.2-.9.2-.5 0-.9-.2-1.2-.5s-.4-.7-.4-1.2.2-1 .5-1.3.8-.5 1.3-.5c.3 0 .6.1.8.2v.5c-.3-.2-.5-.3-.8-.3s-.6.1-.9.4c-.2.2-.3.6-.3 1s.1.7.3.9.5.3.8.3.6-.1.8-.3v.6zm2.7.1c-.1.1-.3.1-.5.1-.6 0-.9-.3-.9-1v-2H73v-.5h.6v-.8l.5-.2v1h.9v.5h-.9v1.9c0 .2 0 .4.1.5s.2.1.4.1c.1 0 .3 0 .4-.1v.5zm3.9 0h-.5v-.5c-.2.4-.6.6-1.1.6-.8 0-1.2-.5-1.2-1.4v-2h.5v1.9c0 .7.3 1.1.8 1.1.3 0 .5-.1.7-.3.2-.2.3-.4.3-.8v-1.9h.5v3.3zm3.9 0h-.5v-.5c-.2.4-.6.6-1 .6-.3 0-.6-.1-.8-.3s-.3-.4-.3-.7c0-.6.4-1 1.1-1.1l1-.1c0-.6-.2-.8-.7-.8-.4 0-.8.1-1.1.4v-.5c.3-.2.7-.3 1.2-.3.8 0 1.2.4 1.2 1.2l-.1 2.1zm-.6-1.7l-.8.1c-.3 0-.4.1-.6.2-.1.1-.2.2-.2.5 0 .2.1.3.2.4.1.1.3.2.5.2.3 0 .5-.1.7-.3s.3-.4.3-.7l-.1-.4zm2.5 1.7h-.5v-4.9h.5v4.9zm1.7-4.2c-.1 0-.2 0-.3-.1s-.1-.1-.1-.2 0-.2.1-.2c.1-.1.2-.1.3-.1s.2 0 .3.1.1.1.1.2 0 .2-.1.2c-.1.1-.2.1-.3.1zm.3 4.2h-.5v-3.3h.5v3.3zm3.8-3.2l-2 2.7h2v.5h-2.8v-.2l2-2.7h-1.8v-.5h2.6v.2zm3.5 3.2h-.5v-.5c-.2.4-.6.6-1 .6-.3 0-.6-.1-.8-.3s-.3-.4-.3-.7c0-.6.4-1 1.1-1.1l1-.1c0-.6-.2-.8-.7-.8-.4 0-.8.1-1.1.4v-.5c.3-.2.7-.3 1.2-.3.8 0 1.2.4 1.2 1.2l-.1 2.1zm-.6-1.7l-.8.1c-.3 0-.4.1-.6.2-.1.1-.2.2-.2.5 0 .2.1.3.2.4.1.1.3.2.5.2.3 0 .5-.1.7-.3s.3-.4.3-.7l-.1-.4zm4.9 1.7h-.5v-.6c-.3.4-.6.6-1.2.6-.4 0-.8-.1-1-.4-.3-.3-.4-.7-.4-1.2 0-.6.1-1 .4-1.3.3-.3.7-.5 1.1-.5.5 0 .8.2 1 .5v-2h.5l.1 4.9zm-.6-1.5v-.5c0-.3-.1-.5-.3-.7s-.4-.3-.7-.3-.6.1-.8.4c-.2.2-.3.6-.3 1s.1.7.3.9c.2.2.4.3.7.3s.6-.1.7-.3c.3-.2.4-.5.4-.8zm4.4 1.5h-.5v-.5c-.2.4-.6.6-1 .6-.3 0-.6-.1-.8-.3s-.3-.4-.3-.7c0-.6.4-1 1.1-1.1l1-.1c0-.6-.2-.8-.7-.8-.4 0-.8.1-1.1.4v-.5c.3-.2.7-.3 1.2-.3.8 0 1.2.4 1.2 1.2l-.1 2.1zm-.5-1.7l-.8.1c-.3 0-.4.1-.6.2-.1.1-.2.2-.2.5 0 .2.1.3.2.4.1.1.3.2.5.2.3 0 .5-.1.7-.3s.3-.4.3-.7l-.1-.4zm6.9.2h-2.4c0 .4.1.7.3.9.2.2.5.3.8.3.4 0 .7-.1 1.1-.4v.5c-.3.2-.7.3-1.2.3s-.9-.2-1.1-.5-.4-.7-.4-1.3c0-.5.2-.9.5-1.3.3-.3.7-.5 1.1-.5s.8.1 1 .4.4.7.4 1.2v.4h-.1zm-.6-.5c0-.3-.1-.5-.2-.7-.2-.2-.4-.3-.6-.3-.3 0-.5.1-.7.3-.2.2-.3.4-.3.7h1.8zm4.6 2h-.5v-1.9c0-.7-.3-1.1-.8-1.1-.3 0-.5.1-.7.3s-.3.5-.3.8v1.9h-.6v-3.3h.5v.6c.3-.4.6-.6 1.1-.6.4 0 .7.1.9.4s.3.6.3 1v1.9h.1zm-63.7 6.7c-.1.1-.3.1-.5.1-.6 0-.9-.3-.9-1v-2h-.6v-.5h.6v-.8l.5-.2v1h.9v.5h-.9v1.9c0 .2 0 .4.1.5s.2.1.4.1c.1 0 .3 0 .4-.1v.5zm1.4-4.2c-.1 0-.2 0-.3-.1-.1-.1-.1-.1-.1-.2s0-.2.1-.2c.1-.1.2-.1.3-.1.1 0 .2 0 .3.1.1.1.1.1.1.2s0 .2-.1.2c-.2.1-.2.1-.3.1zm.2 4.2h-.5v-3.3h.5v3.3zm4.2-1.5h-2.4c0 .4.1.7.3.9.2.2.5.3.8.3.4 0 .7-.1 1.1-.4v.5c-.3.2-.7.3-1.2.3s-.9-.2-1.1-.5-.4-.7-.4-1.3c0-.5.2-.9.5-1.3.3-.3.7-.5 1.1-.5s.8.1 1 .4.4.7.4 1.2v.4h-.1zm-.5-.5c0-.3-.1-.5-.2-.7-.2-.2-.4-.3-.6-.3-.3 0-.5.1-.7.3-.2.2-.3.4-.3.7h1.8zm6.5 2h-.5V206c0-.4-.1-.6-.2-.8-.1-.2-.3-.2-.6-.2-.2 0-.4.1-.6.3-.2.2-.2.5-.2.7v1.9H58v-2c0-.7-.3-1-.8-1-.2 0-.4.1-.6.3-.2.2-.2.5-.2.8v1.9h-.5v-3.3h.5v.5c.2-.4.6-.6 1.1-.6.2 0 .4.1.6.2.2.1.3.3.4.5.3-.5.6-.7 1.1-.7.8 0 1.1.5 1.1 1.4v2h-.1zm2-.5v2h-.5v-4.9h.5v.6c.3-.4.7-.7 1.2-.7.4 0 .8.1 1 .4s.4.7.4 1.2c0 .6-.1 1-.4 1.3-.3.3-.7.5-1.1.5-.6.2-.9 0-1.1-.4zm-.1-1.3v.5c0 .3.1.5.3.7s.4.3.7.3.6-.1.8-.4c.2-.2.3-.6.3-1s-.1-.7-.3-.9c-.2-.2-.4-.3-.7-.3s-.6.1-.8.3c-.2.2-.3.4-.3.8zm5.3 1.9c-.5 0-.9-.2-1.2-.5s-.5-.7-.5-1.2c0-.6.2-1 .5-1.3s.7-.5 1.3-.5c.5 0 .9.2 1.2.5s.4.7.4 1.3c0 .5-.2 1-.5 1.3s-.7.4-1.2.4zm0-3.1c-.4 0-.6.1-.8.3s-.3.6-.3 1 .1.7.3.9c.2.2.5.3.8.3.4 0 .6-.1.8-.3s.3-.5.3-1c0-.4-.1-.7-.3-1-.2-.1-.4-.2-.8-.2zm6.9.2c-.1-.1-.2-.1-.4-.1s-.4.1-.6.3-.2.5-.2.9v1.7H73v-3.3h.5v.7c.1-.2.2-.4.4-.5s.3-.2.5-.2h.3v.5zm3.7 1.3H76c0 .4.1.7.3.9.2.2.5.3.8.3.4 0 .7-.1 1.1-.4v.5c-.3.2-.7.3-1.2.3s-.9-.2-1.1-.5-.4-.7-.4-1.3c0-.5.2-.9.5-1.3.3-.3.7-.5 1.1-.5s.8.1 1 .4.4.7.4 1.2v.4h-.1zm-.6-.5c0-.3-.1-.5-.2-.7-.2-.2-.4-.3-.6-.3-.3 0-.5.1-.7.3-.2.2-.3.4-.3.7h1.8zm4.2 2h-.5v-.5c-.2.4-.6.6-1 .6-.3 0-.6-.1-.8-.3s-.3-.4-.3-.7c0-.6.4-1 1.1-1.1l1-.1c0-.6-.2-.8-.7-.8-.4 0-.8.1-1.1.4v-.5c.3-.2.7-.3 1.2-.3.8 0 1.2.4 1.2 1.2l-.1 2.1zm-.6-1.7l-.8.1c-.3 0-.4.1-.6.2-.1.1-.2.2-.2.5 0 .2.1.3.2.4.1.1.3.2.5.2.3 0 .5-.1.7-.3s.3-.4.3-.7l-.1-.4zm2.5 1.7h-.5V203h.5v4.9zm-45.3 5h-1.8v-.4h1.8v.4zm8.5 1.7h-.5v-4c-.1.2-.1.4-.1.5l-1.6 3.6h-.3l-1.6-3.6c0-.1-.1-.3-.1-.5v4h-.5v-4.7h.7l1.5 3.3c.1.2.2.4.2.6.1-.3.2-.4.2-.6l1.5-3.2h.7l-.1 4.6zm4.3 0h-.5v-.5c-.2.4-.6.6-1.1.6-.8 0-1.2-.5-1.2-1.4v-2h.5v1.9c0 .7.3 1.1.8 1.1.3 0 .5-.1.7-.3.2-.2.3-.4.3-.8v-1.9h.5v3.3zm2 0h-.5v-4.9h.5v4.9zm3-.1c-.1.1-.3.1-.5.1-.6 0-.9-.3-.9-1v-2h-.6v-.5h.6v-.8l.5-.2v1h.9v.5h-.8v1.9c0 .2 0 .4.1.5s.2.1.4.1c.1 0 .3 0 .4-.1l-.1.5zm1.4-4.1c-.1 0-.2 0-.3-.1s-.1-.1-.1-.2 0-.2.1-.2c.1-.1.2-.1.3-.1s.2 0 .3.1.1.1.1.2 0 .2-.1.2l-.3.1zm.2 4.2h-.5v-3.3h.5v3.3zm2-.5v2h-.5v-4.9h.5v.6c.3-.4.7-.7 1.2-.7.4 0 .8.1 1 .4s.4.7.4 1.2c0 .6-.1 1-.4 1.3-.3.3-.7.5-1.1.5-.5.1-.8 0-1.1-.4zm0-1.4v.5c0 .3.1.5.3.7s.4.3.7.3.6-.1.8-.4c.2-.2.3-.6.3-1s-.1-.7-.3-.9c-.2-.2-.4-.3-.7-.3s-.6.1-.8.3c-.2.2-.3.5-.3.8zm4.4 1.9h-.5v-4.9h.5v4.9zm3.9 0h-.5v-.5c-.2.4-.6.6-1 .6-.3 0-.6-.1-.8-.3s-.3-.4-.3-.7c0-.6.4-1 1.1-1.1l1-.1c0-.6-.2-.8-.7-.8-.4 0-.8.1-1.1.4v-.5c.3-.2.7-.3 1.2-.3.8 0 1.2.4 1.2 1.2l-.1 2.1zm-.6-1.7l-.8.1c-.3 0-.4.1-.6.2-.1.1-.2.2-.2.5 0 .2.1.3.2.4.1.1.3.2.5.2.3 0 .5-.1.7-.3s.3-.4.3-.7l-.1-.4zm3.5 1.6c-.1.1-.3.1-.5.1-.6 0-.9-.3-.9-1v-2h-.6v-.5h.6v-.8l.5-.2v1h.9v.5h-.9v1.9c0 .2 0 .4.1.5s.2.1.4.1c.1 0 .3 0 .4-.1v.5zm3.5.1h-.5v-.5c-.2.4-.6.6-1 .6-.3 0-.6-.1-.8-.3s-.3-.4-.3-.7c0-.6.4-1 1.1-1.1l1-.1c0-.6-.2-.8-.7-.8-.4 0-.8.1-1.1.4v-.5c.3-.2.7-.3 1.2-.3.8 0 1.2.4 1.2 1.2l-.1 2.1zm-.5-1.7l-.8.1c-.3 0-.4.1-.6.2-.1.1-.2.2-.2.5 0 .2.1.3.2.4.1.1.3.2.5.2.3 0 .5-.1.7-.3s.3-.4.3-.7l-.1-.4zm3.6-2.8c-.1-.1-.2-.1-.4-.1-.4 0-.6.2-.6.7v.5h.8v.5h-.8v2.9h-.5v-2.9h-.6v-.5h.6v-.5c0-.3.1-.6.3-.8.2-.2.5-.3.8-.3.2 0 .3 0 .4.1v.4zm2.2 4.5c-.5 0-.9-.2-1.2-.5s-.5-.7-.5-1.2c0-.6.2-1 .5-1.3s.7-.5 1.3-.5c.5 0 .9.2 1.2.5s.4.7.4 1.3c0 .5-.2 1-.5 1.3s-.7.4-1.2.4zm0-3c-.4 0-.6.1-.8.3s-.3.6-.3 1 .1.7.3.9c.2.2.5.3.8.3.4 0 .6-.1.8-.3s.3-.5.3-1c0-.4-.1-.7-.3-1-.1-.1-.4-.2-.8-.2zm4.7.2c-.1-.1-.2-.1-.4-.1s-.4.1-.6.3-.2.5-.2.9v1.7H83v-3.3h.5v.7c.1-.2.2-.4.4-.5s.3-.2.5-.2h.3v.5zm5.8 2.8H90v-1.9c0-.4-.1-.6-.2-.8-.1-.2-.3-.2-.6-.2-.2 0-.4.1-.6.3-.2.2-.2.5-.2.7v1.9h-.5v-2c0-.7-.3-1-.8-1-.2 0-.4.1-.6.3-.2.2-.2.5-.2.8v1.9h-.7v-3.3h.5v.5c.2-.4.6-.6 1.1-.6.2 0 .4.1.6.2.2.1.3.3.4.5.3-.5.6-.7 1.1-.7.8 0 1.1.5 1.1 1.4l.1 2zm3.8 0h-.5v-.5c-.2.4-.6.6-1 .6-.3 0-.6-.1-.8-.3s-.3-.4-.3-.7c0-.6.4-1 1.1-1.1l1-.1c0-.6-.2-.8-.7-.8-.4 0-.8.1-1.1.4v-.5c.3-.2.7-.3 1.2-.3.8 0 1.2.4 1.2 1.2l-.1 2.1zm-.6-1.7l-.8.1c-.3 0-.4.1-.6.2-.1.1-.2.2-.2.5 0 .2.1.3.2.4.1.1.3.2.5.2.3 0 .5-.1.7-.3s.3-.4.3-.7l-.1-.4zm-43.5 6.7h-1.8v-.4h1.8v.4zm6.1 1.6h-2.5v-4.7h2.4v.5h-1.9v1.6H56v.5h-1.7v1.6h2v.5zm1-.1v-.6c.3.2.6.3 1 .3.5 0 .7-.2.7-.5 0-.1 0-.2-.1-.2l-.2-.2c-.1 0-.2-.1-.2-.1l-.3-.1c-.2-.1-.3-.1-.4-.2l-.3-.2-.2-.3s-.1-.2-.1-.3c0-.2 0-.3.1-.4l.3-.3.4-.2.5-.1c.3 0 .6.1.8.2v.5c-.3-.2-.5-.2-.9-.2h-.3c-.1 0-.2.1-.2.1l-.1.1v.4s.1.1.1.2l.2.1s.2.1.3.1c.2.1.3.1.4.2l.3.2.2.3.1.3c0 .2 0 .3-.1.4l-.3.3-.4.2s-.3.1-.5.1c-.2.1-.5 0-.8-.1zm5.8 0c-.3.2-.6.2-.9.2-.5 0-.9-.2-1.2-.5s-.4-.7-.4-1.2.2-1 .5-1.3.8-.5 1.3-.5c.3 0 .6.1.8.2v.5c-.3-.2-.5-.3-.8-.3s-.6.1-.9.4c-.2.2-.3.6-.3 1s.1.7.3.9.5.3.8.3.6-.1.8-.3v.6zm3.6.1h-.5v-.5c-.2.4-.6.6-1 .6-.3 0-.6-.1-.8-.3s-.3-.4-.3-.7c0-.6.4-1 1.1-1.1l1-.1c0-.6-.2-.8-.7-.8-.4 0-.8.1-1.1.4v-.5c.3-.2.7-.3 1.2-.3.8 0 1.2.4 1.2 1.2l-.1 2.1zm-.6-1.7l-.8.1c-.3 0-.4.1-.6.2-.1.1-.2.2-.2.5 0 .2.1.3.2.4.1.1.3.2.5.2.3 0 .5-.1.7-.3s.3-.4.3-.7l-.1-.4zm2.5 1.7h-.5v-4.9h.5v4.9zm3.9 0H72v-.5c-.2.4-.6.6-1 .6-.3 0-.6-.1-.8-.3s-.3-.4-.3-.7c0-.6.4-1 1.1-1.1l1-.1c0-.6-.2-.8-.7-.8-.4 0-.8.1-1.1.4v-.5c.3-.2.7-.3 1.2-.3.8 0 1.2.4 1.2 1.2l-.1 2.1zm-.6-1.7l-.8.1c-.3 0-.4.1-.6.2-.1.1-.2.2-.2.5 0 .2.1.3.2.4.1.1.3.2.5.2.3 0 .5-.1.7-.3s.3-.4.3-.7l-.1-.4zm2.5 1.2v.5h-.5v-4.9h.5v2.2c.3-.4.7-.7 1.2-.7.4 0 .8.1 1 .4s.4.7.4 1.2c0 .6-.1 1-.4 1.3-.3.3-.7.5-1.1.5-.5.1-.8-.1-1.1-.5zm0-1.3v.5c0 .3.1.5.3.7s.4.3.7.3.6-.1.8-.4c.2-.2.3-.6.3-1s-.1-.7-.3-.9c-.2-.2-.4-.3-.7-.3s-.6.1-.8.3c-.2.2-.3.5-.3.8zm4.4 1.8h-.5v-4.9h.5v4.9zm4.1-1.5h-2.4c0 .4.1.7.3.9.2.2.5.3.8.3.4 0 .7-.1 1.1-.4v.5c-.3.2-.7.3-1.2.3s-.9-.2-1.1-.5-.4-.7-.4-1.3c0-.5.2-.9.5-1.3.3-.3.7-.5 1.1-.5s.8.1 1 .4.4.7.4 1.2v.4h-.1zm-.5-.5c0-.3-.1-.5-.2-.7-.2-.2-.4-.3-.6-.3-.3 0-.5.1-.7.3-.2.2-.3.4-.3.7h1.8z"/></g><g class="st5"><path class="st0" d="M347.9 187.5h-2.3v7h-1v-7h-2.3v-.8h5.6v.8zm2.8 7.1h-.9v-7.9h.9v7.9zm6.9 0h-4.3v-7.9h4.1v.8h-3.1v2.6h2.9v.8h-2.9v2.8h3.3v.9zm10.3 0h-.9v-5.3c0-.4 0-.9.1-1.5-.1.4-.2.6-.2.8l-2.7 6h-.6l-2.7-6c-.1-.2-.2-.4-.2-.8v6.8h-.9v-7.9h1.2l2.5 5.5c.2.4.3.7.4.9.2-.4.3-.8.4-1l2.5-5.5h1.2l-.1 8zm3.7-3v3h-1v-7.9h2.2c.9 0 1.5.2 2 .6s.7 1 .7 1.7-.3 1.4-.8 1.8c-.5.5-1.2.7-2.1.7l-1 .1zm0-4.1v3.2h1c.7 0 1.1-.1 1.5-.4.3-.3.5-.7.5-1.2 0-1-.6-1.6-1.9-1.6h-1.1zm9.3 7.2c-1.1 0-2.1-.4-2.7-1.1-.7-.7-1-1.7-1-2.9 0-1.3.3-2.3 1-3s1.7-1.1 2.9-1.1c1.1 0 2 .4 2.7 1.1s1 1.7 1 2.9c0 1.3-.3 2.3-1 3-.8.7-1.8 1.1-2.9 1.1zm0-7.3c-.8 0-1.5.3-2.1.9s-.8 1.4-.8 2.3.3 1.7.8 2.3c.5.6 1.2.9 2 .9.9 0 1.6-.3 2.1-.8.5-.6.8-1.4.8-2.4s-.2-1.8-.7-2.4c-.5-.5-1.2-.8-2.1-.8z"/><path class="st6" d="M335.3 199.6h-1.8v-.4h1.8v.4zm7.3 1.6h-.6l-.5-1.3h-2l-.5 1.3h-.6l1.8-4.7h.6l1.8 4.7zm-1.3-1.8l-.8-2c0-.1 0-.2-.1-.3 0 .1 0 .2-.1.3l-.7 2h1.7zm5.1 1.8h-.5v-1.9c0-.7-.3-1.1-.8-1.1-.3 0-.5.1-.7.3s-.3.5-.3.8v1.9h-.5v-3.3h.5v.6c.3-.4.6-.6 1.1-.6.4 0 .7.1.9.4s.3.6.3 1v1.9zm3.8 0h-.5v-.5c-.2.4-.6.6-1 .6-.3 0-.6-.1-.8-.3s-.3-.4-.3-.7c0-.6.4-1 1.1-1.1l1-.1c0-.6-.2-.8-.7-.8-.4 0-.8.1-1.1.4v-.5c.3-.2.7-.3 1.2-.3.8 0 1.2.4 1.2 1.2v2.1h-.1zm-.5-1.7l-.8.1c-.3 0-.4.1-.6.2-.1.1-.2.2-.2.5 0 .2.1.3.2.4s.3.2.5.2c.3 0 .5-.1.7-.3s.3-.4.3-.7v-.4h-.1zm.1-3.3l-.9 1.1h-.4l.7-1.1h.6zm2.4 5h-.6v-4.9h.5v4.9h.1zm1.7-4.2c-.1 0-.2 0-.3-.1-.1-.1-.1-.1-.1-.2s0-.2.1-.2c.1-.1.2-.1.3-.1.1 0 .2 0 .3.1.1.1.1.1.1.2s0 .2-.1.2c-.1.1-.2.1-.3.1zm.3 4.2h-.6v-3.3h.5v3.3h.1zm1.2-.1v-.6c.3.2.6.3 1 .3.5 0 .7-.2.7-.5 0-.1 0-.2-.1-.2l-.2-.2c-.1 0-.2-.1-.2-.1l-.3-.1c-.2-.1-.3-.1-.4-.2l-.3-.2-.2-.3s-.1-.2-.1-.3c0-.2 0-.3.1-.4l.3-.3.4-.2.5-.1c.3 0 .6.1.8.2v.5c-.3-.2-.5-.2-.9-.2h-.3c-.1 0-.2.1-.2.1l-.1.1v.4s.1.1.1.2l.2.1s.2.1.3.1c.2.1.3.1.4.2l.3.2.2.3.1.3c0 .2 0 .3-.1.4l-.3.3-.4.2s-.3.1-.5.1c-.2.1-.5 0-.8-.1zm3.7-4.1c-.1 0-.2 0-.3-.1-.1-.1-.1-.1-.1-.2s0-.2.1-.2c.1-.1.2-.1.3-.1.1 0 .2 0 .3.1.1.1.1.1.1.2s0 .2-.1.2c-.1.1-.2.1-.3.1zm.3 4.2h-.5v-3.3h.5v3.3zm1.2-.1v-.6c.3.2.6.3 1 .3.5 0 .7-.2.7-.5 0-.1 0-.2-.1-.2l-.2-.2c-.1 0-.2-.1-.2-.1l-.3-.1c-.2-.1-.3-.1-.4-.2l-.3-.2-.2-.3s-.1-.2-.1-.3c0-.2 0-.3.1-.4l.3-.3.4-.2.5-.1c.3 0 .6.1.8.2v.5c-.3-.2-.5-.2-.9-.2h-.3c-.1 0-.2.1-.2.1l-.1.1v.4s.1.1.1.2l.2.1s.2.1.3.1c.2.1.3.1.4.2l.3.2.2.3.1.3c0 .2 0 .3-.1.4l-.3.3-.4.2s-.3.1-.5.1c-.2.1-.5 0-.8-.1zm8.6.1h-.6v-.6c-.3.4-.6.6-1.2.6-.4 0-.8-.1-1-.4-.3-.3-.4-.7-.4-1.2 0-.6.1-1 .4-1.3s.7-.5 1.1-.5c.5 0 .8.2 1 .5v-2h.5v4.9h.2zm-.6-1.5v-.5c0-.3-.1-.5-.3-.7-.2-.2-.4-.3-.7-.3-.3 0-.6.1-.8.4-.2.2-.3.6-.3 1s.1.7.3.9c.2.2.4.3.7.3.3 0 .6-.1.7-.3.4-.2.4-.5.4-.8zm4.8 0H371c0 .4.1.7.3.9.2.2.5.3.8.3.4 0 .7-.1 1.1-.4v.5c-.3.2-.7.3-1.2.3s-.9-.2-1.1-.5-.4-.7-.4-1.3c0-.5.2-.9.5-1.3.3-.3.7-.5 1.1-.5s.8.1 1 .4.4.7.4 1.2l-.1.4zm-.6-.5c0-.3-.1-.5-.2-.7-.2-.2-.4-.3-.6-.3-.3 0-.5.1-.7.3-.2.2-.3.4-.3.7h1.8zm6.9 2h-.5v-.6c-.3.4-.6.6-1.2.6-.4 0-.8-.1-1-.4-.3-.3-.4-.7-.4-1.2 0-.6.1-1 .4-1.3s.7-.5 1.1-.5c.5 0 .8.2 1 .5v-2h.5v4.9h.1zm-.6-1.5v-.5c0-.3-.1-.5-.3-.7-.2-.2-.4-.3-.7-.3-.3 0-.6.1-.8.4-.2.2-.3.6-.3 1s.1.7.3.9c.2.2.4.3.7.3.3 0 .6-.1.7-.3.3-.2.4-.5.4-.8zm4.5 1.5h-.5v-.5c-.2.4-.6.6-1 .6-.3 0-.6-.1-.8-.3s-.3-.4-.3-.7c0-.6.4-1 1.1-1.1l1-.1c0-.6-.2-.8-.7-.8-.4 0-.8.1-1.1.4v-.5c.3-.2.7-.3 1.2-.3.8 0 1.2.4 1.2 1.2v2.1h-.1zm-.6-1.7l-.8.1c-.3 0-.4.1-.6.2-.1.1-.2.2-.2.5 0 .2.1.3.2.4s.3.2.5.2c.3 0 .5-.1.7-.3s.3-.4.3-.7v-.4h-.1zm3.5 1.7c-.1.1-.3.1-.5.1-.6 0-.9-.3-.9-1v-2h-.6v-.5h.6v-.8l.5-.2v1h.9v.5h-.9v1.9c0 .2 0 .4.1.5s.2.1.4.1c.1 0 .3 0 .4-.1v.5zm2.5.1c-.5 0-.9-.2-1.2-.5-.3-.3-.5-.7-.5-1.2 0-.6.2-1 .5-1.3s.7-.5 1.3-.5c.5 0 .9.2 1.2.5.3.3.4.7.4 1.3 0 .5-.2 1-.5 1.3s-.7.4-1.2.4zm0-3c-.4 0-.6.1-.8.3s-.3.6-.3 1 .1.7.3.9c.2.2.5.3.8.3.4 0 .6-.1.8-.3s.3-.5.3-1c0-.4-.1-.7-.3-1-.1-.1-.4-.2-.8-.2zm2.7 2.8v-.6c.3.2.6.3 1 .3.5 0 .7-.2.7-.5 0-.1 0-.2-.1-.2l-.2-.2c-.1 0-.2-.1-.2-.1l-.3-.1c-.2-.1-.3-.1-.4-.2l-.3-.2-.2-.3s-.1-.2-.1-.3c0-.2 0-.3.1-.4l.3-.3.4-.2.5-.1c.3 0 .6.1.8.2v.5c-.3-.2-.5-.2-.9-.2h-.3c-.1 0-.2.1-.2.1l-.1.1v.4s.1.1.1.2l.2.1s.2.1.3.1c.2.1.3.1.4.2l.3.2.2.3.1.3c0 .2 0 .3-.1.4l-.3.3-.4.2s-.3.1-.5.1c-.2.1-.5 0-.8-.1zm-72.2 5.1h-1.9v-.4h1.8v.4h.1zm6.1 1.7h-2.5v-4.7h2.4v.5h-1.9v1.6h1.7v.5h-1.7v1.6h2v.5zm1-.1v-.6c.3.2.6.3 1 .3.5 0 .7-.2.7-.5 0-.1 0-.2-.1-.2l-.2-.2c-.1 0-.2-.1-.2-.1l-.3-.1c-.2-.1-.3-.1-.4-.2l-.3-.2-.2-.3s-.1-.2-.1-.3c0-.2 0-.3.1-.4l.3-.3.4-.2.5-.1c.3 0 .6.1.8.2v.5c-.3-.2-.5-.2-.9-.2h-.3c-.1 0-.2.1-.2.1l-.1.1v.4s.1.1.1.2l.2.1s.2.1.3.1c.2.1.3.1.4.2l.3.2.2.3.1.3c0 .2 0 .3-.1.4l-.3.3-.4.2s-.3.1-.5.1c-.3.1-.6 0-.8-.1zm5 .1c-.1.1-.3.1-.5.1-.6 0-.9-.3-.9-1v-2h-.6v-.5h.6v-.8l.5-.2v1h.9v.5h-.9v1.9c0 .2 0 .4.1.5s.2.1.4.1c.1 0 .3 0 .4-.1v.5zm3.5 0h-.5v-.5c-.2.4-.6.6-1 .6-.3 0-.6-.1-.8-.3s-.3-.4-.3-.7c0-.6.4-1 1.1-1.1l1-.1c0-.6-.2-.8-.7-.8-.4 0-.8.1-1.1.4v-.5c.3-.2.7-.3 1.2-.3.8 0 1.2.4 1.2 1.2v2.1h-.1zm-.5-1.7l-.8.1c-.3 0-.4.1-.6.2-.1.1-.2.2-.2.5 0 .2.1.3.2.4s.3.2.5.2c.3 0 .5-.1.7-.3s.3-.4.3-.7v-.4h-.1zm4.8 1.7h-.5v-.6c-.3.4-.6.6-1.2.6-.4 0-.8-.1-1-.4-.3-.3-.4-.7-.4-1.2 0-.6.1-1 .4-1.3s.7-.5 1.1-.5c.5 0 .8.2 1 .5v-2.1h.5v5h.1zm-.6-1.5v-.5c0-.3-.1-.5-.3-.7-.2-.2-.4-.3-.7-.3-.3 0-.6.1-.8.4-.2.2-.3.6-.3 1s.1.7.3.9c.2.2.4.3.7.3.3 0 .6-.1.7-.3.4-.2.4-.5.4-.8zm3.1-3.5l-.9 1.1h-.4l.7-1.1h.6zm-.5 5h-.5v-3.3h.5v3.3zm1.2-.1v-.6c.3.2.6.3 1 .3.5 0 .7-.2.7-.5 0-.1 0-.2-.1-.2l-.2-.2c-.1 0-.2-.1-.2-.1l-.3-.1c-.2-.1-.3-.1-.4-.2l-.3-.2-.2-.3s-.1-.2-.1-.3c0-.2 0-.3.1-.4l.3-.3.4-.2.5-.1c.3 0 .6.1.8.2v.5c-.3-.2-.5-.2-.9-.2h-.3c-.1 0-.2.1-.2.1l-.1.1v.4s.1.1.1.2l.2.1s.2.1.3.1c.2.1.3.1.4.2l.3.2.2.3.1.3c0 .2 0 .3-.1.4l-.3.3-.4.2s-.3.1-.5.1c-.2.1-.5 0-.8-.1zm5.1.1c-.1.1-.3.1-.5.1-.6 0-.9-.3-.9-1v-2h-.6v-.5h.6v-.8l.5-.2v1h.9v.5h-.9v1.9c0 .2 0 .4.1.5s.2.1.4.1c.1 0 .3 0 .4-.1v.5zm1.3-4.2c-.1 0-.2 0-.3-.1-.1-.1-.1-.1-.1-.2s0-.2.1-.2c.1-.1.2-.1.3-.1.1 0 .2 0 .3.1.1.1.1.1.1.2s0 .2-.1.2c-.1.1-.2.1-.3.1zm.3 4.2h-.5v-3.3h.5v3.3zm3.7-.2c-.3.2-.6.2-.9.2-.5 0-.9-.2-1.2-.5s-.4-.7-.4-1.2.2-1 .5-1.3.8-.5 1.3-.5c.3 0 .6.1.8.2v.5c-.3-.2-.5-.3-.8-.3s-.6.1-.9.4c-.2.2-.3.6-.3 1s.1.7.3.9.5.3.8.3.6-.1.8-.3v.6zm3.6.2h-.5v-.5c-.2.4-.6.6-1 .6-.3 0-.6-.1-.8-.3s-.3-.4-.3-.7c0-.6.4-1 1.1-1.1l1-.1c0-.6-.2-.8-.7-.8-.4 0-.8.1-1.1.4v-.5c.3-.2.7-.3 1.2-.3.8 0 1.2.4 1.2 1.2v2.1h-.1zm-.5-1.7l-.8.1c-.3 0-.4.1-.6.2-.1.1-.2.2-.2.5 0 .2.1.3.2.4s.3.2.5.2c.3 0 .5-.1.7-.3s.3-.4.3-.7v-.4h-.1zm1.7 1.6v-.6c.3.2.6.3 1 .3.5 0 .7-.2.7-.5 0-.1 0-.2-.1-.2l-.2-.2c-.1 0-.2-.1-.2-.1l-.3-.1c-.2-.1-.3-.1-.4-.2l-.3-.2-.2-.3s-.1-.2-.1-.3c0-.2 0-.3.1-.4l.3-.3.4-.2.5-.1c.3 0 .6.1.8.2v.5c-.3-.2-.5-.2-.9-.2h-.3c-.1 0-.2.1-.2.1l-.1.1v.4s.1.1.1.2l.2.1s.2.1.3.1c.2.1.3.1.4.2l.3.2.2.3.1.3c0 .2 0 .3-.1.4l-.3.3-.4.2s-.3.1-.5.1c-.2.1-.5 0-.8-.1zm8.6.1h-.5v-.6c-.3.4-.6.6-1.2.6-.4 0-.8-.1-1-.4-.3-.3-.4-.7-.4-1.2 0-.6.1-1 .4-1.3s.7-.5 1.1-.5c.5 0 .8.2 1 .5v-2.1h.5v5h.1zm-.6-1.5v-.5c0-.3-.1-.5-.3-.7-.2-.2-.4-.3-.7-.3-.3 0-.6.1-.8.4-.2.2-.3.6-.3 1s.1.7.3.9c.2.2.4.3.7.3.3 0 .6-.1.7-.3.3-.2.4-.5.4-.8zm4.8 0h-2.4c0 .4.1.7.3.9.2.2.5.3.8.3.4 0 .7-.1 1.1-.4v.5c-.3.2-.7.3-1.2.3s-.9-.2-1.1-.5-.4-.7-.4-1.3c0-.5.2-.9.5-1.3.3-.3.7-.5 1.1-.5s.8.1 1 .4.4.7.4 1.2l-.1.4zm-.6-.5c0-.3-.1-.5-.2-.7-.2-.2-.4-.3-.6-.3-.3 0-.5.1-.7.3-.2.2-.3.4-.3.7h1.8zm6.3 1.8c-.3.2-.6.2-.9.2-.5 0-.9-.2-1.2-.5s-.4-.7-.4-1.2.2-1 .5-1.3.8-.5 1.3-.5c.3 0 .6.1.8.2v.5c-.3-.2-.5-.3-.8-.3s-.6.1-.9.4c-.2.2-.3.6-.3 1s.1.7.3.9.5.3.8.3.6-.1.8-.3v.6zm3.6.2h-.5v-.5c-.2.4-.6.6-1 .6-.3 0-.6-.1-.8-.3s-.3-.4-.3-.7c0-.6.4-1 1.1-1.1l1-.1c0-.6-.2-.8-.7-.8-.4 0-.8.1-1.1.4v-.5c.3-.2.7-.3 1.2-.3.8 0 1.2.4 1.2 1.2v2.1h-.1zm-.6-1.7l-.8.1c-.3 0-.4.1-.6.2-.1.1-.2.2-.2.5 0 .2.1.3.2.4s.3.2.5.2c.3 0 .5-.1.7-.3s.3-.4.3-.7v-.4h-.1zm2.5 1.7h-.5V203h.5v4.9zm1.7-4.2c-.1 0-.2 0-.3-.1-.1-.1-.1-.1-.1-.2s0-.2.1-.2c.1-.1.2-.1.3-.1.1 0 .2 0 .3.1.1.1.1.1.1.2s0 .2-.1.2c-.1.1-.2.1-.3.1zm.3 4.2h-.5v-3.3h.5v3.3zm3.1-4.5c-.1-.1-.2-.1-.4-.1-.4 0-.6.2-.6.7v.5h.8v.5h-.8v2.9h-.5V205h-.6v-.5h.6v-.5c0-.3.1-.6.3-.8.2-.2.5-.3.8-.3.2 0 .3 0 .4.1v.4zm1.1.3c-.1 0-.2 0-.3-.1-.1-.1-.1-.1-.1-.2s0-.2.1-.2c.1-.1.2-.1.3-.1.1 0 .2 0 .3.1.1.1.1.1.1.2s0 .2-.1.2c-.1.1-.2.1-.3.1zm.3 4.2h-.5v-3.3h.5v3.3zm3.7-.2c-.3.2-.6.2-.9.2-.5 0-.9-.2-1.2-.5s-.4-.7-.4-1.2.2-1 .5-1.3.8-.5 1.3-.5c.3 0 .6.1.8.2v.5c-.3-.2-.5-.3-.8-.3s-.6.1-.9.4c-.2.2-.3.6-.3 1s.1.7.3.9.5.3.8.3.6-.1.8-.3v.6zm3.6.2h-.5v-.5c-.2.4-.6.6-1 .6-.3 0-.6-.1-.8-.3s-.3-.4-.3-.7c0-.6.4-1 1.1-1.1l1-.1c0-.6-.2-.8-.7-.8-.4 0-.8.1-1.1.4v-.5c.3-.2.7-.3 1.2-.3.8 0 1.2.4 1.2 1.2v2.1h-.1zm-.5-1.7l-.8.1c-.3 0-.4.1-.6.2-.1.1-.2.2-.2.5 0 .2.1.3.2.4s.3.2.5.2c.3 0 .5-.1.7-.3s.3-.4.3-.7v-.4h-.1zm4.2 1.5c-.3.2-.6.2-.9.2-.5 0-.9-.2-1.2-.5s-.4-.7-.4-1.2.2-1 .5-1.3.8-.5 1.3-.5c.3 0 .6.1.8.2v.5c-.3-.2-.5-.3-.8-.3s-.6.1-.9.4c-.2.2-.3.6-.3 1s.1.7.3.9.5.3.8.3.6-.1.8-.3v.6zm1.5-4c-.1 0-.2 0-.3-.1-.1-.1-.1-.1-.1-.2s0-.2.1-.2c.1-.1.2-.1.3-.1.1 0 .2 0 .3.1.1.1.1.1.1.2s0 .2-.1.2c-.1.1-.2.1-.3.1zm.2 4.2h-.5v-3.3h.5v3.3zm2.9.1c-.5 0-.9-.2-1.2-.5-.3-.3-.5-.7-.5-1.2 0-.6.2-1 .5-1.3s.7-.5 1.3-.5c.5 0 .9.2 1.2.5.3.3.4.7.4 1.3 0 .5-.2 1-.5 1.3s-.7.4-1.2.4zm.1-3.1c-.4 0-.6.1-.8.3s-.3.6-.3 1 .1.7.3.9c.2.2.5.3.8.3.4 0 .6-.1.8-.3s.3-.5.3-1c0-.4-.1-.7-.3-1-.2-.1-.5-.2-.8-.2zm.8-2l-.9 1.1h-.4l.7-1.1h.6zm4.9 5h-.5V206c0-.7-.3-1.1-.8-1.1-.3 0-.5.1-.7.3s-.3.5-.3.8v1.9h-.5v-3.3h.5v.6c.3-.4.6-.6 1.1-.6.4 0 .7.1.9.4s.3.6.3 1v1.9zm-78.3 5h-1.8v-.4h1.8v.4zm6.9 1.5c-.4.2-.8.3-1.3.3-.7 0-1.2-.2-1.6-.6s-.6-1-.6-1.7.2-1.4.7-1.8c.5-.5 1-.7 1.7-.7.5 0 .8.1 1.1.2v.6c-.3-.2-.7-.3-1.1-.3-.5 0-1 .2-1.3.5-.3.4-.5.8-.5 1.4s.2 1 .5 1.4c.3.3.7.5 1.3.5.5 0 .9-.1 1.2-.3v.5h-.1zm1.8.2h-.5v-4.9h.5v4.9zm3.8 0h-.5v-.5c-.2.4-.6.6-1 .6-.3 0-.6-.1-.8-.3s-.3-.4-.3-.7c0-.6.4-1 1.1-1.1l1-.1c0-.6-.2-.8-.7-.8-.4 0-.8.1-1.1.4v-.5c.3-.2.7-.3 1.2-.3.8 0 1.2.4 1.2 1.2v2.1h-.1zm-.5-1.7l-.8.1c-.3 0-.4.1-.6.2-.1.1-.2.2-.2.5 0 .2.1.3.2.4s.3.2.5.2c.3 0 .5-.1.7-.3s.3-.4.3-.7v-.4h-.1zm1.7 1.5v-.6c.3.2.6.3 1 .3.5 0 .7-.2.7-.5 0-.1 0-.2-.1-.2l-.2-.2c-.1 0-.2-.1-.2-.1l-.3-.1c-.2-.1-.3-.1-.4-.2l-.3-.2-.2-.3s-.1-.2-.1-.3c0-.2 0-.3.1-.4l.3-.3.4-.2.5-.1c.3 0 .6.1.8.2v.5c-.3-.2-.5-.2-.9-.2h-.3c-.1 0-.2.1-.2.1l-.1.1v.4s.1.1.1.2l.2.1s.2.1.3.1c.2.1.3.1.4.2l.3.2.2.3.1.3c0 .2 0 .3-.1.4l-.3.3-.4.2s-.3.1-.5.1c-.2.1-.5.1-.8-.1zm3.7-4c-.1 0-.2 0-.3-.1-.1-.1-.1-.1-.1-.2s0-.2.1-.2c.1-.1.2-.1.3-.1.1 0 .2 0 .3.1.1.1.1.1.1.2s0 .2-.1.2l-.3.1zm.3 4.2h-.5v-3.3h.5v3.3zm3.1-4.5c-.1-.1-.2-.1-.4-.1-.4 0-.6.2-.6.7v.5h.8v.5h-.8v2.9h-.5v-2.9h-.6v-.5h.6v-.5c0-.3.1-.6.3-.8.2-.2.5-.3.8-.3.2 0 .3 0 .4.1v.4zm1.1.3c-.1 0-.2 0-.3-.1-.1-.1-.1-.1-.1-.2s0-.2.1-.2c.1-.1.2-.1.3-.1.1 0 .2 0 .3.1.1.1.1.1.1.2s0 .2-.1.2l-.3.1zm.3 4.2h-.5v-3.3h.5v3.3zm3.7-.2c-.3.2-.6.2-.9.2-.5 0-.9-.2-1.2-.5s-.4-.7-.4-1.2.2-1 .5-1.3.8-.5 1.3-.5c.3 0 .6.1.8.2v.5c-.3-.2-.5-.3-.8-.3s-.6.1-.9.4c-.2.2-.3.6-.3 1s.1.7.3.9.5.3.8.3.6-.1.8-.3v.6zm3.7.2h-.5v-.5c-.2.4-.6.6-1 .6-.3 0-.6-.1-.8-.3s-.3-.4-.3-.7c0-.6.4-1 1.1-1.1l1-.1c0-.6-.2-.8-.7-.8-.4 0-.8.1-1.1.4v-.5c.3-.2.7-.3 1.2-.3.8 0 1.2.4 1.2 1.2v2.1h-.1zm-.6-1.7l-.8.1c-.3 0-.4.1-.6.2-.1.1-.2.2-.2.5 0 .2.1.3.2.4s.3.2.5.2c.3 0 .5-.1.7-.3s.3-.4.3-.7v-.4h-.1zm4.2 1.5c-.3.2-.6.2-.9.2-.5 0-.9-.2-1.2-.5s-.4-.7-.4-1.2.2-1 .5-1.3.8-.5 1.3-.5c.3 0 .6.1.8.2v.5c-.3-.2-.5-.3-.8-.3s-.6.1-.9.4c-.2.2-.3.6-.3 1s.1.7.3.9.5.3.8.3.6-.1.8-.3v.6zm1.5-4c-.1 0-.2 0-.3-.1-.1-.1-.1-.1-.1-.2s0-.2.1-.2c.1-.1.2-.1.3-.1.1 0 .2 0 .3.1.1.1.1.1.1.2s0 .2-.1.2l-.3.1zm.3 4.2h-.5v-3.3h.5v3.3zm2.8 0c-.5 0-.9-.2-1.2-.5-.3-.3-.5-.7-.5-1.2 0-.6.2-1 .5-1.3s.7-.5 1.3-.5c.5 0 .9.2 1.2.5.3.3.4.7.4 1.3 0 .5-.2 1-.5 1.3s-.6.4-1.2.4zm.1-3c-.4 0-.6.1-.8.3s-.3.6-.3 1 .1.7.3.9c.2.2.5.3.8.3.4 0 .6-.1.8-.3s.3-.5.3-1c0-.4-.1-.7-.3-1-.2-.1-.5-.2-.8-.2zm.8-2.1l-.9 1.1h-.4l.7-1.1h.6zm4.9 5.1h-.5v-1.9c0-.7-.3-1.1-.8-1.1-.3 0-.5.1-.7.3s-.3.5-.3.8v1.9h-.5v-3.3h.5v.6c.3-.4.6-.6 1.1-.6.4 0 .7.1.9.4s.3.6.3 1v1.9zm4.1-.5v2h-.5v-4.9h.5v.6c.3-.4.7-.7 1.2-.7.4 0 .8.1 1 .4s.4.7.4 1.2c0 .6-.1 1-.4 1.3s-.7.5-1.1.5c-.5.1-.8 0-1.1-.4zm0-1.4v.5c0 .3.1.5.3.7.2.2.4.3.7.3.3 0 .6-.1.8-.4.2-.2.3-.6.3-1s-.1-.7-.3-.9c-.2-.2-.4-.3-.7-.3-.3 0-.6.1-.8.3-.2.2-.3.5-.3.8zm5.2 1.9c-.5 0-.9-.2-1.2-.5-.3-.3-.5-.7-.5-1.2 0-.6.2-1 .5-1.3s.7-.5 1.3-.5c.5 0 .9.2 1.2.5.3.3.4.7.4 1.3 0 .5-.2 1-.5 1.3s-.6.4-1.2.4zm.1-3c-.4 0-.6.1-.8.3s-.3.6-.3 1 .1.7.3.9c.2.2.5.3.8.3.4 0 .6-.1.8-.3s.3-.5.3-1c0-.4-.1-.7-.3-1-.2-.1-.5-.2-.8-.2zm4.6.2c-.1-.1-.2-.1-.4-.1s-.4.1-.6.3-.2.5-.2.9v1.7h-.5v-3.3h.5v.7c.1-.2.2-.4.4-.5.2-.1.3-.2.5-.2h.3v.5zm3.8 2.8h-.6v-4.7h.6v4.7zm5.3 0h-.6l-.5-1.3h-2l-.5 1.3h-.6l1.8-4.7h.6l1.8 4.7zm-1.3-1.8l-.8-2c0-.1 0-.2-.1-.3 0 .1 0 .2-.1.3l-.7 2h1.7z"/></g><path class="st7" d="M118.5 284.3H12.6c-5.9 0-10.6 4.8-10.6 10.6 0 5.9 4.8 10.6 10.6 10.6h105.9c5.9 0 10.6-4.8 10.6-10.6s-4.8-10.6-10.6-10.6z"/><path class="st3" d="M53.5 226.9V253c0 4.4-3.6 8-8 8H32c-4.4 0-8 3.6-8 8v11m53.7-53.1V253c0 4.4 3.6 8 8 8h13.5c4.4 0 8 3.6 8 8v11m-41.6-53.1V280"/><path class="st1" d="M32.9 299.9h-1.3l-1.6-2.6-.4-.6-.4-.4s-.3-.2-.5-.2l-.5-.1h-.9v3.9h-1.1v-9.1H29c.4 0 .8 0 1.1.1.3.1.6.3.9.5s.5.5.6.8.2.7.2 1.1c0 .3 0 .6-.1.9s-.2.5-.4.7c-.2.2-.4.4-.6.5-.3.1-.5.3-.9.3.2.1.3.1.4.2l.3.3.3.4.3.5 1.8 2.8zm-5.6-8.1v3.3h1.5c.3 0 .5 0 .8-.1l.6-.3c.2-.2.3-.3.4-.6.1-.2.1-.5.1-.7 0-.5-.2-.9-.5-1.1-.3-.3-.8-.4-1.4-.4l-1.5-.1zm12.3 5.1h-4.7c0 .7.2 1.3.6 1.7.4.4.9.6 1.6.6s1.4-.2 2.1-.7v1c-.6.4-1.4.6-2.3.6s-1.7-.3-2.2-.9c-.5-.6-.8-1.4-.8-2.5 0-1 .3-1.8.9-2.5.6-.6 1.3-1 2.2-1s1.5.3 2 .8.7 1.3.7 2.3l-.1.6zm-1.1-.9c0-.6-.2-1.1-.4-1.4-.3-.3-.7-.5-1.2-.5s-.9.2-1.3.5c-.4.4-.6.8-.6 1.4h3.5zm8.9 3.9h-1.1v-3.7c0-1.4-.5-2.1-1.5-2.1-.5 0-1 .2-1.3.6-.3.4-.5.9-.5 1.5v3.7h-1.1v-6.5H43v1.1c.5-.8 1.2-1.2 2.2-1.2.7 0 1.3.2 1.7.7.4.5.6 1.1.6 2l-.1 3.9zm8.3 0h-1.1v-1.1c-.5.8-1.3 1.3-2.3 1.3-.8 0-1.5-.3-2-.9-.5-.6-.8-1.4-.8-2.4 0-1.1.3-1.9.8-2.6.6-.6 1.3-1 2.2-1s1.6.4 2 1.1v-4h1.1v9.6h.1zm-1-3v-1c0-.5-.2-1-.5-1.3-.4-.4-.8-.5-1.4-.5-.6 0-1.2.2-1.5.7s-.6 1.1-.6 1.9c0 .7.2 1.3.5 1.8s.8.7 1.4.7c.6 0 1.1-.2 1.4-.6.5-.5.7-1 .7-1.7zm4.4-5.2c-.2 0-.4-.1-.5-.2-.1-.1-.2-.3-.2-.5s.1-.4.2-.5c.1-.1.3-.2.5-.2s.4.1.5.2c.1.1.2.3.2.5s-.1.3-.2.5-.3.2-.5.2zm.5 8.2h-1v-6.5h1.1v6.5h-.1zm12.3 0h-1.1v-3.7c0-.7-.1-1.2-.3-1.6-.2-.3-.6-.5-1.1-.5s-.8.2-1.2.6c-.3.4-.5.9-.5 1.5v3.7h-1.1V296c0-1.3-.5-1.9-1.5-1.9-.5 0-.9.2-1.2.6-.3.4-.5.9-.5 1.5v3.7h-1.1v-6.5h1.1v1c.5-.8 1.2-1.2 2.1-1.2.5 0 .9.1 1.2.4.3.2.6.6.7 1 .5-.9 1.2-1.3 2.2-1.3 1.5 0 2.2.9 2.2 2.6v4h.1zm3.2-8.2c-.2 0-.4-.1-.5-.2-.1-.1-.2-.3-.2-.5s.1-.4.2-.5c.1-.1.3-.2.5-.2s.4.1.5.2c.1.1.2.3.2.5s-.1.3-.2.5-.3.2-.5.2zm.5 8.2h-1v-6.5h1.1v6.5h-.1zm8.2-3h-4.7c0 .7.2 1.3.6 1.7.4.4.9.6 1.6.6.7 0 1.4-.2 2.1-.7v1c-.6.4-1.4.6-2.3.6-.9 0-1.7-.3-2.2-.9-.5-.6-.8-1.4-.8-2.5 0-1 .3-1.8.9-2.5.6-.6 1.3-1 2.2-1s1.5.3 2 .8.7 1.3.7 2.3v.6h-.1zm-1.1-.9c0-.6-.2-1.1-.4-1.4-.3-.3-.7-.5-1.2-.5s-.9.2-1.3.5c-.4.4-.6.8-.6 1.4h3.5zm8.9 3.9h-1.1v-3.7c0-1.4-.5-2.1-1.5-2.1-.5 0-1 .2-1.3.6-.3.4-.5.9-.5 1.5v3.7h-1.1v-6.5h1.1v1.1c.5-.8 1.2-1.2 2.2-1.2.7 0 1.3.2 1.7.7s.6 1.1.6 2l-.1 3.9zm5.8-.1c-.3.1-.6.2-1 .2-1.2 0-1.7-.6-1.7-1.9v-3.8h-1.1v-.9h1.1v-1.6l1.1-.3v1.9h1.7v.9h-1.7v3.7c0 .4.1.7.2.9.1.2.4.3.8.3.3 0 .5-.1.7-.2v.8h-.1zm4.8.2c-1 0-1.8-.3-2.4-.9-.6-.6-.9-1.4-.9-2.4 0-1.1.3-1.9.9-2.6.6-.6 1.4-.9 2.5-.9 1 0 1.8.3 2.3.9.6.6.8 1.4.8 2.5 0 1-.3 1.9-.9 2.5-.5.6-1.3.9-2.3.9zm.1-5.9c-.7 0-1.2.2-1.6.7s-.6 1.1-.6 1.9.2 1.4.6 1.8c.4.4.9.7 1.6.7.7 0 1.2-.2 1.6-.7.4-.4.6-1.1.6-1.9s-.2-1.4-.6-1.9-.9-.6-1.6-.6z"/><path class="st7" d="M26 280c0 1.1-.9 2-2 2s-2-.9-2-2 .9-2 2-2 2 .9 2 2zm41.6 0c0 1.1-.9 2-2 2s-2-.9-2-2 .9-2 2-2 2 .9 2 2zm41.5 0c0 1.1-.9 2-2 2s-2-.9-2-2 .9-2 2-2 2 .9 2 2z"/><path class="st3" d="M351.5 226.9V253c0 4.4-3.6 8-8 8H330c-4.4 0-8 3.6-8 8v11m53.7-53.1V253c0 4.4 3.6 8 8 8h13.5c4.4 0 8 3.6 8 8v11m-41.6-53.1V280"/><path class="st0" d="M324.1 280c0 1.1-.9 2-2 2s-2-.9-2-2 .9-2 2-2 2 .9 2 2zm41.6 0c0 1.1-.9 2-2 2s-2-.9-2-2 .9-2 2-2 2 .9 2 2z"/><path class="st3" d="M24 309.1v9.9c0 4.4 3.6 8 8 8h67.1c4.4 0 8-3.6 8-8v-9.9m-41.5 0v66.3c0 4.4 3.6 8 8 8h49m282.6-74.3v9.9c0 4.4-3.6 8-8 8h-67.1c-4.4 0-8-3.6-8-8v-9.9m41.5 0v66.3c0 4.4-3.6 8-8 8h-49"/><path class="st2" d="M280.6 362.6h-132c-11.5 0-20.8 9.3-20.8 20.8s9.3 20.8 20.8 20.8h132c11.5 0 20.8-9.3 20.8-20.8s-9.3-20.8-20.8-20.8z"/><path class="st1" d="M200.1 385.6c0 .6-.1 1.1-.3 1.6s-.4.9-.8 1.2c-.4.3-.8.6-1.3.7-.5.2-1.1.3-1.7.3s-1.2-.1-1.7-.2-.9-.4-1.2-.7c-.3-.3-.6-.7-.8-1.1-.2-.5-.3-1-.3-1.6v-5.9s.1-.1.2-.1.2 0 .3-.1h1c.1 0 .2 0 .3.1l.2.1v5.7c0 .4 0 .7.1 1s.2.5.4.7c.2.2.4.3.6.4.2.1.5.1.8.1s.6 0 .8-.1c.2-.1.5-.2.6-.4.2-.2.3-.4.4-.7.1-.3.1-.6.1-.9v-5.8s.1-.1.2-.1.2 0 .3-.1h1s.2 0 .3.1l.2.1v5.7h.3zm6.7 2.6v.5c0 .1-.1.2-.1.2s-.1.1-.2.1-.2.1-.3.1c-.1 0-.2 0-.4.1h-.4c-.4 0-.7 0-1-.1-.3-.1-.5-.2-.7-.4s-.3-.4-.4-.7c-.1-.3-.1-.6-.1-1v-3.4h-.8c-.1 0-.2-.1-.2-.2-.1-.1-.1-.3-.1-.6v-.4s0-.2.1-.2c0-.1.1-.1.1-.1h.9v-1.6s.1-.1.2-.1.2 0 .3-.1h1c.1 0 .2 0 .3.1.1.1.1.1.2.1v1.6h1.6l.1.1c0 .1 0 .1.1.2v.4c0 .3 0 .5-.1.6-.1.1-.1.2-.2.2h-1.5v3.1c0 .4.1.6.2.8.1.2.3.3.6.3h.3c.1 0 .2 0 .2-.1l.2-.1h.2s0 .1.1.1v.2c-.2.1-.2.2-.2.3zm8.8-2.7c0 .6-.1 1.1-.2 1.5-.1.4-.4.9-.7 1.2-.3.3-.7.6-1.2.8-.5.2-1 .3-1.6.3s-1.1-.1-1.6-.2c-.4-.2-.8-.4-1.1-.7-.3-.3-.5-.7-.6-1.1-.1-.5-.2-1-.2-1.5 0-.6.1-1.1.2-1.5.2-.5.4-.9.7-1.2.3-.3.7-.6 1.1-.8.5-.2 1-.3 1.6-.3s1.1.1 1.6.2c.4.2.8.4 1.1.7.3.3.5.7.6 1.1.2.4.3.9.3 1.5zm-1.9.1c0-.3 0-.6-.1-.9s-.1-.5-.3-.7c-.1-.2-.3-.4-.5-.5-.2-.1-.5-.2-.8-.2s-.5.1-.7.2c-.2.1-.4.2-.5.4s-.2.4-.3.7c-.1.3-.1.6-.1.9s0 .6.1.9.1.5.3.7.3.4.5.5c.2.1.5.2.8.2s.5-.1.7-.2c.2-.1.4-.2.5-.4s.2-.4.3-.7c.1-.3.1-.6.1-.9zm10.9-.1c0 .6-.1 1.1-.2 1.6s-.3.9-.6 1.2c-.3.3-.6.6-.9.8-.4.2-.8.3-1.3.3-.2 0-.4 0-.5-.1-.2 0-.3-.1-.5-.2l-.5-.3s-.3-.2-.5-.4v3.2s-.1.1-.2.1-.2 0-.3.1h-1c-.1 0-.2 0-.3-.1l-.2-.1v-9.4l.1-.1c.1 0 .1 0 .2-.1h.8c.1 0 .2 0 .2.1.1 0 .1.1.1.1v.9c.2-.2.4-.4.6-.5l.6-.4c.2-.1.4-.2.6-.2s.4-.1.7-.1c.5 0 .9.1 1.3.3.3.2.6.4.8.8.2.4.4.7.5 1.1.5.4.5.9.5 1.4zm-1.9.1c0-.3 0-.5-.1-.8 0-.3-.1-.5-.2-.7s-.2-.4-.4-.5c-.2-.1-.4-.2-.6-.2-.1 0-.3 0-.4.1-.1 0-.2.1-.4.2l-.4.3c-.1.1-.3.3-.4.5v2.2c.3.3.5.6.8.8.2.2.5.3.8.3.2 0 .5-.1.6-.2.2-.1.3-.3.4-.5s.2-.4.2-.7l.1-.8zm6.3-5.5c0 .4-.1.6-.2.8-.2.1-.4.2-.9.2-.4 0-.7-.1-.9-.2-.1-.1-.2-.4-.2-.7 0-.4.1-.6.2-.8.2-.1.4-.2.9-.2.4 0 .7.1.9.2.1.1.2.3.2.7zm-.2 8.8v.1s-.1.1-.2.1-.2 0-.3.1h-1c-.1 0-.2 0-.3-.1-.1-.1-.1-.1-.2-.1v-6.8s.1-.1.2-.1.2 0 .3-.1h1c.1 0 .2 0 .3.1l.2.1v6.7zm8.4 0c0 .1 0 .1-.1.2 0 0-.1.1-.2.1h-1c-.1 0-.2 0-.2-.1 0 0-.1-.1-.1-.2v-.5c-.3.3-.6.5-.9.7-.4.2-.7.2-1.2.2-.4 0-.7 0-1-.1-.3-.1-.6-.2-.8-.4-.2-.2-.4-.4-.5-.7s-.2-.6-.2-.9c0-.4.1-.7.2-1s.4-.5.7-.7c.3-.2.7-.3 1.1-.4.5-.1 1-.1 1.6-.1h.7v-.4c0-.2 0-.4-.1-.5 0-.2-.1-.3-.2-.4-.1-.1-.2-.2-.4-.2l-.6-.1c-.3 0-.6 0-.8.1l-.7.2c-.2.1-.4.2-.5.2-.1.1-.2.1-.3.1-.1 0-.1 0-.1-.1l-.1-.1c0-.1 0-.1-.1-.2v-.7c0-.1.1-.2.1-.2s.2-.2.4-.2.4-.2.6-.2c.2-.1.5-.1.8-.2l.9-.1c.5 0 1 0 1.4.2s.7.3.9.5.4.5.5.8.2.7.2 1.2v4.2zm-1.8-2.8h-.8c-.3 0-.6 0-.8.1-.2 0-.4.1-.5.2l-.3.3c-.1.1-.1.3-.1.4 0 .3.1.5.3.6.2.2.4.2.7.2.3 0 .5-.1.7-.2.2-.1.5-.3.7-.6l.1-1z"/><path class="st7" d="M68.7 326.9c0 1.7-1.4 3.1-3.1 3.1-1.7 0-3.1-1.4-3.1-3.1s1.4-3.1 3.1-3.1c1.7 0 3.1 1.4 3.1 3.1z"/><path class="st4" d="M217.7 326.9c0 1.7-1.4 3.1-3.1 3.1s-3.1-1.4-3.1-3.1 1.4-3.1 3.1-3.1 3.1 1.4 3.1 3.1z"/><path class="st0" d="M366.8 326.9c0 1.7-1.4 3.1-3.1 3.1s-3.1-1.4-3.1-3.1 1.4-3.1 3.1-3.1 3.1 1.4 3.1 3.1z"/></svg>