<svg version="1" xmlns="http://www.w3.org/2000/svg" width="990.667" height="990.667" viewBox="0 0 743 743"><path d="M195.6.8c-4 .5-11.3 8.1-12.1 12.6-.8 4 0 8.3 1.8 10 .7.6 4.4 3.2 8.2 5.7 16 10.5 35 27.6 48.3 43.4 4.1 4.9 7.9 9.1 8.4 9.3.4.2.8.9.8 1.7 0 .7.7 1.8 1.6 2.6.8.7 4.8 6.2 8.8 12.3 10 15.3 10.7 16.5 13.5 21.6 6.5 12.2 11.4 17.4 19.7 21 4.9 2.2 16.6 4 19.4 3.1.3-.1 2.1-.4 4-.6 5.2-.6 7-1.1 13-3.4 3-1.1 5.8-1.7 6.2-1.3.9.9 1.3 2.8 2.4 9.6.3 2.2.8 4.5 1.1 5 .4.5.1.6-.5.2-.6-.3-1.3-.2-1.7.4-.4.6-1 .8-1.4.6-.4-.3-5 .4-10.2 1.5-5.2 1.1-9.8 2.1-10.4 2.3-.5.1-1.6.5-2.3 1-.7.4-1.6.5-1.9.2-.3-.3-1.1-.2-1.7.3-.9.7-10.6 4.2-12.6 4.6-.8.2-10.1 4.5-17.5 8.2-7.4 3.7-23.5 13.9-24.7 15.7-.5.7-.8.7-.8.1s-.3-.6-.8.1c-.4.6-3.8 3.7-7.7 7-10.3 8.6-18.7 17.6-27.1 28.9-4.1 5.5-7.8 10.4-8.2 11-2.8 3.7-9.8 17-15.5 29.5-1.8 3.9-7.3 20.1-8.1 24-.3 1.4-1 4.5-1.6 7-.5 2.5-1.2 5.6-1.5 7-.3 1.4-.8 5-1.1 8-2.3 21.9-1.8 40.6 1.6 57 .6 3 1.3 6.6 1.6 8 .8 4.8 3.5 13.6 7 22.5 1.8 5 3.4 9.6 3.4 10.2 0 .6.3 1.3.8 1.5.4.1 2.2 3.4 4.1 7.3 4.1 8.6 12.5 21.7 19.9 31 6.5 8.2 20.7 22.5 27.2 27.5 2.5 1.9 4.7 3.7 5 4 .9 1.1 20.7 14 21.4 14 .5 0 2 .8 3.4 1.8 5.2 3.5 23.4 10.8 36.2 14.6 24.6 7.2 55.7 8.7 81.5 4 5.7-1 15-3.2 15-3.4 0-.1 1.3-.4 2.9-.6 1.6-.3 3.7-.9 4.5-1.4.9-.4 4.6-1.8 8.1-3 7.2-2.4 26.7-11.7 28.8-13.7.7-.7 1.7-1.3 2.2-1.3 3 0 25.4-17.6 35.7-28.1 9.1-9.3 20.2-22.8 20.3-24.6 0-.6.4-1.3.8-1.5 2.3-.9 17.2-28.8 18.8-35.2.3-1.4 1-2.9 1.5-3.2.5-.3.9-1.5.9-2.8 0-1.2.4-2.6.9-3.2 1.1-1.2 6.8-24.2 7.6-31.2 1.3-10.3 1.9-20.4 1.8-31.2-.1-15.2-.7-21.3-3.9-35.8-.3-1.5-.8-4.2-1.1-6-.3-1.7-.8-3.2-1.2-3.2-.4 0-.8-.8-.9-1.8-.3-3.1-.8-4.7-2-7-.7-1.2-1-2.2-.6-2.2.3 0 .2-.6-.4-1.3-.6-.6-1.1-1.7-1.2-2.2-1.2-5.6-12.9-29.3-16.6-33.6-.8-.8-1.4-2.1-1.4-2.7 0-.7-.4-1.2-1-1.2-.5 0-1-.7-1-1.5s-.3-1.5-.8-1.5c-.4 0-1.8-1.8-3.2-4-1.4-2.2-2.8-4-3.2-4-.5 0-.8-.7-.8-1.6 0-.8-.4-1.2-1-.9-.5.3-1 .2-1-.4 0-1.3-4.7-6.5-13.4-15-9.3-9-11.6-11.1-11.6-10.5 0 .3-1.1-.6-2.4-2-1.3-1.5-2.8-2.6-3.5-2.6-.6 0-1.1-.4-1.1-.8 0-.5-1.2-1.5-2.7-2.3-1.6-.8-3.4-2-4.1-2.6-5-4.7-36.3-20.2-44.2-21.8-.8-.2-1.6-.4-1.7-.5-.2-.2-.6-.3-1-.5-.5-.1-1.5-.4-2.3-.7-4-1.5-25.6-6.1-28.3-6-1.1.1-1.6-.4-1.3-1.1.3-.7.9-2 1.3-3.1 1.9-5.5 12.2-24.8 13.6-25.4.4-.2.7-.8.7-1.4 0-3.2 22.7-27.9 33.4-36.3 2.1-1.7 4.3-3.5 5-4 .6-.6 3.2-2.4 5.8-4.1l4.7-3.1-4.9-7.2c-2.8-4-5-7.6-5-8.1 0-.4-.7-1-1.5-1.4-.8-.3-1.5-1.1-1.5-1.8s-1.1-2.5-2.5-4-2.5-2.9-2.5-3.2c0-.2-2.2-3.6-4.9-7.6l-4.9-7.1-5.9 4.9c-6.8 5.8-26.3 26.3-26.3 27.8 0 .4-2.7 3.8-4.7 5.9-.7.8-1.3 1.6-1.3 2 0 .3-.5 1.1-1.1 1.8-2.4 2.8-10.8 16.3-10.9 17.4 0 .7-.4 1.3-1 1.3-.5 0-1 .9-1 1.9 0 1.1-.3 2.2-.8 2.5-.4.2-.6-4.1-.5-9.7.1-5.9-.4-12.5-1.2-15.7-1.7-7.2-4.7-15-5.7-15-.4 0-.8-.6-.8-1.4 0-1.9-6.5-10.3-12.2-15.8-6.4-6.1-19.9-15.1-31.8-21.3-5.2-2.7-9.5-4.7-9.5-4.6 0 .3-2.2-.6-8-3C291.7 9.8 267.7 4 254 2.4c-3.6-.4-7.4-.9-8.5-1.1-2.9-.5-46.5-1-49.9-.5zm-78.4 556.3c-2.7 1.5-6.1 4.5-7.7 6.6-1.6 2.1-3.2 4-3.6 4.3-1.5 1.2-8.1 16.6-10.3 24.2-3.3 11.5-4.3 16.6-6.4 32.8-.8 6.5-.7 43.8.1 49.5.4 2.2 1 6 1.3 8.5.4 2.5.8 4.9 1 5.5.1.5.5 2.8.9 5 .8 4.6 8.4 27.7 9.3 28.5.4.3 1.5 2.1 2.5 4 2.7 5.4 8.6 11.8 13.2 14.6l4.2 2.4H654v-6.3c0-5.5-.6-7.5-4.2-14.8-2.4-4.6-4.5-9.1-4.7-9.9-.2-.8-1.5-5.1-2.8-9.4-1.3-4.4-2.6-9.3-2.9-11-.2-1.7-.7-3.8-.9-4.6-.5-1.7-1.3-7-2.2-15.5-1.4-12.5-.7-46 1.1-55.1.2-1.2.7-3.7 1-5.5.3-1.9.8-4.5 1.1-5.9.3-1.4.8-3.5 1.1-4.8 1.3-6.5 6.1-19.5 9.5-26 3.3-6.3 3.9-8.4 3.9-13.7v-6.2H122l-4.8 2.8zm486.3 36.2c-1 2.9-3.9 20.8-5 31.7-1.4 13-.9 41.8.9 56 1.4 10.1 1.9 13.2 3.4 19.7 1 4.2.9 4.3-1.7 4.4-3.4.1-464.4.1-465.3 0-.7-.1-5.3-13.7-6.2-18.6-.4-1.7-.9-4.1-1.1-5.5-.3-1.4-.7-3.6-1-5-.6-3-1.8-22.9-1.8-28.5 0-4 1-18.5 1.8-26 .5-5.4 5.2-23 7-26.5l1.4-2.8h234c176.1 0 233.9.3 233.6 1.1z"/></svg>