<svg xmlns="http://www.w3.org/2000/svg" width="1366" height="768"><path d="M765 442L606 625l128 1z" fill="#90c1cc" stroke="#90c1cc" stroke-width="1.51"/><path d="M765 442H570l36 183z" fill="#9ccbd2" stroke="#9ccbd2" stroke-width="1.51"/><path d="M734 626l234-15-203-169z" fill="#85b7c5" stroke="#85b7c5" stroke-width="1.51"/><path d="M606 625l134 163-6-162z" fill="#82b3c3" stroke="#82b3c3" stroke-width="1.51"/><path d="M570 442L397 583l209 42z" fill="#9ec9d0" stroke="#9ec9d0" stroke-width="1.51"/><path d="M606 625l-40 251 174-88z" fill="#7babbe" stroke="#7babbe" stroke-width="1.51"/><path d="M740 788l228-177-234 15z" fill="#78a9bc" stroke="#78a9bc" stroke-width="1.51"/><path d="M968 611l42-199-245 30z" fill="#87b8c6" stroke="#87b8c6" stroke-width="1.51"/><path d="M590 129L370 325l200 117z" fill="#bde2e1" stroke="#bde2e1" stroke-width="1.51"/><path d="M570 442L370 325l27 258z" fill="#b0d8da" stroke="#b0d8da" stroke-width="1.51"/><path d="M590 129l-20 313h195z" fill="#b0ddde" stroke="#b0ddde" stroke-width="1.51"/><path d="M383 777l183 99 40-251z" fill="#84afbf" stroke="#84afbf" stroke-width="1.51"/><path d="M128 600l255 177 14-194z" fill="#a0c2cc" stroke="#a0c2cc" stroke-width="1.51"/><path d="M397 583l-14 194 223-152z" fill="#94bdc8" stroke="#94bdc8" stroke-width="1.51"/><path d="M794 136l-204-7 175 313z" fill="#b4dddd" stroke="#b4dddd" stroke-width="1.51"/><path d="M966 224l-172-88-29 306z" fill="#a6d0d5" stroke="#a6d0d5" stroke-width="1.51"/><path d="M1010 412l-44-188-201 218z" fill="#96c6cf" stroke="#96c6cf" stroke-width="1.51"/><path d="M740 788l253 36-25-213z" fill="#679ab2" stroke="#679ab2" stroke-width="1.51"/><path d="M968 611l311-20-269-179z" fill="#71a3b7" stroke="#71a3b7" stroke-width="1.51"/><path d="M982 1012l11-188-253-36z" fill="#5e8ba5" stroke="#5e8ba5" stroke-width="1.51"/><path d="M590 129l-261 91 41 105z" fill="#c9e8e4" stroke="#c9e8e4" stroke-width="1.51"/><path d="M370 325l-184 50 211 208z" fill="#bbdfde" stroke="#bbdfde" stroke-width="1.51"/><path d="M566 876l184 188-10-276z" fill="#6f9bae" stroke="#6f9bae" stroke-width="1.51"/><path d="M383 777l150 222 33-123z" fill="#7ea3b4" stroke="#7ea3b4" stroke-width="1.51"/><path d="M329 220L186 375l184-50z" fill="#cae8e5" stroke="#cae8e5" stroke-width="1.51"/><path d="M966 224L821-2l-27 138z" fill="#b2d5d7" stroke="#b2d5d7" stroke-width="1.51"/><path d="M794 136L821-2 590 129z" fill="#c1e2e0" stroke="#c1e2e0" stroke-width="1.51"/><path d="M590 129L305-10l24 230z" fill="#d5ede7" stroke="#d5ede7" stroke-width="1.51"/><path d="M186 375l-58 225 269-17z" fill="#b6d5d8" stroke="#b6d5d8" stroke-width="1.51"/><path d="M383 777l-68 213 218 9z" fill="#81a0b2" stroke="#81a0b2" stroke-width="1.51"/><path d="M533 999l217 65-184-188z" fill="#7095a8" stroke="#7095a8" stroke-width="1.51"/><path d="M821-2L558-38l32 167z" fill="#cdeae5" stroke="#cdeae5" stroke-width="1.51"/><path d="M329 220l-199 3 56 152z" fill="#d3ece6" stroke="#d3ece6" stroke-width="1.51"/><path d="M750 1064l232-52-242-224z" fill="#608aa2" stroke="#608aa2" stroke-width="1.51"/><path d="M533 999l50 298 167-233z" fill="#67879b" stroke="#67879b" stroke-width="1.51"/><path d="M105 849l210 141 68-213z" fill="#8eaab9" stroke="#8eaab9" stroke-width="1.51"/><path d="M1255 833L968 611l25 213z" fill="#5689a7" stroke="#5689a7" stroke-width="1.51"/><path d="M1255 833l24-242-311 20z" fill="#578aa7" stroke="#578aa7" stroke-width="1.51"/><path d="M1010 412l222-216-266 28z" fill="#90bcc8" stroke="#90bcc8" stroke-width="1.51"/><path d="M966 224l-1-281L821-2z" fill="#b3d2d6" stroke="#b3d2d6" stroke-width="1.51"/><path d="M1279 591l-1-169-268-10z" fill="#70a1b7" stroke="#70a1b7" stroke-width="1.51"/><path d="M186 375l-273-35 215 260z" fill="#c9d9d7" stroke="#c9d9d7" stroke-width="1.51"/><path d="M305-10L130 223l199-3z" fill="#dcf1e8" stroke="#dcf1e8" stroke-width="1.51"/><path d="M558-38L305-10l285 139z" fill="#d8efe8" stroke="#d8efe8" stroke-width="1.51"/><path d="M765-315l-213 39 6 238z" fill="#dbbcb5" stroke="#dbbcb5" stroke-width="1.51"/><path d="M1232 196L965-57l1 281z" fill="#a1c3cc" stroke="#a1c3cc" stroke-width="1.51"/><path d="M1278 422l-46-226-222 216z" fill="#81afc0" stroke="#81afc0" stroke-width="1.51"/><path d="M128 600l-23 249 278-72z" fill="#9cbac6" stroke="#9cbac6" stroke-width="1.51"/><path d="M-123 635l228 214 23-249z" fill="#acb2bb" stroke="#acb2bb" stroke-width="1.51"/><path d="M982 1012l273-179-262-9z" fill="#4d7b9a" stroke="#4d7b9a" stroke-width="1.51"/><path d="M315 990l81 214 137-205z" fill="#7992a4" stroke="#7992a4" stroke-width="1.51"/><path d="M105 849l33 171 177-30z" fill="#8ea4b2" stroke="#8ea4b2" stroke-width="1.51"/><path d="M159 1263l237-59-81-214z" fill="#7b8d9d" stroke="#7b8d9d" stroke-width="1.51"/><path d="M750 1064l262 158-30-210z" fill="#50748f" stroke="#50748f" stroke-width="1.51"/><path d="M1419 823l-8-259-132 27z" fill="#4f7e9c" stroke="#4f7e9c" stroke-width="1.51"/><path d="M1279 591l132-27-133-142z" fill="#6291aa" stroke="#6291aa" stroke-width="1.51"/><path d="M1278 422l116-66-162-160z" fill="#7ba6b8" stroke="#7ba6b8" stroke-width="1.51"/><path d="M1411 564l-17-208-116 66z" fill="#6a98ae" stroke="#6a98ae" stroke-width="1.51"/><path d="M305-10L172-60l-42 283z" fill="#e8f6ec" stroke="#e8f6ec" stroke-width="1.51"/><path d="M394-311L172-60l133 50z" fill="#edd8cd" stroke="#edd8cd" stroke-width="1.51"/><path d="M394-311L305-10l253-28z" fill="#e5d6cd" stroke="#e5d6cd" stroke-width="1.51"/><path d="M130 223L-87 340l273 35z" fill="#d7e4dd" stroke="#d7e4dd" stroke-width="1.51"/><path d="M105 849l-238 163 271 8z" fill="#9695a3" stroke="#9695a3" stroke-width="1.51"/><path d="M-57 154l-30 186 217-117z" fill="#e0dad1" stroke="#e0dad1" stroke-width="1.51"/><path d="M982 1012l288 72-15-251z" fill="#406b8d" stroke="#406b8d" stroke-width="1.51"/><path d="M784 1308l228-86-262-158z" fill="#53758e" stroke="#53758e" stroke-width="1.51"/><path d="M396 1204l187 93-50-298z" fill="#6e879a" stroke="#6e879a" stroke-width="1.51"/><path d="M583 1297l201 11-34-244z" fill="#5f8196" stroke="#5f8196" stroke-width="1.51"/><path d="M-87 340l-36 295 251-35z" fill="#c3bebe" stroke="#c3bebe" stroke-width="1.51"/><path d="M765-315L558-38 821-2z" fill="#d2ccc7" stroke="#d2ccc7" stroke-width="1.51"/><path d="M1270 1084l149-261-164 10z" fill="#3a6789" stroke="#3a6789" stroke-width="1.51"/><path d="M1255 833l164-10-140-232z" fill="#447798" stroke="#447798" stroke-width="1.51"/><path d="M172-60L-57 154l187 69z" fill="#eaede2" stroke="#eaede2" stroke-width="1.51"/><path d="M1012 1222l258-138-288-72z" fill="#406685" stroke="#406685" stroke-width="1.51"/><path d="M1246-98L965-57l267 253z" fill="#a4bfc9" stroke="#a4bfc9" stroke-width="1.51"/><path d="M976-271l-211-44L965-57z" fill="#c5a6a6" stroke="#c5a6a6" stroke-width="1.51"/><path d="M965-57L765-315 821-2z" fill="#c6bfbe" stroke="#c6bfbe" stroke-width="1.51"/><path d="M1487 0l-241-98-14 294z" fill="#96b0be" stroke="#96b0be" stroke-width="1.51"/><path d="M1186-262l-210-9-11 214z" fill="#b89da3" stroke="#b89da3" stroke-width="1.51"/><path d="M-123 635l1 233 227-19z" fill="#a59ba6" stroke="#a59ba6" stroke-width="1.51"/><path d="M138 1020l21 243 156-273z" fill="#8495a4" stroke="#8495a4" stroke-width="1.51"/><path d="M172-60L-49-37l-8 191z" fill="#f3e7da" stroke="#f3e7da" stroke-width="1.51"/><path d="M552-276l-158-35L558-38z" fill="#e3c0b7" stroke="#e3c0b7" stroke-width="1.51"/><path d="M765-315l-371 4 158 35z" fill="#e0aaa1" stroke="#e0aaa1" stroke-width="1.51"/><path d="M1394 356l102-178-264 18z" fill="#80a5b6" stroke="#80a5b6" stroke-width="1.51"/><path d="M1723 433l-227-255-102 178z" fill="#7195a9" stroke="#7195a9" stroke-width="1.51"/><path d="M1723 433l-329-77 17 208z" fill="#648da4" stroke="#648da4" stroke-width="1.51"/><path d="M396 1204l-237 59 424 34z" fill="#758b9c" stroke="#758b9c" stroke-width="1.51"/><path d="M-48 1228l207 35-21-243z" fill="#888997" stroke="#888997" stroke-width="1.51"/><path d="M175-321L-49-37l221-23z" fill="#f7d4c7" stroke="#f7d4c7" stroke-width="1.51"/><path d="M-341 335l96 209 158-204z" fill="#d6afa9" stroke="#d6afa9" stroke-width="1.51"/><path d="M-87 340l-158 204 122 91z" fill="#c8adac" stroke="#c8adac" stroke-width="1.51"/><path d="M-341 335l254 5 30-186z" fill="#e1bfb7" stroke="#e1bfb7" stroke-width="1.51"/><path d="M-123 635l-137 156 138 77z" fill="#a98a95" stroke="#a98a95" stroke-width="1.51"/><path d="M1246-98l-60-164L965-57z" fill="#afa2aa" stroke="#afa2aa" stroke-width="1.51"/><path d="M976-271l459-45-670 1z" fill="#b9868b" stroke="#b9868b" stroke-width="1.51"/><path d="M1435-316l-249 54 60 164z" fill="#a7838e" stroke="#a7838e" stroke-width="1.51"/><path d="M-242 1027l109-15 11-144z" fill="#9a7683" stroke="#9a7683" stroke-width="1.51"/><path d="M-122 868l-11 144 238-163z" fill="#9c8e9a" stroke="#9c8e9a" stroke-width="1.51"/><path d="M1482 1238l-21-170-191 16z" fill="#2b4d70" stroke="#2b4d70" stroke-width="1.51"/><path d="M1270 1084l191-16-42-245z" fill="#335b7e" stroke="#335b7e" stroke-width="1.51"/><path d="M1419 823l289-179-297-80z" fill="#467292" stroke="#467292" stroke-width="1.51"/><path d="M1257 1307l13-223-258 138z" fill="#365b7c" stroke="#365b7c" stroke-width="1.51"/><path d="M1496 178l-9-178-255 196z" fill="#8aa7b6" stroke="#8aa7b6" stroke-width="1.51"/><path d="M-245 544l-15 247 137-156z" fill="#b79198" stroke="#b79198" stroke-width="1.51"/><path d="M765-315l-590-6 219 10z" fill="#e7a9a0" stroke="#e7a9a0" stroke-width="1.51"/><path d="M394-311l-219-10-3 261z" fill="#f2c2b6" stroke="#f2c2b6" stroke-width="1.51"/><path d="M784 1308l473-1-245-85z" fill="#456885" stroke="#456885" stroke-width="1.51"/><path d="M1461 1068l160-212-202-33z" fill="#335b7d" stroke="#335b7d" stroke-width="1.51"/><path d="M1496 178l216-34L1487 0z" fill="#849cab" stroke="#849cab" stroke-width="1.51"/><path d="M-242 1027l194 201-85-216z" fill="#916e7b" stroke="#916e7b" stroke-width="1.51"/><path d="M-133 1012l85 216 186-208z" fill="#8f818e" stroke="#8f818e" stroke-width="1.51"/><path d="M-343 109l2 226 284-181z" fill="#e8b5ab" stroke="#e8b5ab" stroke-width="1.51"/><path d="M-245 544l-96-209 81 456z" fill="#c49394" stroke="#c49394" stroke-width="1.51"/><path d="M-260 791l18 236 120-159z" fill="#a07783" stroke="#a07783" stroke-width="1.51"/><path d="M-264 1272l22-245-18-236z" fill="#966370" stroke="#966370" stroke-width="1.51"/><path d="M1621 856l87-212-289 179z" fill="#376385" stroke="#376385" stroke-width="1.51"/><path d="M1708 644l15-211-312 131z" fill="#547a95" stroke="#547a95" stroke-width="1.51"/><path d="M1461 1068l245 28-85-240z" fill="#2b4c6e" stroke="#2b4c6e" stroke-width="1.51"/><path d="M1884 848l-19-258-157 54z" fill="#3b5f7f" stroke="#3b5f7f" stroke-width="1.51"/><path d="M1257 1307l225-69-212-154z" fill="#2d5072" stroke="#2d5072" stroke-width="1.51"/><path d="M-355-88l12 197L-49-37z" fill="#f9bbae" stroke="#f9bbae" stroke-width="1.51"/><path d="M-49-37l-294 146 286 45z" fill="#f2c9be" stroke="#f2c9be" stroke-width="1.51"/><path d="M1723 433l-11-289-216 34z" fill="#7491a3" stroke="#7491a3" stroke-width="1.51"/><path d="M1487 0l-52-316-189 218z" fill="#9f8f9b" stroke="#9f8f9b" stroke-width="1.51"/><path d="M175-321l-312 75 88 209z" fill="#f8b5a8" stroke="#f8b5a8" stroke-width="1.51"/><path d="M1186-262l249-54-459 45z" fill="#ac7e87" stroke="#ac7e87" stroke-width="1.51"/><path d="M765-315l670-1-1260-5z" fill="#d09995" stroke="#d09995" stroke-width="1.51"/><path d="M1679-225l-244-91 52 316z" fill="#997c88" stroke="#997c88" stroke-width="1.51"/><path d="M1708 644l157-54-142-157z" fill="#4d6f8a" stroke="#4d6f8a" stroke-width="1.51"/><path d="M1482 1238l224-142-245-28z" fill="#264466" stroke="#264466" stroke-width="1.51"/><path d="M1712 144l12-176-237 32z" fill="#8899a8" stroke="#8899a8" stroke-width="1.51"/><path d="M1877 152L1724-32l-12 176z" fill="#7d8e9e" stroke="#7d8e9e" stroke-width="1.51"/><path d="M-343 109l-12-197 14 423z" fill="#eea89d" stroke="#eea89d" stroke-width="1.51"/><path d="M-137-246L-355-88l306 51z" fill="#f8aa9d" stroke="#f8aa9d" stroke-width="1.51"/><path d="M1884 848l-176-204-87 212z" fill="#31587a" stroke="#31587a" stroke-width="1.51"/><path d="M1723 433l157-42-168-247z" fill="#678599" stroke="#678599" stroke-width="1.51"/><path d="M-48 1228l-216 44 423-9z" fill="#8b7683" stroke="#8b7683" stroke-width="1.51"/><path d="M159 1263l-423 9 847 25z" fill="#83909f" stroke="#83909f" stroke-width="1.51"/><path d="M583 1297l-847-25 1048 36z" fill="#768b9c" stroke="#768b9c" stroke-width="1.51"/><path d="M-242 1027l-22 245 216-44z" fill="#8d626f" stroke="#8d626f" stroke-width="1.51"/><path d="M-341 335l77 937 4-481z" fill="#a77580" stroke="#a77580" stroke-width="1.51"/><path d="M1865 590l15-199-157 42z" fill="#577890" stroke="#577890" stroke-width="1.51"/><path d="M1882-102l-203-123 45 193z" fill="#8c7986" stroke="#8c7986" stroke-width="1.51"/><path d="M1724-32l-45-193L1487 0z" fill="#918996" stroke="#918996" stroke-width="1.51"/><path d="M1865 590l19 258-4-457z" fill="#466886" stroke="#466886" stroke-width="1.51"/><path d="M1851 1053l33-205-263 8z" fill="#29496b" stroke="#29496b" stroke-width="1.51"/><path d="M1880 391l-3-239-165-8z" fill="#70889a" stroke="#70889a" stroke-width="1.51"/><path d="M1482 1238l224 59v-201z" fill="#223e60" stroke="#223e60" stroke-width="1.51"/><path d="M1706 1096l145-43-230-197z" fill="#264567" stroke="#264567" stroke-width="1.51"/><path d="M1257 1307l449-10-224-59z" fill="#274769" stroke="#274769" stroke-width="1.51"/><path d="M1706 1297l145-244-145 43z" fill="#1e3658" stroke="#1e3658" stroke-width="1.51"/><path d="M-137-246l-211-59-7 217z" fill="#f4847b" stroke="#f4847b" stroke-width="1.51"/><path d="M175-321l-523 16 211 59z" fill="#f68f85" stroke="#f68f85" stroke-width="1.51"/><path d="M1880 391l2-493-5 254z" fill="#788b9c" stroke="#788b9c" stroke-width="1.51"/><path d="M1877 152l5-254-158 70z" fill="#8491a0" stroke="#8491a0" stroke-width="1.51"/><path d="M1939 1315l-57-1417-2 493z" fill="#4f718b" stroke="#4f718b" stroke-width="1.51"/><path d="M1882-102l-48-150-155 27z" fill="#8d6876" stroke="#8d6876" stroke-width="1.51"/><path d="M1679-225l155-27-399-64z" fill="#94626f" stroke="#94626f" stroke-width="1.51"/><path d="M1884 848l55 467-59-924z" fill="#2c4f71" stroke="#2c4f71" stroke-width="1.51"/><path d="M1851 1053l88 262-55-467z" fill="#213b5e" stroke="#213b5e" stroke-width="1.51"/><path d="M1706 1297l233 18-88-262z" fill="#1d3557" stroke="#1d3557" stroke-width="1.51"/><path d="M1257 1307l682 8-233-18z" fill="#223d5f" stroke="#223d5f" stroke-width="1.51"/><path d="M784 1308l1155 7-682-8z" fill="#2d5173" stroke="#2d5173" stroke-width="1.51"/></svg>