<svg xmlns="http://www.w3.org/2000/svg" width="1366" height="768"><path d="M765,442L606,625L734,626Z" fill="#90c1cc" stroke="#90c1cc" stroke-width="1.51"/><path d="M765,442L570,442L606,625Z" fill="#9ccbd2" stroke="#9ccbd2" stroke-width="1.51"/><path d="M734,626L968,611L765,442Z" fill="#85b7c5" stroke="#85b7c5" stroke-width="1.51"/><path d="M606,625L740,788L734,626Z" fill="#82b3c3" stroke="#82b3c3" stroke-width="1.51"/><path d="M570,442L397,583L606,625Z" fill="#9ec9d0" stroke="#9ec9d0" stroke-width="1.51"/><path d="M606,625L566,876L740,788Z" fill="#7babbe" stroke="#7babbe" stroke-width="1.51"/><path d="M740,788L968,611L734,626Z" fill="#78a9bc" stroke="#78a9bc" stroke-width="1.51"/><path d="M968,611L1010,412L765,442Z" fill="#87b8c6" stroke="#87b8c6" stroke-width="1.51"/><path d="M590,129L370,325L570,442Z" fill="#bde2e1" stroke="#bde2e1" stroke-width="1.51"/><path d="M570,442L370,325L397,583Z" fill="#b0d8da" stroke="#b0d8da" stroke-width="1.51"/><path d="M590,129L570,442L765,442Z" fill="#b0ddde" stroke="#b0ddde" stroke-width="1.51"/><path d="M383,777L566,876L606,625Z" fill="#84afbf" stroke="#84afbf" stroke-width="1.51"/><path d="M128,600L383,777L397,583Z" fill="#a0c2cc" stroke="#a0c2cc" stroke-width="1.51"/><path d="M397,583L383,777L606,625Z" fill="#94bdc8" stroke="#94bdc8" stroke-width="1.51"/><path d="M794,136L590,129L765,442Z" fill="#b4dddd" stroke="#b4dddd" stroke-width="1.51"/><path d="M966,224L794,136L765,442Z" fill="#a6d0d5" stroke="#a6d0d5" stroke-width="1.51"/><path d="M1010,412L966,224L765,442Z" fill="#96c6cf" stroke="#96c6cf" stroke-width="1.51"/><path d="M740,788L993,824L968,611Z" fill="#679ab2" stroke="#679ab2" stroke-width="1.51"/><path d="M968,611L1279,591L1010,412Z" fill="#71a3b7" stroke="#71a3b7" stroke-width="1.51"/><path d="M982,1012L993,824L740,788Z" fill="#5e8ba5" stroke="#5e8ba5" stroke-width="1.51"/><path d="M590,129L329,220L370,325Z" fill="#c9e8e4" stroke="#c9e8e4" stroke-width="1.51"/><path d="M370,325L186,375L397,583Z" fill="#bbdfde" stroke="#bbdfde" stroke-width="1.51"/><path d="M566,876L750,1064L740,788Z" fill="#6f9bae" stroke="#6f9bae" stroke-width="1.51"/><path d="M383,777L533,999L566,876Z" fill="#7ea3b4" stroke="#7ea3b4" stroke-width="1.51"/><path d="M329,220L186,375L370,325Z" fill="#cae8e5" stroke="#cae8e5" stroke-width="1.51"/><path d="M966,224L821,-2L794,136Z" fill="#b2d5d7" stroke="#b2d5d7" stroke-width="1.51"/><path d="M794,136L821,-2L590,129Z" fill="#c1e2e0" stroke="#c1e2e0" stroke-width="1.51"/><path d="M590,129L305,-10L329,220Z" fill="#d5ede7" stroke="#d5ede7" stroke-width="1.51"/><path d="M186,375L128,600L397,583Z" fill="#b6d5d8" stroke="#b6d5d8" stroke-width="1.51"/><path d="M383,777L315,990L533,999Z" fill="#81a0b2" stroke="#81a0b2" stroke-width="1.51"/><path d="M533,999L750,1064L566,876Z" fill="#7095a8" stroke="#7095a8" stroke-width="1.51"/><path d="M821,-2L558,-38L590,129Z" fill="#cdeae5" stroke="#cdeae5" stroke-width="1.51"/><path d="M329,220L130,223L186,375Z" fill="#d3ece6" stroke="#d3ece6" stroke-width="1.51"/><path d="M750,1064L982,1012L740,788Z" fill="#608aa2" stroke="#608aa2" stroke-width="1.51"/><path d="M533,999L583,1297L750,1064Z" fill="#67879b" stroke="#67879b" stroke-width="1.51"/><path d="M105,849L315,990L383,777Z" fill="#8eaab9" stroke="#8eaab9" stroke-width="1.51"/><path d="M1255,833L968,611L993,824Z" fill="#5689a7" stroke="#5689a7" stroke-width="1.51"/><path d="M1255,833L1279,591L968,611Z" fill="#578aa7" stroke="#578aa7" stroke-width="1.51"/><path d="M1010,412L1232,196L966,224Z" fill="#90bcc8" stroke="#90bcc8" stroke-width="1.51"/><path d="M966,224L965,-57L821,-2Z" fill="#b3d2d6" stroke="#b3d2d6" stroke-width="1.51"/><path d="M1279,591L1278,422L1010,412Z" fill="#70a1b7" stroke="#70a1b7" stroke-width="1.51"/><path d="M186,375L-87,340L128,600Z" fill="#c9d9d7" stroke="#c9d9d7" stroke-width="1.51"/><path d="M305,-10L130,223L329,220Z" fill="#dcf1e8" stroke="#dcf1e8" stroke-width="1.51"/><path d="M558,-38L305,-10L590,129Z" fill="#d8efe8" stroke="#d8efe8" stroke-width="1.51"/><path d="M765,-315L552,-276L558,-38Z" fill="#dbbcb5" stroke="#dbbcb5" stroke-width="1.51"/><path d="M1232,196L965,-57L966,224Z" fill="#a1c3cc" stroke="#a1c3cc" stroke-width="1.51"/><path d="M1278,422L1232,196L1010,412Z" fill="#81afc0" stroke="#81afc0" stroke-width="1.51"/><path d="M128,600L105,849L383,777Z" fill="#9cbac6" stroke="#9cbac6" stroke-width="1.51"/><path d="M-123,635L105,849L128,600Z" fill="#acb2bb" stroke="#acb2bb" stroke-width="1.51"/><path d="M982,1012L1255,833L993,824Z" fill="#4d7b9a" stroke="#4d7b9a" stroke-width="1.51"/><path d="M315,990L396,1204L533,999Z" fill="#7992a4" stroke="#7992a4" stroke-width="1.51"/><path d="M105,849L138,1020L315,990Z" fill="#8ea4b2" stroke="#8ea4b2" stroke-width="1.51"/><path d="M159,1263L396,1204L315,990Z" fill="#7b8d9d" stroke="#7b8d9d" stroke-width="1.51"/><path d="M750,1064L1012,1222L982,1012Z" fill="#50748f" stroke="#50748f" stroke-width="1.51"/><path d="M1419,823L1411,564L1279,591Z" fill="#4f7e9c" stroke="#4f7e9c" stroke-width="1.51"/><path d="M1279,591L1411,564L1278,422Z" fill="#6291aa" stroke="#6291aa" stroke-width="1.51"/><path d="M1278,422L1394,356L1232,196Z" fill="#7ba6b8" stroke="#7ba6b8" stroke-width="1.51"/><path d="M1411,564L1394,356L1278,422Z" fill="#6a98ae" stroke="#6a98ae" stroke-width="1.51"/><path d="M305,-10L172,-60L130,223Z" fill="#e8f6ec" stroke="#e8f6ec" stroke-width="1.51"/><path d="M394,-311L172,-60L305,-10Z" fill="#edd8cd" stroke="#edd8cd" stroke-width="1.51"/><path d="M394,-311L305,-10L558,-38Z" fill="#e5d6cd" stroke="#e5d6cd" stroke-width="1.51"/><path d="M130,223L-87,340L186,375Z" fill="#d7e4dd" stroke="#d7e4dd" stroke-width="1.51"/><path d="M105,849L-133,1012L138,1020Z" fill="#9695a3" stroke="#9695a3" stroke-width="1.51"/><path d="M-57,154L-87,340L130,223Z" fill="#e0dad1" stroke="#e0dad1" stroke-width="1.51"/><path d="M982,1012L1270,1084L1255,833Z" fill="#406b8d" stroke="#406b8d" stroke-width="1.51"/><path d="M784,1308L1012,1222L750,1064Z" fill="#53758e" stroke="#53758e" stroke-width="1.51"/><path d="M396,1204L583,1297L533,999Z" fill="#6e879a" stroke="#6e879a" stroke-width="1.51"/><path d="M583,1297L784,1308L750,1064Z" fill="#5f8196" stroke="#5f8196" stroke-width="1.51"/><path d="M-87,340L-123,635L128,600Z" fill="#c3bebe" stroke="#c3bebe" stroke-width="1.51"/><path d="M765,-315L558,-38L821,-2Z" fill="#d2ccc7" stroke="#d2ccc7" stroke-width="1.51"/><path d="M1270,1084L1419,823L1255,833Z" fill="#3a6789" stroke="#3a6789" stroke-width="1.51"/><path d="M1255,833L1419,823L1279,591Z" fill="#447798" stroke="#447798" stroke-width="1.51"/><path d="M172,-60L-57,154L130,223Z" fill="#eaede2" stroke="#eaede2" stroke-width="1.51"/><path d="M1012,1222L1270,1084L982,1012Z" fill="#406685" stroke="#406685" stroke-width="1.51"/><path d="M1246,-98L965,-57L1232,196Z" fill="#a4bfc9" stroke="#a4bfc9" stroke-width="1.51"/><path d="M976,-271L765,-315L965,-57Z" fill="#c5a6a6" stroke="#c5a6a6" stroke-width="1.51"/><path d="M965,-57L765,-315L821,-2Z" fill="#c6bfbe" stroke="#c6bfbe" stroke-width="1.51"/><path d="M1487,0L1246,-98L1232,196Z" fill="#96b0be" stroke="#96b0be" stroke-width="1.51"/><path d="M1186,-262L976,-271L965,-57Z" fill="#b89da3" stroke="#b89da3" stroke-width="1.51"/><path d="M-123,635L-122,868L105,849Z" fill="#a59ba6" stroke="#a59ba6" stroke-width="1.51"/><path d="M138,1020L159,1263L315,990Z" fill="#8495a4" stroke="#8495a4" stroke-width="1.51"/><path d="M172,-60L-49,-37L-57,154Z" fill="#f3e7da" stroke="#f3e7da" stroke-width="1.51"/><path d="M552,-276L394,-311L558,-38Z" fill="#e3c0b7" stroke="#e3c0b7" stroke-width="1.51"/><path d="M765,-315L394,-311L552,-276Z" fill="#e0aaa1" stroke="#e0aaa1" stroke-width="1.51"/><path d="M1394,356L1496,178L1232,196Z" fill="#80a5b6" stroke="#80a5b6" stroke-width="1.51"/><path d="M1723,433L1496,178L1394,356Z" fill="#7195a9" stroke="#7195a9" stroke-width="1.51"/><path d="M1723,433L1394,356L1411,564Z" fill="#648da4" stroke="#648da4" stroke-width="1.51"/><path d="M396,1204L159,1263L583,1297Z" fill="#758b9c" stroke="#758b9c" stroke-width="1.51"/><path d="M-48,1228L159,1263L138,1020Z" fill="#888997" stroke="#888997" stroke-width="1.51"/><path d="M175,-321L-49,-37L172,-60Z" fill="#f7d4c7" stroke="#f7d4c7" stroke-width="1.51"/><path d="M-341,335L-245,544L-87,340Z" fill="#d6afa9" stroke="#d6afa9" stroke-width="1.51"/><path d="M-87,340L-245,544L-123,635Z" fill="#c8adac" stroke="#c8adac" stroke-width="1.51"/><path d="M-341,335L-87,340L-57,154Z" fill="#e1bfb7" stroke="#e1bfb7" stroke-width="1.51"/><path d="M-123,635L-260,791L-122,868Z" fill="#a98a95" stroke="#a98a95" stroke-width="1.51"/><path d="M1246,-98L1186,-262L965,-57Z" fill="#afa2aa" stroke="#afa2aa" stroke-width="1.51"/><path d="M976,-271L1435,-316L765,-315Z" fill="#b9868b" stroke="#b9868b" stroke-width="1.51"/><path d="M1435,-316L1186,-262L1246,-98Z" fill="#a7838e" stroke="#a7838e" stroke-width="1.51"/><path d="M-242,1027L-133,1012L-122,868Z" fill="#9a7683" stroke="#9a7683" stroke-width="1.51"/><path d="M-122,868L-133,1012L105,849Z" fill="#9c8e9a" stroke="#9c8e9a" stroke-width="1.51"/><path d="M1482,1238L1461,1068L1270,1084Z" fill="#2b4d70" stroke="#2b4d70" stroke-width="1.51"/><path d="M1270,1084L1461,1068L1419,823Z" fill="#335b7e" stroke="#335b7e" stroke-width="1.51"/><path d="M1419,823L1708,644L1411,564Z" fill="#467292" stroke="#467292" stroke-width="1.51"/><path d="M1257,1307L1270,1084L1012,1222Z" fill="#365b7c" stroke="#365b7c" stroke-width="1.51"/><path d="M1496,178L1487,0L1232,196Z" fill="#8aa7b6" stroke="#8aa7b6" stroke-width="1.51"/><path d="M-245,544L-260,791L-123,635Z" fill="#b79198" stroke="#b79198" stroke-width="1.51"/><path d="M765,-315L175,-321L394,-311Z" fill="#e7a9a0" stroke="#e7a9a0" stroke-width="1.51"/><path d="M394,-311L175,-321L172,-60Z" fill="#f2c2b6" stroke="#f2c2b6" stroke-width="1.51"/><path d="M784,1308L1257,1307L1012,1222Z" fill="#456885" stroke="#456885" stroke-width="1.51"/><path d="M1461,1068L1621,856L1419,823Z" fill="#335b7d" stroke="#335b7d" stroke-width="1.51"/><path d="M1496,178L1712,144L1487,0Z" fill="#849cab" stroke="#849cab" stroke-width="1.51"/><path d="M-242,1027L-48,1228L-133,1012Z" fill="#916e7b" stroke="#916e7b" stroke-width="1.51"/><path d="M-133,1012L-48,1228L138,1020Z" fill="#8f818e" stroke="#8f818e" stroke-width="1.51"/><path d="M-343,109L-341,335L-57,154Z" fill="#e8b5ab" stroke="#e8b5ab" stroke-width="1.51"/><path d="M-245,544L-341,335L-260,791Z" fill="#c49394" stroke="#c49394" stroke-width="1.51"/><path d="M-260,791L-242,1027L-122,868Z" fill="#a07783" stroke="#a07783" stroke-width="1.51"/><path d="M-264,1272L-242,1027L-260,791Z" fill="#966370" stroke="#966370" stroke-width="1.51"/><path d="M1621,856L1708,644L1419,823Z" fill="#376385" stroke="#376385" stroke-width="1.51"/><path d="M1708,644L1723,433L1411,564Z" fill="#547a95" stroke="#547a95" stroke-width="1.51"/><path d="M1461,1068L1706,1096L1621,856Z" fill="#2b4c6e" stroke="#2b4c6e" stroke-width="1.51"/><path d="M1884,848L1865,590L1708,644Z" fill="#3b5f7f" stroke="#3b5f7f" stroke-width="1.51"/><path d="M1257,1307L1482,1238L1270,1084Z" fill="#2d5072" stroke="#2d5072" stroke-width="1.51"/><path d="M-355,-88L-343,109L-49,-37Z" fill="#f9bbae" stroke="#f9bbae" stroke-width="1.51"/><path d="M-49,-37L-343,109L-57,154Z" fill="#f2c9be" stroke="#f2c9be" stroke-width="1.51"/><path d="M1723,433L1712,144L1496,178Z" fill="#7491a3" stroke="#7491a3" stroke-width="1.51"/><path d="M1487,0L1435,-316L1246,-98Z" fill="#9f8f9b" stroke="#9f8f9b" stroke-width="1.51"/><path d="M175,-321L-137,-246L-49,-37Z" fill="#f8b5a8" stroke="#f8b5a8" stroke-width="1.51"/><path d="M1186,-262L1435,-316L976,-271Z" fill="#ac7e87" stroke="#ac7e87" stroke-width="1.51"/><path d="M765,-315L1435,-316L175,-321Z" fill="#d09995" stroke="#d09995" stroke-width="1.51"/><path d="M1679,-225L1435,-316L1487,0Z" fill="#997c88" stroke="#997c88" stroke-width="1.51"/><path d="M1708,644L1865,590L1723,433Z" fill="#4d6f8a" stroke="#4d6f8a" stroke-width="1.51"/><path d="M1482,1238L1706,1096L1461,1068Z" fill="#264466" stroke="#264466" stroke-width="1.51"/><path d="M1712,144L1724,-32L1487,0Z" fill="#8899a8" stroke="#8899a8" stroke-width="1.51"/><path d="M1877,152L1724,-32L1712,144Z" fill="#7d8e9e" stroke="#7d8e9e" stroke-width="1.51"/><path d="M-343,109L-355,-88L-341,335Z" fill="#eea89d" stroke="#eea89d" stroke-width="1.51"/><path d="M-137,-246L-355,-88L-49,-37Z" fill="#f8aa9d" stroke="#f8aa9d" stroke-width="1.51"/><path d="M1884,848L1708,644L1621,856Z" fill="#31587a" stroke="#31587a" stroke-width="1.51"/><path d="M1723,433L1880,391L1712,144Z" fill="#678599" stroke="#678599" stroke-width="1.51"/><path d="M-48,1228L-264,1272L159,1263Z" fill="#8b7683" stroke="#8b7683" stroke-width="1.51"/><path d="M159,1263L-264,1272L583,1297Z" fill="#83909f" stroke="#83909f" stroke-width="1.51"/><path d="M583,1297L-264,1272L784,1308Z" fill="#768b9c" stroke="#768b9c" stroke-width="1.51"/><path d="M-242,1027L-264,1272L-48,1228Z" fill="#8d626f" stroke="#8d626f" stroke-width="1.51"/><path d="M-341,335L-264,1272L-260,791Z" fill="#a77580" stroke="#a77580" stroke-width="1.51"/><path d="M1865,590L1880,391L1723,433Z" fill="#577890" stroke="#577890" stroke-width="1.51"/><path d="M1882,-102L1679,-225L1724,-32Z" fill="#8c7986" stroke="#8c7986" stroke-width="1.51"/><path d="M1724,-32L1679,-225L1487,0Z" fill="#918996" stroke="#918996" stroke-width="1.51"/><path d="M1865,590L1884,848L1880,391Z" fill="#466886" stroke="#466886" stroke-width="1.51"/><path d="M1851,1053L1884,848L1621,856Z" fill="#29496b" stroke="#29496b" stroke-width="1.51"/><path d="M1880,391L1877,152L1712,144Z" fill="#70889a" stroke="#70889a" stroke-width="1.51"/><path d="M1482,1238L1706,1297L1706,1096Z" fill="#223e60" stroke="#223e60" stroke-width="1.51"/><path d="M1706,1096L1851,1053L1621,856Z" fill="#264567" stroke="#264567" stroke-width="1.51"/><path d="M1257,1307L1706,1297L1482,1238Z" fill="#274769" stroke="#274769" stroke-width="1.51"/><path d="M1706,1297L1851,1053L1706,1096Z" fill="#1e3658" stroke="#1e3658" stroke-width="1.51"/><path d="M-137,-246L-348,-305L-355,-88Z" fill="#f4847b" stroke="#f4847b" stroke-width="1.51"/><path d="M175,-321L-348,-305L-137,-246Z" fill="#f68f85" stroke="#f68f85" stroke-width="1.51"/><path d="M1880,391L1882,-102L1877,152Z" fill="#788b9c" stroke="#788b9c" stroke-width="1.51"/><path d="M1877,152L1882,-102L1724,-32Z" fill="#8491a0" stroke="#8491a0" stroke-width="1.51"/><path d="M1939,1315L1882,-102L1880,391Z" fill="#4f718b" stroke="#4f718b" stroke-width="1.51"/><path d="M1882,-102L1834,-252L1679,-225Z" fill="#8d6876" stroke="#8d6876" stroke-width="1.51"/><path d="M1679,-225L1834,-252L1435,-316Z" fill="#94626f" stroke="#94626f" stroke-width="1.51"/><path d="M1884,848L1939,1315L1880,391Z" fill="#2c4f71" stroke="#2c4f71" stroke-width="1.51"/><path d="M1851,1053L1939,1315L1884,848Z" fill="#213b5e" stroke="#213b5e" stroke-width="1.51"/><path d="M1706,1297L1939,1315L1851,1053Z" fill="#1d3557" stroke="#1d3557" stroke-width="1.51"/><path d="M1257,1307L1939,1315L1706,1297Z" fill="#223d5f" stroke="#223d5f" stroke-width="1.51"/><path d="M784,1308L1939,1315L1257,1307Z" fill="#2d5173" stroke="#2d5173" stroke-width="1.51"/></svg>