<?xml version="1.0" encoding="utf-8"?>
<!-- Generator: Adobe Illustrator 22.1.0, SVG Export Plug-In . SVG Version: 6.00 Build 0)  -->
<svg version="1.1" id="Capa_1" xmlns="http://www.w3.org/2000/svg" xmlns:xlink="http://www.w3.org/1999/xlink" x="0px" y="0px"
	 viewBox="0 0 85.1 79.4" style="enable-background:new 0 0 85.1 79.4;" xml:space="preserve">
<style type="text/css">
	.st0{fill:#E63946;}
</style>
<path class="st0" d="M57.5,24.8L54.7,22l-9.1,9.1l2.9,2.9L57.5,24.8z M32,50.3L43.4,39l11.3,11.3l2.9-2.9L32.1,22l-2.9,2.9
	l11.3,11.3L29.2,47.5L32,50.3z M63.7,0l-2,3.5C73.6,10.4,81,23.2,81,36.9c0,21.2-17.3,38.5-38.5,38.5S4,58.1,4,36.9
	C4,25.4,9.1,14.6,17.9,7.3l-2.6-3.1C5.6,12.3,0,24.2,0,36.9c0,23.4,19.1,42.5,42.5,42.5s42.5-19.1,42.5-42.5
	C85.1,21.7,76.9,7.6,63.7,0z"/>
</svg>
